{
.appVersion = "3221";
.formatVersion = 3;
axes = (
{
name = Weight;
tag = wght;
}
);
classes = (
{
automatic = 1;
code = "A Aacute Abreve Abreveacute Abrevedotbelow Abrevegrave Abrevehookabove Abrevetilde Acircumflex Acircumflexacute Acircumflexdotbelow Acircumflexgrave Acircumflexhookabove Acircumflextilde Adblgrave Adieresis Adotbelow Agrave Ahookabove Ainvertedbreve Amacron Aogonek Aring Aringacute Atilde AE AEacute B C Cacute Ccaron Ccedilla Ccircumflex Cdotaccent D DZcaron Dcaron Dcroat Dzcaron Eth E Eacute Ebreve Ecaron Ecircumflex Ecircumflexacute Ecircumflexdotbelow Ecircumflexgrave Ecircumflexhookabove Ecircumflextilde Edblgrave Edieresis Edotaccent Edotbelow Egrave Ehookabove Einvertedbreve Emacron Eogonek Etilde Schwa Ezh Ezhcaron F G Gbreve Gcaron Gcircumflex Gcommaaccent Gdotaccent Gstroke H Hbar Hcircumflex I IJ Iacute Ibreve Icircumflex Idblgrave Idieresis Idotaccent Idotbelow Igrave Ihookabove Iinvertedbreve Imacron Iogonek Itilde J Jacute Jcircumflex K Kcaron Kcommaaccent L LJ Lacute Lcaron Lcommaaccent Ldot Lj Lslash M N NJ Nacute Ncaron Ncommaaccent Nj Ntilde Eng O Oacute Obreve Ocircumflex Ocircumflexacute Ocircumflexdotbelow Ocircumflexgrave Ocircumflexhookabove Ocircumflextilde Odblgrave Odieresis Odieresismacron Odotaccentmacron Odotbelow Ograve Ohookabove Ohorn Ohornacute Ohorndotbelow Ohorngrave Ohornhookabove Ohorntilde Ohungarumlaut Oinvertedbreve Omacron Oogonek Oslash Oslashacute Otilde Otildemacron OE P Thorn Q R Racute Rcaron Rcommaaccent Rdblgrave Rinvertedbreve S Sacute Scaron Scedilla Scircumflex Scommaaccent Germandbls T Tbar Tcaron Tcedilla Tcommaaccent U Uacute Ubreve Ucircumflex Udblgrave Udieresis Udotbelow Ugrave Uhookabove Uhorn Uhornacute Uhorndotbelow Uhorngrave Uhornhookabove Uhorntilde Uhungarumlaut Uinvertedbreve Umacron Uogonek Uring Utilde V W Wacute Wcircumflex Wdieresis Wgrave X Y Yacute Ycircumflex Ydieresis Ydotbelow Ygrave Yhookabove Ymacron Ytilde Z Zacute Zcaron Zdotaccent";
name = Uppercase;
},
{

glyphs = (
{
glyphname = A;
kernLeft = A;
kernRight = A;
lastChange = "2023-10-12 14:03:48 +0000";
layers = (
{
anchors = (
{
name = bottom;
pos = (400,0);
},
{
name = ogonek;
pos = (681,0);
},
{
name = top;
pos = (400,900);
},
{
name = "top-vertical";
pos = (120,720);
}
);
hints = (
{
horizontal = 1;
origin = (0,7);
target = up;
type = BottomGhost;
},
{
horizontal = 1;
origin = (0,1);
target = (1,8);
type = Stem;
},
{
horizontal = 1;
origin = (0,5);
target = down;
type = TopGhost;
}
);
layerId = "3E87E8DA-1F15-4738-9454-A2AB4CEA57DC";
shapes = (
{
closed = 1;
nodes = (
(133,0,l),
(240,267,l),
(555,267,l),
(661,0,l),
(782,0,l),
(401,930,l),
(399,930,l),
(18,0,l)
);
},
{
closed = 1;
nodes = (
(349,540,ls),
(367,586,o),
(381,624,o),
(397,686,c),
(413,624,o),
(428,585,o),
(446,540,cs),
(517,362,l),
(278,362,l)
);
}
);
width = 800;
},
{
anchors = (
{
name = bottom;
pos = (410,0);
},
{
name = ogonek;
pos = (670,0);
},
{
name = top;
pos = (410,900);
},
{
name = "top-vertical";
pos = (130,720);
}
);
guides = (
{
angle = 112.9161;
pos = (623,0);
},
{
angle = 246.5644;
pos = (181,0);
}
);
layerId = "5864D40E-51E2-4FDD-96DA-51B6D988DC78";
shapes = (
{
closed = 1;
nodes = (
(187,0,l),
(254,160,l),
(560,160,l),
(627,0,l),
(808,0,l),
(411,932,l),
(409,932,l),
(12,0,l)
);
},
{
closed = 1;
nodes = (
(353,396,ls),
(374,445,o),
(391,488,o),
(406,548,c),
(422,487,o),
(440,445,o),
(461,396,cs),
(500,304,l),
(314,304,l)
);
}
);
width = 820;
}
);
unicode = 65;
},
{
glyphname = Aogonek;
kernLeft = A;
kernRight = A;
lastChange = "2023-10-12 14:03:48 +0000";
layers = (
{
background = {
shapes = (
{
closed = 1;
nodes = (
(133,0,l),
(240,267,l),
(555,267,l),
(650,27,l),
(585,-55,o),
(571,-106,o),
(571,-153,cs),
(571,-254,o),
(649,-312,o),
(736,-312,c),
(758,-219,l),
(707,-219,o),
(671,-195,o),
(671,-134,cs),
(671,-83,o),
(694,-45,o),
(731,0,c),
(782,0,l),
(401,930,l),
(399,930,l),
(18,0,l)
);
},
{
closed = 1;
nodes = (
(349,540,ls),
(367,586,o),
(381,624,o),
(397,686,c),
(413,624,o),
(428,585,o),
(446,540,cs),
(517,362,l),
(278,362,l)
);
}
);
};
hints = (
{
horizontal = 1;
origin = (0,20);
target = (0,0);
type = Stem;
},
{
horizontal = 1;
origin = (0,10);
target = up;
type = BottomGhost;
},
{
horizontal = 1;
origin = (0,12);
target = (1,8);
type = Stem;
},
{
origin = (0,17);
target = (0,3);
type = Stem;
},
{
horizontal = 1;
origin = (0,9);
target = down;
type = TopGhost;
}
);
layerId = "3E87E8DA-1F15-4738-9454-A2AB4CEA57DC";
shapes = (
{
closed = 1;
nodes = (
(758,-219,l),
(707,-219,o),
(671,-195,o),
(671,-134,cs),
(671,-83,o),
(694,-45,o),
(731,0,c),
(782,0,l),
(401,930,l),
(399,930,l),
(18,0,l),
(133,0,l),
(240,267,l),
(555,267,l),
(650,27,l),
(585,-55,o),
(571,-106,o),
(571,-153,cs),
(571,-254,o),
(649,-312,o),
(736,-312,c)
);
},
{
closed = 1;
nodes = (
(349,540,ls),
(367,586,o),
(381,624,o),
(397,686,c),
(413,624,o),
(428,585,o),
(446,540,cs),
(517,362,l),
(278,362,l)
);
}
);
width = 800;
},
{
background = {
shapes = (
{
closed = 1;
nodes = (
(133,0,l),
(349,540,l),
(367,586,o),
(381,624,o),
(397,686,c),
(413,624,o),
(428,585,o),
(446,540,c),
(661,0,l),
(782,0,l),
(400,930,l),
(18,0,l)
);
},
{
closed = 1;
nodes = (
(548,362,l),
(247,362,l),
(211,267,l),
(583,267,l)
);
},
{
closed = 1;
nodes = (
(784,-312,o),
(823,-299,o),
(852,-277,c),
(828,-180,l),
(813,-205,o),
(790,-228,o),
(750,-228,cs),
(705,-228,o),
(678,-199,o),
(678,-157,cs),
(678,-98,o),
(739,-40,o),
(782,0,c),
(661,0,l),
(591,-78,o),
(576,-128,o),
(576,-168,cs),
(576,-256,o),
(646,-312,o),
(737,-312,cs)
);
}
);
};
layerId = "5864D40E-51E2-4FDD-96DA-51B6D988DC78";
shapes = (
{
closed = 1;
nodes = (
(766,-190,l),
(720,-189,o),
(685,-166,o),
(685,-116,cs),
(685,-74,o),
(710,-39,o),
(745,0,c),
(808,0,l),
(411,932,l),
(409,932,l),
(12,0,l),
(187,0,l),
(254,160,l),
(560,160,l),
(614,31,l),
(546,-57,o),
(535,-109,o),
(535,-153,cs),
(535,-266,o),
(620,-318,o),
(736,-318,c)
);
},
{
closed = 1;
nodes = (
(353,396,ls),
(374,445,o),
(391,488,o),
(406,548,c),
(422,487,o),
(440,445,o),
(461,396,cs),
(500,304,l),
(314,304,l)
);
}
);
width = 820;
}
);
unicode = 260;
},
{
glyphname = Aring;
kernLeft = A;
kernRight = A;
lastChange = "2023-10-12 14:03:48 +0000";
layers = (
{
hints = (
{
horizontal = 1;
origin = (0,18);
target = up;
type = BottomGhost;
},
{
horizontal = 1;
origin = (0,1);
target = (1,8);
type = Stem;
},
{
horizontal = 1;
origin = (2,5);
target = (0,11);
type = Stem;
},
{
origin = (0,14);
target = (2,2);
type = Stem;
},
{
origin = (2,8);
target = (0,8);
type = Stem;
},
{
horizontal = 1;
origin = (2,11);
target = (0,17);
type = Stem;
}
);
layerId = "3E87E8DA-1F15-4738-9454-A2AB4CEA57DC";
shapes = (
{
closed = 1;
nodes = (
(133,0,l),
(240,267,l),
(555,267,l),
(661,0,l),
(782,0,l),
(437,838,l),
(507,855,o),
(559,915,o),
(559,990,cs),
(559,1078,o),
(487,1146,o),
(400,1146,cs),
(312,1146,o),
(241,1078,o),
(241,990,cs),
(241,915,o),
(293,854,o),
(363,838,c),
(18,0,l)
);
},
{
closed = 1;
nodes = (
(349,540,ls),
(367,586,o),
(381,624,o),
(397,686,c),
(413,624,o),
(428,585,o),
(446,540,cs),
(517,362,l),
(278,362,l)
);
},
{
closed = 1;
nodes = (
(354,906,o),
(316,944,o),
(316,990,cs),
(316,1035,o),
(354,1074,o),
(400,1074,cs),
(445,1074,o),
(484,1035,o),
(484,990,cs),
(484,944,o),
(445,906,o),
(400,906,cs)
);
}
);
width = 800;
},
{
layerId = "5864D40E-51E2-4FDD-96DA-51B6D988DC78";
shapes = (
{
closed = 1;
nodes = (
(187,0,l),
(254,160,l),
(560,160,l),
(627,0,l),
(808,0,l),
(460,817,l),
(530,837,o),
(581,900,o),
(581,978,cs),
(581,1073,o),
(504,1146,o),
(410,1146,cs),
(315,1146,o),
(239,1073,o),
(239,978,cs),
(239,900,o),
(290,837,o),
(360,817,c),
(12,0,l)
);
},
{
closed = 1;
nodes = (
(353,396,ls),
(374,445,o),
(391,488,o),
(406,548,c),
(422,487,o),
(440,445,o),
(461,396,cs),
(500,304,l),
(314,304,l)
);
},
{
closed = 1;
nodes = (
(372,909,o),
(341,940,o),
(341,978,cs),
(341,1015,o),
(372,1047,o),
(410,1047,cs),
(447,1047,o),
(479,1015,o),
(479,978,cs),
(479,940,o),
(447,909,o),
(410,909,cs)
);
}
);
width = 820;
}
);
unicode = 197;
},
{
glyphname = Aringacute;
kernLeft = A;
kernRight = A;
lastChange = "2023-10-12 14:03:48 +0000";
layers = (
{
hints = (
{
horizontal = 1;
origin = (0,18);
target = up;
type = BottomGhost;
},
{
horizontal = 1;
origin = (0,1);
target = (1,8);
type = Stem;
},
{
horizontal = 1;
origin = (2,5);
target = (0,11);
type = Stem;
},
{
horizontal = 1;
origin = (3,3);
target = (3,2);
type = Stem;
},
{
origin = (0,14);
target = (2,2);
type = Stem;
},
{
origin = (2,8);
target = (0,8);
type = Stem;
},
{
horizontal = 1;
origin = (2,11);
target = (0,17);
type = Stem;
}
);
layerId = "3E87E8DA-1F15-4738-9454-A2AB4CEA57DC";
shapes = (
{
closed = 1;
nodes = (
(133,0,l),
(240,267,l),
(555,267,l),
(661,0,l),
(782,0,l),
(437,838,l),
(507,855,o),
(559,915,o),
(559,990,cs),
(559,1078,o),
(487,1146,o),
(400,1146,cs),
(312,1146,o),
(241,1078,o),
(241,990,cs),
(241,915,o),
(293,854,o),
(363,838,c),
(18,0,l)
);
},
{
closed = 1;
nodes = (
(349,540,ls),
(367,586,o),
(381,624,o),
(397,686,c),
(413,624,o),
(428,585,o),
(446,540,cs),
(517,362,l),
(278,362,l)
);
},
{
closed = 1;
nodes = (
(354,906,o),
(316,944,o),
(316,990,cs),
(316,1035,o),
(354,1074,o),
(400,1074,cs),
(445,1074,o),
(484,1035,o),
(484,990,cs),
(484,944,o),
(445,906,o),
(400,906,cs)
);
},
{
closed = 1;
nodes = (
(448,1206,l),
(525,1317,l),
(420,1317,l),
(364,1206,l)
);
}
);
width = 800;
},
{
layerId = "5864D40E-51E2-4FDD-96DA-51B6D988DC78";
shapes = (
{
closed = 1;
nodes = (
(187,0,l),
(254,160,l),
(560,160,l),
(627,0,l),
(808,0,l),
(460,817,l),
(530,837,o),
(581,900,o),
(581,978,cs),
(581,1073,o),
(504,1146,o),
(410,1146,cs),
(315,1146,o),
(239,1073,o),
(239,978,cs),
(239,900,o),
(290,837,o),
(360,817,c),
(12,0,l)
);
},
{
closed = 1;
nodes = (
(353,396,ls),
(374,445,o),
(391,488,o),
(406,548,c),
(422,487,o),
(440,445,o),
(461,396,cs),
(500,304,l),
(314,304,l)
);
},
{
closed = 1;
nodes = (
(372,909,o),
(341,940,o),
(341,978,cs),
(341,1015,o),
(372,1047,o),
(410,1047,cs),
(447,1047,o),
(479,1015,o),
(479,978,cs),
(479,940,o),
(447,909,o),
(410,909,cs)
);
},
{
closed = 1;
nodes = (
(476,1206,l),
(564,1341,l),
(407,1341,l),
(350,1206,l)
);
}
);
width = 820;
}
);
unicode = 506;
},
{
glyphname = AE;
kernLeft = A;
kernRight = A;
lastChange = "2023-10-12 14:03:48 +0000";
layers = (
{
anchors = (
{
name = bottom;
pos = (380,0);
},
{
name = top;
pos = (587,900);
}
);
guides = (
{
angle = -72.9966;
pos = (710,102);
},
{
angle = 68.1986;
pos = (241,270);
},
{
angle = -73.0314;
pos = (517,361);
}
);
hints = (
{
horizontal = 1;
origin = (0,15);
target = (0,6);
type = Stem;
},
{
horizontal = 1;
origin = (0,1);
target = (1,8);
type = Stem;
},
{
horizontal = 1;
origin = (0,7);
target = (0,10);
type = Stem;
},
{
horizontal = 1;
origin = (0,14);
target = (0,11);
type = Stem;
}
);
layerId = "3E87E8DA-1F15-4738-9454-A2AB4CEA57DC";
shapes = (
{
closed = 1;
nodes = (
(133,0,l),
(240,267,l),
(545,267,l),
(627,0,l),
(990,0,l),
(990,102,l),
(710,102,l),
(587,504,l),
(816,504,l),
(816,606,l),
(556,606,l),
(497,798,l),
(786,798,l),
(786,900,l),
(388,900,l),
(18,0,l)
);
},
{
closed = 1;
nodes = (
(349,540,ls),
(370,594,o),
(392,647,o),
(413,713,c),
(429,647,o),
(446,594,o),
(462,540,cs),
(516,362,l),
(278,362,l)
);
}
);
width = 1020;
},
{
anchors = (
{
name = bottom;
pos = (407,0);
},
{
name = top;
pos = (604,900);
}
);
guides = (
{
angle = 67.257;
pos = (270,198);
},
{
angle = -70.9595;
pos = (525,297);
},
{
pos = (353,396);
}
);
layerId = "5864D40E-51E2-4FDD-96DA-51B6D988DC78";
shapes = (
{
closed = 1;
nodes = (
(187,0,l),
(254,160,l),
(572,160,l),
(627,0,l),
(1016,0,l),
(1016,162,l),
(745,162,l),
(644,456,l),
(842,456,l),
(842,606,l),
(592,606,l),
(545,744,l),
(812,744,l),
(812,900,l),
(396,900,l),
(12,0,l)
);
},
{
closed = 1;
nodes = (
(353,396,ls),
(378,456,o),
(405,517,o),
(428,597,c),
(447,517,o),
(469,456,o),
(490,396,cs),
(522,304,l),
(314,304,l)
);
}
);
width = 1040;
},
{
anchors = (
{
name = bottom;
pos = (1148,0);
},
{
name = ogonek;
pos = (1370,0);
},
{
name = top;
pos = (400,900);
},
{
name = topleft;
pos = (926,900);
}
);
associatedMasterId = "3E87E8DA-1F15-4738-9454-A2AB4CEA57DC";
guides = (
{
angle = -68.2901;
pos = (554,270);
},
{
angle = 180;
pos = (609,798);
}
);
layerId = "6844C37B-85F9-4297-BA67-DA480648FB0B";
name = "27 May 22, 14:15";
shapes = (
{
closed = 1;
nodes = (
(133,0,l),
(349,540,ls),
(367,586,o),
(381,624,o),
(397,686,c),
(413,624,o),
(428,585,o),
(446,540,cs),
(661,0,l),
(972,0,l),
(972,102,l),
(740,102,l),
(575,504,l),
(785,504,l),
(785,606,l),
(533,606,l),
(454,798,l),
(785,798,l),
(785,900,l),
(303,900,l),
(344,798,l),
(18,0,l)
);
},
{
closed = 1;
nodes = (
(548,362,l),
(247,362,l),
(211,267,l),
(583,267,l)
);
}
);
width = 1020;
},
{
anchors = (
{
name = bottom;
pos = (1148,0);
},
{
name = ogonek;
pos = (1370,0);
},
{
name = top;
pos = (400,900);
},
{
name = topleft;
pos = (926,900);
}
);
associatedMasterId = "5864D40E-51E2-4FDD-96DA-51B6D988DC78";
guides = (
{
angle = -68.2901;
pos = (554,270);
},
{
angle = 180;
pos = (609,798);
}
);
layerId = "3F078FEC-140B-47A3-AAE1-DC9212F4F248";
name = "27 May 22, 14:21";
shapes = (
{
closed = 1;
nodes = (
(133,0,l),
(349,540,ls),
(367,586,o),
(381,624,o),
(397,686,c),
(413,624,o),
(428,585,o),
(446,540,cs),
(661,0,l),
(972,0,l),
(972,102,l),
(740,102,l),
(575,504,l),
(785,504,l),
(785,606,l),
(533,606,l),
(454,798,l),
(785,798,l),
(785,900,l),
(303,900,l),
(344,798,l),
(18,0,l)
);
},
{
closed = 1;
nodes = (
(548,362,l),
(247,362,l),
(211,267,l),
(583,267,l)
);
}
);
width = 1020;
}
);
unicode = 198;
},
{
glyphname = B;
kernLeft = B;
kernRight = B;
lastChange = "2023-10-12 14:03:48 +0000";
layers = (
{
background = {
shapes = (
{
closed = 1;
nodes = (
(540,0,l),
(540,102,l),
(240,102,l),
(240,504,l),
(500,504,l),
(500,606,l),
(240,606,l),
(240,798,l),
(540,798,l),
(540,900,l),
(126,900,l),
(126,0,l)
);
}
);
};
guides = (
{
angle = 3.1798;
pos = (555,689);
},
{
angle = -2.0096;
pos = (633,289);
}
);
hints = (
{
horizontal = 1;
origin = (0,14);
target = (1,8);
type = Stem;
},
{
horizontal = 1;
origin = (1,0);
target = (2,8);
type = Stem;
},
{
horizontal = 1;
origin = (0,13);
target = (2,0);
type = Stem;
},
{
origin = (0,14);
target = (1,8);
type = Stem;
},
{
origin = (1,4);
target = (0,3);
type = Stem;
},
{
origin = (2,4);
target = (0,9);
type = Stem;
}
);
layerId = "3E87E8DA-1F15-4738-9454-A2AB4CEA57DC";
shapes = (
{
closed = 1;
nodes = (
(378,0,ls),
(582,0,o),
(690,144,o),
(690,287,cs),
(690,399,o),
(623,492,o),
(526,536,c),
(577,570,o),
(609,627,o),
(609,692,cs),
(609,778,o),
(549,900,o),
(378,900,cs),
(126,900,l),
(126,0,l)
);
},
{
closed = 1;
nodes = (
(240,480,l),
(370,480,ls),
(521,480,o),
(576,375,o),
(576,291,cs),
(576,204,o),
(517,102,o),
(370,102,cs),
(240,102,l)
);
},
{
closed = 1;
nodes = (
(240,798,l),
(373,798,ls),
(448,798,o),
(501,759,o),
(501,686,cs),
(501,615,o),
(448,576,o),
(369,576,cs),
(240,576,l)
);
}
);
width = 750;
},
{
background = {
shapes = (
{
closed = 1;
nodes = (
(540,0,l),
(540,102,l),
(240,102,l),
(240,504,l),
(500,504,l),
(500,606,l),
(240,606,l),
(240,798,l),
(540,798,l),
(540,900,l),
(126,900,l),
(126,0,l)
);
}
);
};
guides = (
{
angle = 90;
pos = (270,291);
},
{
angle = 3.1798;
pos = (555,686);
},
{
angle = -2.0096;
pos = (633,311);
}
);
layerId = "5864D40E-51E2-4FDD-96DA-51B6D988DC78";
shapes = (
{
closed = 1;
nodes = (
(366,0,ls),
(586,0,o),
(702,155,o),
(702,309,cs),
(702,414,o),
(647,504,o),
(564,556,c),
(600,591,o),
(621,638,o),
(621,690,cs),
(621,777,o),
(558,900,o),
(378,900,cs),
(96,900,l),
(96,0,l)
);
},
{
closed = 1;
nodes = (
(270,468,l),
(348,468,ls),
(470,468,o),
(514,383,o),
(514,315,cs),
(514,245,o),
(467,162,o),
(348,162,cs),
(270,162,l)
);
},
{
closed = 1;
nodes = (
(270,768,l),
(352,768,ls),
(411,768,o),
(453,738,o),
(453,680,cs),
(453,624,o),
(411,594,o),
(348,594,cs),
(270,594,l)
);
}
);
width = 750;
}
);
unicode = 66;
},
{
glyphname = C;
kernLeft = C;
kernRight = C;
lastChange = "2023-10-12 14:03:48 +0000";
layers = (
{
anchors = (
{
name = bottom;
pos = (530,0);
},
{
name = top;
pos = (530,900);
}
);
background = {
shapes = (
{
closed = 1;
nodes = (
(655,-17,o),
(772,35,o),
(857,120,c),
(823,261,l),
(762,162,o),
(653,95,o),
(527,95,cs),
(331,95,o),
(178,254,o),
(178,450,cs),
(178,646,o),
(331,805,o),
(527,805,cs),
(653,805,o),
(762,738,o),
(823,639,c),
(857,780,l),
(772,865,o),
(655,917,o),
(527,917,cs),
(269,917,o),
(60,708,o),
(60,450,cs),
(60,192,o),
(269,-17,o),
(527,-17,cs)
);
}
);
};
guides = (
{
angle = -76.4428;
pos = (840,191);
},
{
angle = 256.4428;
pos = (840,710);
}
);
hints = (
{
horizontal = 1;
origin = (0,25);
target = (0,6);
type = Stem;
},
{
horizontal = 1;
origin = (0,19);
target = (0,12);
type = Stem;
},
{
origin = (0,22);
target = (0,9);
type = Stem;
}
);
layerId = "3E87E8DA-1F15-4738-9454-A2AB4CEA57DC";
shapes = (
{
closed = 1;
nodes = (
(658,-18,o),
(773,33,o),
(858,115,c),
(825,253,l),
(763,155,o),
(656,90,o),
(530,90,cs),
(332,90,o),
(178,251,o),
(178,450,cs),
(178,649,o),
(332,810,o),
(530,810,cs),
(655,810,o),
(763,745,o),
(825,647,c),
(858,785,l),
(773,867,o),
(658,918,o),
(530,918,cs),
(270,918,o),
(60,709,o),
(60,450,cs),
(60,191,o),
(270,-18,o),
(530,-18,cs)
);
}
);
width = 900;
},
{
anchors = (
{
name = bottom;
pos = (530,0);
},
{
name = top;
pos = (530,900);
}
);
background = {
shapes = (
{
closed = 1;
nodes = (
(658,-18,o),
(773,33,o),
(858,115,c),
(825,253,l),
(763,155,o),
(656,90,o),
(530,90,cs),
(332,90,o),
(178,251,o),
(178,450,cs),
(178,649,o),
(332,810,o),
(530,810,cs),
(655,810,o),
(763,745,o),
(825,647,c),
(858,785,l),
(773,867,o),
(658,918,o),
(530,918,cs),
(270,918,o),
(60,709,o),
(60,450,cs),
(60,191,o),
(270,-18,o),
(530,-18,cs)
);
}
);
};
guides = (
{
angle = -76.4428;
pos = (816,191);
},
{
angle = 256.4428;
pos = (816,710);
}
);
layerId = "5864D40E-51E2-4FDD-96DA-51B6D988DC78";
shapes = (
{
closed = 1;
nodes = (
(649,-18,o),
(755,24,o),
(839,93,c),
(788,303,l),
(739,220,o),
(648,156,o),
(536,156,cs),
(373,156,o),
(248,287,o),
(248,450,cs),
(248,613,o),
(373,744,o),
(536,744,cs),
(649,744,o),
(738,680,o),
(788,597,c),
(839,807,l),
(756,877,o),
(648,918,o),
(530,918,cs),
(267,918,o),
(54,709,o),
(54,450,cs),
(54,191,o),
(267,-18,o),
(530,-18,cs)
);
}
);
width = 870;
}
);
unicode = 67;
},
{
glyphname = Ccedilla;
kernLeft = C;
kernRight = C;
lastChange = "2023-10-12 14:03:48 +0000";
layers = (
{
hints = (
{
horizontal = 1;
origin = (0,27);
target = (0,8);
type = Stem;
},
{
horizontal = 1;
origin = (0,21);
target = (0,14);
type = Stem;
},
{
origin = (0,24);
target = (0,11);
type = Stem;
},
{
horizontal = 1;
origin = (0,28);
target = up;
type = BottomGhost;
}
);
layerId = "3E87E8DA-1F15-4738-9454-A2AB4CEA57DC";
shapes = (
{
closed = 1;
nodes = (
(441,-180,l),
(571,-16,l),
(683,-7,o),
(782,42,o),
(858,115,c),
(825,253,l),
(763,155,o),
(656,90,o),
(530,90,cs),
(332,90,o),
(178,251,o),
(178,450,cs),
(178,649,o),
(332,810,o),
(530,810,cs),
(655,810,o),
(763,745,o),
(825,647,c),
(858,785,l),
(773,867,o),
(658,918,o),
(530,918,cs),
(270,918,o),
(60,709,o),
(60,450,cs),
(60,214,o),
(235,19,o),
(463,-13,c),
(298,-180,l)
);
}
);
width = 900;
},
{
layerId = "5864D40E-51E2-4FDD-96DA-51B6D988DC78";
shapes = (
{
closed = 1;
nodes = (
(471,-192,l),
(595,-14,l),
(688,-1,o),
(771,37,o),
(839,93,c),
(788,303,l),
(739,220,o),
(648,156,o),
(536,156,cs),
(373,156,o),
(248,287,o),
(248,450,cs),
(248,613,o),
(373,744,o),
(536,744,cs),
(649,744,o),
(738,680,o),
(788,597,c),
(839,807,l),
(756,877,o),
(648,918,o),
(530,918,cs),
(267,918,o),
(54,709,o),
(54,450,cs),
(54,220,o),
(222,29,o),
(444,-10,c),
(256,-192,l)
);
}
);
width = 870;
}
);
unicode = 199;
},
{
glyphname = D;
kernLeft = B;
kernRight = D;
lastChange = "2023-10-12 14:03:48 +0000";
layers = (
{
anchors = (
{
name = bottom;
pos = (407,0);
},
{
name = center;
pos = (179,480);
},
{
name = top;
pos = (407,900);
}
);
background = {
shapes = (
{
closed = 1;
nodes = (
(418,0,ls),
(573,0,o),
(681,47,o),
(764,132,cs),
(850,219,o),
(896,331,o),
(896,451,cs),
(896,579,o),
(843,687,o),
(763,768,cs),
(684,848,o),
(581,900,o),
(418,900,cs),
(127,900,l),
(127,0,l)
);
},
{
closed = 1;
nodes = (
(240,798,l),
(406,798,ls),
(541,798,o),
(621,757,o),
(681,696,cs),
(741,635,o),
(782,550,o),
(782,450,cs),
(782,350,o),
(741,265,o),
(681,204,cs),
(621,143,o),
(541,102,o),
(406,102,cs),
(240,102,l)
);
}
);
};
guides = (
{
angle = -83.2902;
pos = (415,51);
},
{
angle = 83.2902;
pos = (415,849);
}
);
hints = (
{
horizontal = 1;
origin = (0,8);
target = (1,8);
type = Stem;
},
{
horizontal = 1;
origin = (0,7);
target = (1,0);
type = Stem;
},
{
origin = (0,8);
target = (1,8);
type = Stem;
},
{
origin = (1,4);
target = (0,3);
type = Stem;
}
);
layerId = "3E87E8DA-1F15-4738-9454-A2AB4CEA57DC";
shapes = (
{
closed = 1;
nodes = (
(421,0,ls),
(747,0,o),
(900,240,o),
(900,450,cs),
(900,660,o),
(747,900,o),
(421,900,cs),
(126,900,l),
(126,0,l)
);
},
{
closed = 1;
nodes = (
(240,798,l),
(409,798,ls),
(685,798,o),
(782,600,o),
(782,450,cs),
(782,300,o),
(685,102,o),
(409,102,cs),
(240,102,l)
);
}
);
width = 960;
},
{
anchors = (
{
name = bottom;
pos = (407,0);
},
{
name = center;
pos = (179,480);
},
{
name = top;
pos = (407,900);
}
);
background = {
shapes = (
{
closed = 1;
nodes = (
(418,0,ls),
(573,0,o),
(681,47,o),
(764,132,cs),
(850,219,o),
(896,331,o),
(896,451,cs),
(896,579,o),
(843,687,o),
(763,768,cs),
(684,848,o),
(581,900,o),
(418,900,cs),
(127,900,l),
(127,0,l)
);
},
{
closed = 1;
nodes = (
(240,798,l),
(406,798,ls),
(541,798,o),
(621,757,o),
(681,696,cs),
(741,635,o),
(782,550,o),
(782,450,cs),
(782,350,o),
(741,265,o),
(681,204,cs),
(621,143,o),
(541,102,o),
(406,102,cs),
(240,102,l)
);
}
);
};
guides = (
{
angle = -83.2902;
pos = (415,51);
},
{
angle = 83.2902;
pos = (415,849);
}
);
layerId = "5864D40E-51E2-4FDD-96DA-51B6D988DC78";
shapes = (
{
closed = 1;
nodes = (
(402,0,ls),
(689,0,o),
(886,201,o),
(886,450,cs),
(886,699,o),
(689,900,o),
(402,900,cs),
(96,900,l),
(96,0,l)
);
},
{
closed = 1;
nodes = (
(270,738,l),
(386,738,ls),
(588,738,o),
(698,610,o),
(698,450,cs),
(698,290,o),
(588,162,o),
(386,162,cs),
(270,162,l)
);
}
);
width = 940;
}
);
unicode = 68;
},
{
glyphname = Eth;
kernLeft = B;
kernRight = D;
lastChange = "2023-10-12 14:03:48 +0000";
layers = (
{
hints = (
{
horizontal = 1;
origin = (0,12);
target = (1,12);
type = Stem;
},
{
horizontal = 1;
origin = (0,10);
target = (0,9);
type = Stem;
},
{
horizontal = 1;
origin = (0,7);
target = (1,4);
type = Stem;
},
{
origin = (0,12);
target = (1,12);
type = Stem;
},
{
origin = (1,8);
target = (0,3);
type = Stem;
}
);
layerId = "3E87E8DA-1F15-4738-9454-A2AB4CEA57DC";
shapes = (
{
closed = 1;
nodes = (
(421,0,ls),
(747,0,o),
(900,240,o),
(900,450,cs),
(900,660,o),
(747,900,o),
(421,900,cs),
(126,900,l),
(126,522,l),
(30,522,l),
(30,438,l),
(126,438,l),
(126,0,l)
);
},
{
closed = 1;
nodes = (
(240,438,l),
(510,438,l),
(510,522,l),
(240,522,l),
(240,798,l),
(409,798,ls),
(685,798,o),
(782,600,o),
(782,450,cs),
(782,300,o),
(685,102,o),
(409,102,cs),
(240,102,l)
);
}
);
width = 960;
},
{
layerId = "5864D40E-51E2-4FDD-96DA-51B6D988DC78";
shapes = (
{
closed = 1;
nodes = (
(402,0,ls),
(689,0,o),
(886,201,o),
(886,450,cs),
(886,699,o),
(689,900,o),
(402,900,cs),
(96,900,l),
(96,543,l),
(10,543,l),
(10,417,l),
(96,417,l),
(96,0,l)
);
},
{
closed = 1;
nodes = (
(270,417,l),
(490,417,l),
(490,543,l),
(270,543,l),
(270,738,l),
(386,738,ls),
(588,738,o),
(698,610,o),
(698,450,cs),
(698,290,o),
(588,162,o),
(386,162,cs),
(270,162,l)
);
}
);
width = 940;
}
);
unicode = 208;
},
{
glyphname = E;
kernLeft = B;
kernRight = E;
lastChange = "2023-10-12 14:03:48 +0000";
layers = (
{
anchors = (
{
name = bottom;
pos = (348,0);
},
{
name = ogonek;
pos = (520,0);
},
{
name = top;
pos = (348,900);
},
{
name = topleft;
pos = (126,900);
}
);
background = {
shapes = (
{
closed = 1;
nodes = (
(484,90,o),
(574,181,o),
(574,294,cs),
(574,408,o),
(484,498,o),
(370,498,cs),
(256,498,o),
(166,408,o),
(166,294,cs),
(166,181,o),
(256,90,o),
(370,90,cs)
);
},
{
closed = 1;
nodes = (
(200,-12,o),
(58,121,o),
(58,293,cs),
(58,418,o),
(133,521,o),
(239,568,c),
(232,550,l),
(187,587,o),
(158,639,o),
(158,705,cs),
(158,822,o),
(253,912,o),
(370,912,cs),
(487,912,o),
(582,822,o),
(582,705,cs),
(582,639,o),
(553,587,o),
(508,550,c),
(501,568,l),
(607,521,o),
(682,418,o),
(682,293,cs),
(682,121,o),
(540,-12,o),
(370,-12,cs)
);
},
{
closed = 1;
nodes = (
(432,586,o),
(482,636,o),
(482,698,cs),
(482,760,o),
(432,810,o),
(370,810,cs),
(308,810,o),
(258,760,o),
(258,698,cs),
(258,636,o),
(308,586,o),
(370,586,cs)
);
}
);
};
guides = (
{
angle = 180;
pos = (417,578);
},
{
angle = 180;
pos = (370,542);
}
);
hints = (
{
horizontal = 1;
origin = (0,11);
target = (0,2);
type = Stem;
},
{
horizontal = 1;
origin = (0,3);
target = (0,6);
type = Stem;
},
{
horizontal = 1;
origin = (0,10);
target = (0,7);
type = Stem;
},
{
origin = (0,11);
target = (0,2);
type = Stem;
}
);
layerId = "3E87E8DA-1F15-4738-9454-A2AB4CEA57DC";
shapes = (
{
closed = 1;
nodes = (
(570,0,l),
(570,102,l),
(240,102,l),
(240,504,l),
(500,504,l),
(500,606,l),
(240,606,l),
(240,798,l),
(570,798,l),
(570,900,l),
(126,900,l),
(126,0,l)
);
}
);
width = 630;
},
{
anchors = (
{
name = bottom;
pos = (348,0);
},
{
name = ogonek;
pos = (502,0);
},
{
name = top;
pos = (348,900);
},
{
name = topleft;
pos = (126,900);
}
);
background = {
shapes = (
{
closed = 1;
nodes = (
(484,90,o),
(574,181,o),
(574,294,cs),
(574,408,o),
(484,498,o),
(370,498,cs),
(256,498,o),
(166,408,o),
(166,294,cs),
(166,181,o),
(256,90,o),
(370,90,cs)
);
},
{
closed = 1;
nodes = (
(200,-12,o),
(58,121,o),
(58,293,cs),
(58,418,o),
(133,521,o),
(239,568,c),
(232,550,l),
(187,587,o),
(158,639,o),
(158,705,cs),
(158,822,o),
(253,912,o),
(370,912,cs),
(487,912,o),
(582,822,o),
(582,705,cs),
(582,639,o),
(553,587,o),
(508,550,c),
(501,568,l),
(607,521,o),
(682,418,o),
(682,293,cs),
(682,121,o),
(540,-12,o),
(370,-12,cs)
);
},
{
closed = 1;
nodes = (
(432,586,o),
(482,636,o),
(482,698,cs),
(482,760,o),
(432,810,o),
(370,810,cs),
(308,810,o),
(258,760,o),
(258,698,cs),
(258,636,o),
(308,586,o),
(370,586,cs)
);
}
);
};
guides = (
{
pos = (24,531);
}
);
layerId = "5864D40E-51E2-4FDD-96DA-51B6D988DC78";
shapes = (
{
closed = 1;
nodes = (
(576,0,l),
(576,162,l),
(270,162,l),
(270,456,l),
(506,456,l),
(506,606,l),
(270,606,l),
(270,744,l),
(576,744,l),
(576,900,l),
(96,900,l),
(96,0,l)
);
}
);
width = 630;
}
);
unicode = 69;
},
{
glyphname = Eogonek;
kernLeft = B;
kernRight = E;
lastChange = "2023-10-12 14:03:48 +0000";
layers = (
{
anchors = (
{
name = top;
pos = (348,900);
}
);
background = {
shapes = (
{
closed = 1;
nodes = (
(395,0,l),
(335,-76,o),
(318,-124,o),
(318,-167,cs),
(318,-256,o),
(391,-312,o),
(481,-312,cs),
(527,-312,o),
(566,-299,o),
(594,-277,c),
(570,-180,l),
(555,-205,o),
(532,-228,o),
(492,-228,cs),
(447,-228,o),
(420,-199,o),
(420,-151,cs),
(420,-84,o),
(481,-14,o),
(578,102,c),
(240,102,l),
(240,504,l),
(500,504,l),
(500,606,l),
(240,606,l),
(240,798,l),
(570,798,l),
(570,900,l),
(126,900,l),
(126,0,l)
);
}
);
};
hints = (
{
horizontal = 1;
origin = (0,24);
target = (0,0);
type = Stem;
},
{
horizontal = 1;
origin = (0,17);
target = (0,8);
type = Stem;
},
{
horizontal = 1;
origin = (0,9);
target = (0,12);
type = Stem;
},
{
horizontal = 1;
origin = (0,16);
target = (0,13);
type = Stem;
},
{
origin = (0,17);
target = (0,8);
type = Stem;
},
{
origin = (0,21);
target = (0,3);
type = Stem;
}
);
layerId = "3E87E8DA-1F15-4738-9454-A2AB4CEA57DC";
shapes = (
{
closed = 1;
nodes = (
(597,-219,l),
(546,-219,o),
(510,-195,o),
(510,-134,cs),
(510,-83,o),
(533,-45,o),
(570,0,c),
(570,102,l),
(240,102,l),
(240,504,l),
(500,504,l),
(500,606,l),
(240,606,l),
(240,798,l),
(570,798,l),
(570,900,l),
(126,900,l),
(126,0,l),
(470,0,l),
(432,-50,o),
(410,-100,o),
(410,-153,cs),
(410,-254,o),
(488,-312,o),
(575,-312,c)
);
}
);
width = 630;
},
{
anchors = (
{
name = _ogonek;
pos = (516,0);
},
{
name = bottom;
pos = (348,0);
},
{
name = ogonek;
pos = (516,0);
},
{
name = top;
pos = (348,900);
},
{
name = topleft;
pos = (126,900);
}
);
associatedMasterId = "3E87E8DA-1F15-4738-9454-A2AB4CEA57DC";
background = {
shapes = (
{
closed = 1;
nodes = (
(395,0,l),
(335,-76,o),
(318,-124,o),
(318,-167,cs),
(318,-256,o),
(391,-312,o),
(481,-312,cs),
(527,-312,o),
(566,-299,o),
(594,-277,c),
(570,-180,l),
(555,-205,o),
(532,-228,o),
(492,-228,cs),
(447,-228,o),
(420,-199,o),
(420,-151,cs),
(420,-84,o),
(481,-14,o),
(578,102,c),
(240,102,l),
(240,504,l),
(500,504,l),
(500,606,l),
(240,606,l),
(240,798,l),
(570,798,l),
(570,900,l),
(126,900,l),
(126,0,l)
);
}
);
};
layerId = "C0615829-8288-47A3-BF60-0783BA0D79E2";
name = "26 Dec 21, 14:25";
shapes = (
{
closed = 1;
nodes = (
(657,-159,l),
(606,-159,o),
(570,-135,o),
(570,-62,cs),
(570,102,l),
(240,102,l),
(240,504,l),
(500,504,l),
(500,606,l),
(240,606,l),
(240,798,l),
(570,798,l),
(570,900,l),
(126,900,l),
(126,0,l),
(494,0,l),
(470,73,l),
(470,-91,ls),
(470,-195,o),
(548,-252,o),
(635,-252,c)
);
}
);
width = 630;
},
{
anchors = (
{
name = top;
pos = (336,900);
}
);
background = {
shapes = (
{
closed = 1;
nodes = (
(395,0,l),
(335,-76,o),
(318,-124,o),
(318,-167,cs),
(318,-256,o),
(391,-312,o),
(481,-312,cs),
(527,-312,o),
(566,-299,o),
(594,-277,c),
(570,-180,l),
(555,-205,o),
(532,-228,o),
(492,-228,cs),
(447,-228,o),
(420,-199,o),
(420,-151,cs),
(420,-84,o),
(481,-14,o),
(578,102,c),
(240,102,l),
(240,504,l),
(500,504,l),
(500,606,l),
(240,606,l),
(240,798,l),
(570,798,l),
(570,900,l),
(126,900,l),
(126,0,l)
);
}
);
};
layerId = "5864D40E-51E2-4FDD-96DA-51B6D988DC78";
shapes = (
{
closed = 1;
nodes = (
(598,-190,l),
(552,-189,o),
(517,-166,o),
(517,-116,cs),
(517,-74,o),
(542,-39,o),
(576,0,c),
(576,162,l),
(270,162,l),
(270,456,l),
(506,456,l),
(506,606,l),
(270,606,l),
(270,744,l),
(576,744,l),
(576,900,l),
(96,900,l),
(96,0,l),
(427,0,l),
(389,-50,o),
(367,-100,o),
(367,-153,cs),
(367,-266,o),
(452,-318,o),
(568,-318,c)
);
}
);
width = 630;
},
{
anchors = (
{
name = _ogonek;
pos = (516,0);
},
{
name = bottom;
pos = (348,0);
},
{
name = ogonek;
pos = (516,0);
},
{
name = top;
pos = (348,900);
},
{
name = topleft;
pos = (126,900);
}
);
associatedMasterId = "5864D40E-51E2-4FDD-96DA-51B6D988DC78";
background = {
shapes = (
{
closed = 1;
nodes = (
(395,0,l),
(335,-76,o),
(318,-124,o),
(318,-167,cs),
(318,-256,o),
(391,-312,o),
(481,-312,cs),
(527,-312,o),
(566,-299,o),
(594,-277,c),
(570,-180,l),
(555,-205,o),
(532,-228,o),
(492,-228,cs),
(447,-228,o),
(420,-199,o),
(420,-151,cs),
(420,-84,o),
(481,-14,o),
(578,102,c),
(240,102,l),
(240,504,l),
(500,504,l),
(500,606,l),
(240,606,l),
(240,798,l),
(570,798,l),
(570,900,l),
(126,900,l),
(126,0,l)
);
}
);
};
layerId = "B893BEE6-2FB8-4DF9-9ED2-B3906626457B";
name = "26 Dec 21, 14:25";
shapes = (
{
closed = 1;
nodes = (
(657,-159,l),
(606,-159,o),
(570,-135,o),
(570,-62,cs),
(570,102,l),
(240,102,l),
(240,504,l),
(500,504,l),
(500,606,l),
(240,606,l),
(240,798,l),
(570,798,l),
(570,900,l),
(126,900,l),
(126,0,l),
(494,0,l),
(470,73,l),
(470,-91,ls),
(470,-195,o),
(548,-252,o),
(635,-252,c)
);
}
);
width = 630;
}
);
unicode = 280;
},
{
glyphname = Schwa;
kernLeft = C;
kernRight = D;
lastChange = "2023-10-12 14:03:48 +0000";
layers = (
{
background = {
shapes = (
{
closed = 1;
nodes = (
(780,-18,o),
(990,191,o),
(990,450,cs),
(990,709,o),
(780,918,o),
(520,918,cs),
(392,918,o),
(277,867,o),
(192,785,c),
(225,647,l),
(287,745,o),
(395,810,o),
(520,810,cs),
(718,810,o),
(872,649,o),
(872,450,cs),
(872,251,o),
(718,90,o),
(520,90,cs),
(394,90,o),
(287,155,o),
(225,253,c),
(192,115,l),
(277,33,o),
(392,-18,o),
(520,-18,cs)
);
}
);
};
hints = (
{
horizontal = 1;
origin = (0,23);
target = (1,9);
type = Stem;
},
{
horizontal = 1;
origin = (1,2);
target = (0,19);
type = Stem;
},
{
horizontal = 1;
origin = (0,5);
target = (0,12);
type = Stem;
},
{
origin = (1,6);
target = (0,2);
type = Stem;
},
{
origin = (0,20);
target = (1,2);
type = Stem;
}
);
layerId = "3E87E8DA-1F15-4738-9454-A2AB4CEA57DC";
shapes = (
{
closed = 1;
nodes = (
(780,-18,o),
(990,191,o),
(990,450,cs),
(990,709,o),
(780,918,o),
(520,918,cs),
(392,918,o),
(277,867,o),
(192,785,c),
(225,647,l),
(287,745,o),
(395,810,o),
(520,810,cs),
(701,810,o),
(845,676,o),
(869,501,c),
(830,506,o),
(792,510,o),
(754,510,cs),
(54,510,l),
(54,455,ls),
(54,191,o),
(263,-18,o),
(520,-18,cs)
);
},
{
closed = 1;
nodes = (
(339,90,o),
(194,229,o),
(174,408,c),
(754,408,ls),
(793,408,o),
(832,412,o),
(871,418,c),
(855,234,o),
(707,90,o),
(520,90,cs)
);
}
);
width = 1050;
},
{
background = {
shapes = (
{
closed = 1;
nodes = (
(780,-18,o),
(990,191,o),
(990,450,cs),
(990,709,o),
(780,918,o),
(520,918,cs),
(392,918,o),
(277,867,o),
(192,785,c),
(225,647,l),
(287,745,o),
(395,810,o),
(520,810,cs),
(718,810,o),
(872,649,o),
(872,450,cs),
(872,251,o),
(718,90,o),
(520,90,cs),
(394,90,o),
(287,155,o),
(225,253,c),
(192,115,l),
(277,33,o),
(392,-18,o),
(520,-18,cs)
);
}
);
};
layerId = "5864D40E-51E2-4FDD-96DA-51B6D988DC78";
shapes = (
{
closed = 1;
nodes = (
(783,-18,o),
(996,191,o),
(996,450,cs),
(996,709,o),
(783,918,o),
(520,918,cs),
(397,918,o),
(289,877,o),
(206,807,c),
(257,601,l),
(308,684,o),
(398,748,o),
(520,748,cs),
(659,748,o),
(773,654,o),
(805,525,c),
(768,531,o),
(731,534,o),
(694,534,cs),
(44,534,l),
(44,450,ls),
(44,191,o),
(257,-18,o),
(520,-18,cs)
);
},
{
closed = 1;
nodes = (
(378,150,o),
(262,250,o),
(233,384,c),
(694,384,ls),
(732,384,o),
(771,388,o),
(809,394,c),
(783,255,o),
(666,150,o),
(520,150,cs)
);
}
);
width = 1050;
}
);
unicode = 399;
},
{
glyphname = Ezh;
kernLeft = Ezh;
kernRight = Ezh;
lastChange = "2023-10-12 14:03:48 +0000";
layers = (
{
anchors = (
{
name = bottom;
pos = (302,0);
},
{
name = top;
pos = (313,900);
}
);
hints = (
{
horizontal = 1;
origin = (0,26);
target = (0,19);
type = Stem;
},
{
horizontal = 1;
origin = (0,7);
target = (0,8);
type = Stem;
},
{
origin = (0,16);
target = (0,2);
type = Stem;
},
{
horizontal = 1;
origin = (0,13);
target = (0,5);
type = Stem;
}
);
layerId = "3E87E8DA-1F15-4738-9454-A2AB4CEA57DC";
shapes = (
{
closed = 1;
nodes = (
(476,-12,o),
(618,125,o),
(618,300,cs),
(618,450,o),
(514,565,o),
(382,595,c),
(545,900,l),
(84,900,l),
(84,798,l),
(373,798,l),
(209,481,l),
(235,495,o),
(267,504,o),
(302,504,cs),
(414,504,o),
(504,412,o),
(504,300,cs),
(504,187,o),
(415,96,o),
(302,96,cs),
(198,96,o),
(112,172,o),
(98,275,c),
(30,141,l),
(85,46,o),
(186,-12,o),
(302,-12,cs)
);
}
);
width = 660;
},
{
anchors = (
{
name = bottom;
pos = (302,0);
},
{
name = top;
pos = (330,900);
}
);
background = {
shapes = (
{
closed = 1;
nodes = (
(476,-12,o),
(618,125,o),
(618,300,cs),
(618,465,o),
(491,588,o),
(340,602,c),
(352,540,l),
(545,900,l),
(84,900,l),
(84,798,l),
(424,798,l),
(397,844,l),
(181,427,l),
(180,462,l),
(210,486,o),
(253,504,o),
(302,504,cs),
(414,504,o),
(504,412,o),
(504,300,cs),
(504,187,o),
(415,96,o),
(302,96,cs),
(186,96,o),
(92,191,o),
(96,312,c),
(118,315,l),
(6,92,l),
(16,169,l),
(66,58,o),
(175,-12,o),
(302,-12,cs)
);
}
);
};
layerId = "5864D40E-51E2-4FDD-96DA-51B6D988DC78";
shapes = (
{
closed = 1;
nodes = (
(476,-20,o),
(630,118,o),
(630,299,cs),
(630,433,o),
(545,543,o),
(432,586,c),
(600,900,l),
(72,900,l),
(72,744,l),
(343,744,l),
(182,428,l),
(219,448,o),
(254,458,o),
(294,458,cs),
(394,458,o),
(460,388,o),
(460,301,cs),
(460,211,o),
(389,142,o),
(298,142,cs),
(203,142,o),
(130,217,o),
(112,306,c),
(20,123,l),
(76,38,o),
(179,-20,o),
(296,-20,cs)
);
}
);
width = 660;
},
{
anchors = (
{
name = bottom;
pos = (302,0);
},
{
name = top;
pos = (313,900);
}
);
associatedMasterId = "3E87E8DA-1F15-4738-9454-A2AB4CEA57DC";
layerId = "059BD109-4D33-4953-90A0-933896323136";
name = "20 May 23, 07:44";
shapes = (
{
closed = 1;
nodes = (
(476,-12,o),
(618,125,o),
(618,300,cs),
(618,465,o),
(491,588,o),
(340,602,c),
(352,540,l),
(545,900,l),
(84,900,l),
(84,798,l),
(424,798,l),
(397,844,l),
(181,427,l),
(180,462,l),
(210,486,o),
(253,504,o),
(302,504,cs),
(414,504,o),
(504,412,o),
(504,300,cs),
(504,187,o),
(415,96,o),
(302,96,cs),
(186,96,o),
(92,191,o),
(96,312,c),
(118,315,l),
(6,92,l),
(16,169,l),
(66,58,o),
(175,-12,o),
(302,-12,cs)
);
}
);
width = 660;
}
);
unicode = 439;
},
{
glyphname = F;
kernLeft = B;
kernRight = F;
lastChange = "2023-10-12 14:03:48 +0000";
layers = (
{
background = {
shapes = (
{
closed = 1;
nodes = (
(540,0,l),
(540,102,l),
(240,102,l),
(240,492,l),
(500,492,l),
(500,592,l),
(240,592,l),
(240,798,l),
(540,798,l),
(540,900,l),
(126,900,l),
(126,0,l)
);
}
);
};
guides = (
{
angle = 180;
pos = (417,578);
},
{
pos = (30,555);
}
);
hints = (
{
horizontal = 1;
origin = (0,9);
target = up;
type = BottomGhost;
},
{
horizontal = 1;
origin = (0,1);
target = (0,4);
type = Stem;
},
{
horizontal = 1;
origin = (0,8);
target = (0,5);
type = Stem;
},
{
origin = (0,9);
target = (0,0);
type = Stem;
}
);
layerId = "3E87E8DA-1F15-4738-9454-A2AB4CEA57DC";
shapes = (
{
closed = 1;
nodes = (
(240,0,l),
(240,504,l),
(540,504,l),
(540,606,l),
(240,606,l),
(240,798,l),
(570,798,l),
(570,900,l),
(126,900,l),
(126,0,l)
);
}
);
width = 600;
},
{
background = {
shapes = (
{
closed = 1;
nodes = (
(540,0,l),
(540,102,l),
(240,102,l),
(240,492,l),
(500,492,l),
(500,592,l),
(240,592,l),
(240,798,l),
(540,798,l),
(540,900,l),
(126,900,l),
(126,0,l)
);
}
);
};
guides = (
{
angle = 180;
pos = (417,578);
},
{
pos = (30,555);
}
);
layerId = "5864D40E-51E2-4FDD-96DA-51B6D988DC78";
shapes = (
{
closed = 1;
nodes = (
(270,0,l),
(270,456,l),
(546,456,l),
(546,606,l),
(270,606,l),
(270,750,l),
(576,750,l),
(576,900,l),
(96,900,l),
(96,0,l)
);
}
);
width = 600;
}
);
unicode = 70;
},
{
glyphname = G;
kernLeft = C;
kernRight = G;
lastChange = "2023-10-12 14:03:48 +0000";
layers = (
{
anchors = (
{
name = bottom;
pos = (529,0);
},
{
name = center;
pos = (783,270);
},
{
name = top;
pos = (530,900);
}
);
background = {
shapes = (
{
closed = 1;
nodes = (
(790,-18,o),
(1000,191,o),
(1000,450,cs),
(1000,709,o),
(790,918,o),
(530,918,cs),
(270,918,o),
(60,709,o),
(60,450,cs),
(60,191,o),
(270,-18,o),
(530,-18,cs)
);
},
{
closed = 1;
nodes = (
(332,90,o),
(178,251,o),
(178,450,cs),
(178,649,o),
(332,810,o),
(530,810,cs),
(728,810,o),
(882,649,o),
(882,450,cs),
(882,251,o),
(728,90,o),
(530,90,cs)
);
}
);
};
guides = (
{
angle = 76.4717;
pos = (841,714);
},
{
angle = 90;
pos = (480,429);
}
);
hints = (
{
horizontal = 1;
options = 4;
origin = (0,0);
target = (0,4);
type = TTStem;
},
{
horizontal = 1;
options = 4;
origin = (0,29);
target = (0,10);
type = TTStem;
},
{
horizontal = 1;
options = 2;
origin = (0,3);
type = TTSnap;
},
{
options = 4;
origin = (0,20);
target = (0,13);
type = TTStem;
},
{
options = 4;
origin = (0,6);
target = (0,3);
type = TTStem;
},
{
horizontal = 1;
origin = (0,29);
target = (0,10);
type = Stem;
},
{
horizontal = 1;
origin = (0,5);
target = (0,4);
type = Stem;
},
{
horizontal = 1;
origin = (0,23);
target = (0,16);
type = Stem;
},
{
origin = (0,26);
target = (0,13);
type = Stem;
},
{
origin = (0,7);
target = (0,2);
type = Stem;
}
);
layerId = "3E87E8DA-1F15-4738-9454-A2AB4CEA57DC";
shapes = (
{
closed = 1;
nodes = (
(645,-18,o),
(756,16,o),
(838,84,c),
(838,480,l),
(480,480,l),
(480,378,l),
(728,378,l),
(728,142,l),
(672,109,o),
(604,90,o),
(529,90,cs),
(330,90,o),
(178,254,o),
(178,450,cs),
(178,649,o),
(332,810,o),
(530,810,cs),
(655,810,o),
(763,745,o),
(825,647,c),
(858,785,l),
(773,867,o),
(658,918,o),
(530,918,cs),
(269,918,o),
(60,708,o),
(60,450,cs),
(60,192,o),
(268,-18,o),
(529,-18,cs)
);
}
);
width = 940;
},
{
anchors = (
{
name = bottom;
pos = (529,0);
},
{
name = center;
pos = (783,270);
},
{
name = top;
pos = (530,900);
}
);
background = {
shapes = (
{
closed = 1;
nodes = (
(793,-18,o),
(1006,191,o),
(1006,450,cs),
(1006,709,o),
(793,918,o),
(530,918,cs),
(267,918,o),
(54,709,o),
(54,450,cs),
(54,191,o),
(267,-18,o),
(530,-18,cs)
);
},
{
closed = 1;
nodes = (
(368,156,o),
(242,287,o),
(242,450,cs),
(242,613,o),
(368,744,o),
(530,744,cs),
(692,744,o),
(818,613,o),
(818,450,cs),
(818,287,o),
(692,156,o),
(530,156,cs)
);
}
);
};
guides = (
{
angle = 76.4717;
pos = (840,807);
},
{
angle = 90;
pos = (480,429);
}
);
layerId = "5864D40E-51E2-4FDD-96DA-51B6D988DC78";
shapes = (
{
closed = 1;
nodes = (
(653,-18,o),
(757,14,o),
(840,67,c),
(840,504,l),
(493,504,l),
(493,354,l),
(676,354,l),
(676,180,l),
(638,159,o),
(592,148,o),
(537,148,cs),
(368,148,o),
(242,272,o),
(242,448,cs),
(242,620,o),
(368,748,o),
(538,748,cs),
(660,748,o),
(750,684,o),
(801,601,c),
(852,807,l),
(769,877,o),
(661,918,o),
(538,918,cs),
(267,918,o),
(54,716,o),
(54,448,cs),
(54,179,o),
(267,-18,o),
(540,-18,cs)
);
}
);
width = 920;
}
);
unicode = 71;
},
{
glyphname = Gstroke;
kernLeft = C;
kernRight = G;
lastChange = "2023-10-12 14:03:48 +0000";
layers = (
{
hints = (
{
horizontal = 1;
options = 4;
origin = (0,35);
target = (0,8);
type = TTStem;
},
{
horizontal = 1;
options = 4;
origin = (0,35);
target = (0,16);
type = TTStem;
},
{
horizontal = 1;
options = 2;
origin = (0,7);
type = TTSnap;
},
{
options = 4;
origin = (0,26);
target = (0,19);
type = TTStem;
},
{
options = 4;
origin = (0,8);
target = (0,7);
type = TTStem;
},
{
horizontal = 1;
origin = (0,35);
target = (0,16);
type = Stem;
},
{
horizontal = 1;
origin = (0,11);
target = (0,10);
type = Stem;
},
{
horizontal = 1;
origin = (0,29);
target = (0,22);
type = Stem;
},
{
origin = (0,32);
target = (0,19);
type = Stem;
},
{
origin = (0,13);
target = (0,2);
type = Stem;
},
{
horizontal = 1;
origin = (0,8);
target = down;
type = TopGhost;
}
);
layerId = "3E87E8DA-1F15-4738-9454-A2AB4CEA57DC";
shapes = (
{
closed = 1;
nodes = (
(645,-18,o),
(756,16,o),
(838,84,c),
(838,318,l),
(910,318,l),
(910,402,l),
(838,402,l),
(838,540,l),
(728,540,l),
(728,402,l),
(490,402,l),
(490,318,l),
(728,318,l),
(728,142,l),
(672,109,o),
(604,90,o),
(529,90,cs),
(330,90,o),
(178,254,o),
(178,450,cs),
(178,649,o),
(332,810,o),
(530,810,cs),
(655,810,o),
(763,745,o),
(825,647,c),
(858,785,l),
(773,867,o),
(658,918,o),
(530,918,cs),
(269,918,o),
(60,708,o),
(60,450,cs),
(60,192,o),
(268,-18,o),
(529,-18,cs)
);
}
);
width = 940;
},
{
layerId = "5864D40E-51E2-4FDD-96DA-51B6D988DC78";
shapes = (
{
closed = 1;
nodes = (
(653,-18,o),
(757,14,o),
(840,67,c),
(840,309,l),
(910,309,l),
(910,435,l),
(840,435,l),
(840,540,l),
(676,540,l),
(676,435,l),
(490,435,l),
(490,309,l),
(676,309,l),
(676,180,l),
(638,159,o),
(592,148,o),
(537,148,cs),
(368,148,o),
(242,272,o),
(242,448,cs),
(242,620,o),
(368,748,o),
(538,748,cs),
(660,748,o),
(750,684,o),
(801,601,c),
(852,807,l),
(769,877,o),
(661,918,o),
(538,918,cs),
(267,918,o),
(54,716,o),
(54,448,cs),
(54,179,o),
(267,-18,o),
(540,-18,cs)
);
}
);
width = 920;
}
);
unicode = 484;
},
{
glyphname = H;
kernLeft = B;
kernRight = H;
lastChange = "2023-10-12 14:03:48 +0000";
layers = (
{
anchors = (
{
name = bottom;
pos = (400,0);
},
{
name = center;
pos = (400,750);
},
{
name = top;
pos = (400,900);
},
{
name = topleft;
pos = (126,900);
}
);
background = {
shapes = (
{
closed = 1;
nodes = (
(499,114,o),
(581,196,o),
(581,298,cs),
(581,400,o),
(499,482,o),
(397,482,cs),
(295,482,o),
(213,400,o),
(213,298,cs),
(213,196,o),
(295,114,o),
(397,114,cs)
);
},
{
closed = 1;
nodes = (
(562,0,o),
(695,133,o),
(695,298,cs),
(695,463,o),
(562,596,o),
(397,596,cs),
(232,596,o),
(99,463,o),
(99,298,cs),
(99,133,o),
(232,0,o),
(397,0,cs)
);
},
{
closed = 1;
nodes = (
(453,596,o),
(499,642,o),
(499,698,cs),
(499,754,o),
(453,800,o),
(397,800,cs),
(341,800,o),
(295,754,o),
(295,698,cs),
(295,642,o),
(341,596,o),
(397,596,cs)
);
},
{
closed = 1;
nodes = (
(516,482,o),
(613,579,o),
(613,698,cs),
(613,817,o),
(516,914,o),
(397,914,cs),
(278,914,o),
(181,817,o),
(181,698,cs),
(181,579,o),
(278,482,o),
(397,482,cs)
);
}
);
};
hints = (
{
horizontal = 1;
origin = (0,11);
target = up;
type = BottomGhost;
},
{
horizontal = 1;
origin = (0,1);
target = (0,8);
type = Stem;
},
{
horizontal = 1;
origin = (0,10);
target = down;
type = TopGhost;
},
{
origin = (0,11);
target = (0,0);
type = Stem;
},
{
origin = (0,3);
target = (0,4);
type = Stem;
}
);
layerId = "3E87E8DA-1F15-4738-9454-A2AB4CEA57DC";
shapes = (
{
closed = 1;
nodes = (
(240,0,l),
(240,504,l),
(560,504,l),
(560,0,l),
(674,0,l),
(674,900,l),
(560,900,l),
(560,606,l),
(240,606,l),
(240,900,l),
(126,900,l),
(126,0,l)
);
}
);
width = 800;
},
{
anchors = (
{
name = bottom;
pos = (400,0);
},
{
name = center;
pos = (400,750);
},
{
name = top;
pos = (400,900);
},
{
name = topleft;
pos = (126,900);
}
);
background = {
shapes = (
{
closed = 1;
nodes = (
(499,114,o),
(581,196,o),
(581,298,cs),
(581,400,o),
(499,482,o),
(397,482,cs),
(295,482,o),
(213,400,o),
(213,298,cs),
(213,196,o),
(295,114,o),
(397,114,cs)
);
},
{
closed = 1;
nodes = (
(562,0,o),
(695,133,o),
(695,298,cs),
(695,463,o),
(562,596,o),
(397,596,cs),
(232,596,o),
(99,463,o),
(99,298,cs),
(99,133,o),
(232,0,o),
(397,0,cs)
);
},
{
closed = 1;
nodes = (
(453,596,o),
(499,642,o),
(499,698,cs),
(499,754,o),
(453,800,o),
(397,800,cs),
(341,800,o),
(295,754,o),
(295,698,cs),
(295,642,o),
(341,596,o),
(397,596,cs)
);
},
{
closed = 1;
nodes = (
(516,482,o),
(613,579,o),
(613,698,cs),
(613,817,o),
(516,914,o),
(397,914,cs),
(278,914,o),
(181,817,o),
(181,698,cs),
(181,579,o),
(278,482,o),
(397,482,cs)
);
}
);
};
guides = (
{
angle = 180;
pos = (417,578);
},
{
angle = 180;
pos = (240,750);
}
);
layerId = "5864D40E-51E2-4FDD-96DA-51B6D988DC78";
shapes = (
{
closed = 1;
nodes = (
(270,0,l),
(270,450,l),
(530,450,l),
(530,0,l),
(704,0,l),
(704,900,l),
(530,900,l),
(530,612,l),
(270,612,l),
(270,900,l),
(96,900,l),
(96,0,l)
);
}
);
width = 800;
}
);
unicode = 72;
},
{
glyphname = Hbar;
kernLeft = B;
kernRight = H;
lastChange = "2023-10-12 14:03:48 +0000";
layers = (
{
hints = (
{
horizontal = 1;
origin = (0,19);
target = up;
type = BottomGhost;
},
{
horizontal = 1;
origin = (0,1);
target = (1,3);
type = Stem;
},
{
horizontal = 1;
origin = (0,17);
target = (0,16);
type = Stem;
},
{
origin = (0,19);
target = (0,0);
type = Stem;
},
{
origin = (0,3);
target = (0,4);
type = Stem;
},
{
horizontal = 1;
origin = (0,14);
target = down;
type = TopGhost;
}
);
layerId = "3E87E8DA-1F15-4738-9454-A2AB4CEA57DC";
shapes = (
{
closed = 1;
nodes = (
(240,0,l),
(240,444,l),
(560,444,l),
(560,0,l),
(674,0,l),
(674,678,l),
(770,678,l),
(770,762,l),
(674,762,l),
(674,900,l),
(560,900,l),
(560,762,l),
(240,762,l),
(240,900,l),
(126,900,l),
(126,762,l),
(30,762,l),
(30,678,l),
(126,678,l),
(126,0,l)
);
},
{
closed = 1;
nodes = (
(240,678,l),
(560,678,l),
(560,546,l),
(240,546,l)
);
}
);
width = 800;
},
{
layerId = "5864D40E-51E2-4FDD-96DA-51B6D988DC78";
shapes = (
{
closed = 1;
nodes = (
(270,0,l),
(270,414,l),
(530,414,l),
(530,0,l),
(704,0,l),
(704,666,l),
(770,666,l),
(770,774,l),
(704,774,l),
(704,900,l),
(530,900,l),
(530,774,l),
(270,774,l),
(270,900,l),
(96,900,l),
(96,774,l),
(30,774,l),
(30,666,l),
(96,666,l),
(96,0,l)
);
},
{
closed = 1;
nodes = (
(270,666,l),
(530,666,l),
(530,576,l),
(270,576,l)
);
}
);
width = 800;
}
);
unicode = 294;
},
{
glyphname = I;
kernLeft = B;
kernRight = H;
lastChange = "2023-10-12 14:03:48 +0000";
layers = (
{
anchors = (
{
name = bottom;
pos = (195,0);
},
{
name = ogonek;
pos = (195,0);
},
{
name = top;
pos = (195,900);
},
{
name = topleft;
pos = (0,900);
}
);
background = {
shapes = (
{
closed = 1;
nodes = (
(497,114,o),
(579,196,o),
(579,298,cs),
(579,400,o),
(497,482,o),
(395,482,cs),
(293,482,o),
(211,400,o),
(211,298,cs),
(211,196,o),
(293,114,o),
(395,114,cs)
);
},
{
closed = 1;
nodes = (
(560,0,o),
(693,133,o),
(693,298,cs),
(693,463,o),
(560,596,o),
(395,596,cs),
(230,596,o),
(97,463,o),
(97,298,cs),
(97,133,o),
(230,0,o),
(395,0,cs)
);
},
{
closed = 1;
nodes = (
(451,596,o),
(497,642,o),
(497,698,cs),
(497,754,o),
(451,800,o),
(395,800,cs),
(339,800,o),
(293,754,o),
(293,698,cs),
(293,642,o),
(339,596,o),
(395,596,cs)
);
},
{
closed = 1;
nodes = (
(514,482,o),
(611,579,o),
(611,698,cs),
(611,817,o),
(514,914,o),
(395,914,cs),
(276,914,o),
(179,817,o),
(179,698,cs),
(179,579,o),
(276,482,o),
(395,482,cs)
);
}
);
};
guides = (
{
angle = 180;
pos = (415,578);
}
);
hints = (
{
horizontal = 1;
origin = (0,3);
target = up;
type = BottomGhost;
},
{
horizontal = 1;
origin = (0,2);
target = down;
type = TopGhost;
},
{
origin = (0,3);
target = (0,0);
type = Stem;
}
);
layerId = "3E87E8DA-1F15-4738-9454-A2AB4CEA57DC";
shapes = (
{
closed = 1;
nodes = (
(252,0,l),
(252,900,l),
(138,900,l),
(138,0,l)
);
}
);
width = 390;
},
{
anchors = (
{
name = bottom;
pos = (195,0);
},
{
name = ogonek;
pos = (195,0);
},
{
name = top;
pos = (195,900);
},
{
name = topleft;
pos = (0,900);
}
);
background = {
shapes = (
{
closed = 1;
nodes = (
(497,114,o),
(579,196,o),
(579,298,cs),
(579,400,o),
(497,482,o),
(395,482,cs),
(293,482,o),
(211,400,o),
(211,298,cs),
(211,196,o),
(293,114,o),
(395,114,cs)
);
},
{
closed = 1;
nodes = (
(560,0,o),
(693,133,o),
(693,298,cs),
(693,463,o),
(560,596,o),
(395,596,cs),
(230,596,o),
(97,463,o),
(97,298,cs),
(97,133,o),
(230,0,o),
(395,0,cs)
);
},
{
closed = 1;
nodes = (
(451,596,o),
(497,642,o),
(497,698,cs),
(497,754,o),
(451,800,o),
(395,800,cs),
(339,800,o),
(293,754,o),
(293,698,cs),
(293,642,o),
(339,596,o),
(395,596,cs)
);
},
{
closed = 1;
nodes = (
(514,482,o),
(611,579,o),
(611,698,cs),
(611,817,o),
(514,914,o),
(395,914,cs),
(276,914,o),
(179,817,o),
(179,698,cs),
(179,579,o),
(276,482,o),
(395,482,cs)
);
}
);
};
guides = (
{
angle = 180;
pos = (415,578);
}
);
layerId = "5864D40E-51E2-4FDD-96DA-51B6D988DC78";
shapes = (
{
closed = 1;
nodes = (
(288,0,l),
(288,900,l),
(102,900,l),
(102,0,l)
);
}
);
width = 390;
}
);
unicode = 73;
},
{
glyphname = Iogonek;
kernLeft = B;
kernRight = H;
lastChange = "2023-10-12 14:03:48 +0000";
layers = (
{
background = {
shapes = (
{
closed = 1;
nodes = (
(252,0,l),
(252,900,l),
(138,900,l),
(138,0,l)
);
},
{
closed = 1;
nodes = (
(259,-312,o),
(298,-299,o),
(326,-277,c),
(302,-180,l),
(287,-205,o),
(264,-228,o),
(224,-228,cs),
(179,-228,o),
(157,-198,o),
(157,-162,cs),
(157,-137,o),
(166,-117,o),
(185,-86,cs),
(203,-57,o),
(227,-29,o),
(252,0,c),
(138,0,l),
(111,-34,ls),
(71,-84,o),
(55,-122,o),
(55,-164,cs),
(55,-253,o),
(129,-312,o),
(216,-312,cs)
);
}
);
};
hints = (
{
horizontal = 1;
origin = (0,15);
target = (0,0);
type = Stem;
},
{
horizontal = 1;
origin = (0,9);
target = up;
type = BottomGhost;
},
{
horizontal = 1;
origin = (0,8);
target = down;
type = TopGhost;
},
{
origin = (0,12);
target = (0,3);
type = Stem;
},
{
origin = (0,9);
target = (0,6);
type = Stem;
}
);
layerId = "3E87E8DA-1F15-4738-9454-A2AB4CEA57DC";
shapes = (
{
closed = 1;
nodes = (
(272,-219,l),
(221,-219,o),
(185,-195,o),
(185,-134,cs),
(185,-83,o),
(209,-39,o),
(252,0,c),
(252,900,l),
(138,900,l),
(138,0,l),
(104,-50,o),
(85,-100,o),
(85,-153,cs),
(85,-254,o),
(163,-312,o),
(250,-312,c)
);
}
);
width = 390;
},
{
background = {
shapes = (
{
closed = 1;
nodes = (
(252,0,l),
(252,900,l),
(138,900,l),
(138,0,l)
);
},
{
closed = 1;
nodes = (
(259,-312,o),
(298,-299,o),
(326,-277,c),
(302,-180,l),
(287,-205,o),
(264,-228,o),
(224,-228,cs),
(179,-228,o),
(157,-198,o),
(157,-162,cs),
(157,-137,o),
(166,-117,o),
(185,-86,cs),
(203,-57,o),
(227,-29,o),
(252,0,c),
(138,0,l),
(111,-34,ls),
(71,-84,o),
(55,-122,o),
(55,-164,cs),
(55,-253,o),
(129,-312,o),
(216,-312,cs)
);
}
);
};
layerId = "5864D40E-51E2-4FDD-96DA-51B6D988DC78";
shapes = (
{
closed = 1;
nodes = (
(285,-190,l),
(239,-189,o),
(204,-166,o),
(204,-116,cs),
(204,-74,o),
(239,-29,o),
(288,0,c),
(288,900,l),
(102,900,l),
(102,0,l),
(70,-50,o),
(54,-100,o),
(54,-153,cs),
(54,-266,o),
(139,-318,o),
(255,-318,c)
);
}
);
width = 390;
}
);
unicode = 302;
},
{
glyphname = J;
kernLeft = J;
kernRight = J;
lastChange = "2023-10-12 14:03:48 +0000";
layers = (
{
anchors = (
{
name = bottom;
pos = (318,0);
},
{
name = top;
pos = (375,900);
}
);
background = {
shapes = (
{
closed = 1;
nodes = (
(300,-12,o),
(432,97,o),
(432,272,cs),
(432,900,l),
(318,900,l),
(318,268,ls),
(318,161,o),
(244,90,o),
(144,90,cs),
(47,90,o),
(-36,156,o),
(-56,240,c),
(-120,114,l),
(-72,46,o),
(25,-12,o),
(141,-12,cs)
);
}
);
};
hints = (
{
horizontal = 1;
origin = (0,15);
target = (0,8);
type = Stem;
},
{
horizontal = 1;
origin = (0,4);
target = down;
type = TopGhost;
},
{
origin = (0,5);
target = (0,2);
type = Stem;
}
);
layerId = "3E87E8DA-1F15-4738-9454-A2AB4CEA57DC";
shapes = (
{
closed = 1;
nodes = (
(317,-12,o),
(432,68,o),
(432,247,cs),
(432,900,l),
(318,900,l),
(318,256,ls),
(318,133,o),
(257,90,o),
(187,90,cs),
(125,90,o),
(75,122,o),
(45,174,c),
(12,54,l),
(57,6,o),
(124,-12,o),
(188,-12,cs)
);
}
);
width = 540;
},
{
anchors = (
{
name = bottom;
pos = (290,0);
},
{
name = top;
pos = (384,900);
}
);
background = {
shapes = (
{
closed = 1;
nodes = (
(310,-12,o),
(441,79,o),
(441,284,cs),
(441,900,l),
(327,900,l),
(327,292,ls),
(327,143,o),
(253,90,o),
(167,90,cs),
(91,90,o),
(30,129,o),
(-6,192,c),
(-39,64,l),
(12,9,o),
(89,-12,o),
(162,-12,cs)
);
}
);
};
guides = (
{
angle = -4.0142;
pos = (471,307);
}
);
layerId = "5864D40E-51E2-4FDD-96DA-51B6D988DC78";
shapes = (
{
closed = 1;
nodes = (
(343,-20,o),
(476,69,o),
(476,270,cs),
(476,900,l),
(290,900,l),
(290,283,ls),
(290,186,o),
(242,148,o),
(180,148,cs),
(128,148,o),
(85,174,o),
(59,214,c),
(12,46,l),
(57,1,o),
(129,-20,o),
(199,-20,cs)
);
}
);
width = 560;
}
);
unicode = 74;
},
{
glyphname = K;
kernLeft = B;
kernRight = K;
lastChange = "2023-10-12 14:03:48 +0000";
layers = (
{
anchors = (
{
name = bottom;
pos = (438,0);
},
{
name = top;
pos = (370,900);
}
);
hints = (
{
horizontal = 1;
origin = (1,3);
target = up;
type = BottomGhost;
},
{
horizontal = 1;
origin = (1,2);
target = down;
type = TopGhost;
},
{
origin = (1,3);
target = (1,0);
type = Stem;
}
);
layerId = "3E87E8DA-1F15-4738-9454-A2AB4CEA57DC";
shapes = (
{
closed = 1;
nodes = (
(774,0,l),
(388,556,l),
(694,900,l),
(560,900,l),
(252,555,l),
(635,0,l)
);
},
{
closed = 1;
nodes = (
(240,0,l),
(240,900,l),
(126,900,l),
(126,0,l)
);
}
);
width = 780;
},
{
anchors = (
{
name = bottom;
pos = (438,0);
},
{
name = top;
pos = (370,900);
}
);
background = {
shapes = (
{
closed = 1;
nodes = (
(774,0,l),
(359,597,l),
(352,516,l),
(694,900,l),
(560,900,l),
(252,555,l),
(635,0,l)
);
}
);
};
guides = (
{
angle = -58.3579;
pos = (806,0);
},
{
angle = -59.7243;
pos = (443,278);
}
);
layerId = "5864D40E-51E2-4FDD-96DA-51B6D988DC78";
shapes = (
{
closed = 1;
nodes = (
(806,0,l),
(472,558,l),
(722,900,l),
(516,900,l),
(267,555,l),
(595,0,l)
);
},
{
closed = 1;
nodes = (
(276,0,l),
(276,900,l),
(96,900,l),
(96,0,l)
);
}
);
width = 800;
}
);
unicode = 75;
},
{
glyphname = L;
kernLeft = B;
kernRight = L;
lastChange = "2023-10-12 14:03:48 +0000";
layers = (
{
anchors = (
{
name = bottom;
pos = (339,0);
},
{
name = center;
pos = (183,450);
},
{
name = periodcentered;
pos = (420,480);
},
{
name = top;
pos = (183,900);
},
{
name = topright;
pos = (282,900);
}
);
background = {
shapes = (
{
closed = 1;
nodes = (
(499,114,o),
(581,196,o),
(581,298,cs),
(581,400,o),
(499,482,o),
(397,482,cs),
(295,482,o),
(213,400,o),
(213,298,cs),
(213,196,o),
(295,114,o),
(397,114,cs)
);
},
{
closed = 1;
nodes = (
(562,0,o),
(695,133,o),
(695,298,cs),
(695,463,o),
(562,596,o),
(397,596,cs),
(232,596,o),
(99,463,o),
(99,298,cs),
(99,133,o),
(232,0,o),
(397,0,cs)
);
},
{
closed = 1;
nodes = (
(453,596,o),
(499,642,o),
(499,698,cs),
(499,754,o),
(453,800,o),
(397,800,cs),
(341,800,o),
(295,754,o),
(295,698,cs),
(295,642,o),
(341,596,o),
(397,596,cs)
);
},
{
closed = 1;
nodes = (
(516,482,o),
(613,579,o),
(613,698,cs),
(613,817,o),
(516,914,o),
(397,914,cs),
(278,914,o),
(181,817,o),
(181,698,cs),
(181,579,o),
(278,482,o),
(397,482,cs)
);
}
);
};
guides = (
{
angle = 180;
pos = (417,578);
}
);
hints = (
{
horizontal = 1;
origin = (0,5);
target = (0,2);
type = Stem;
},
{
horizontal = 1;
origin = (0,4);
target = down;
type = TopGhost;
},
{
origin = (0,5);
target = (0,2);
type = Stem;
}
);
layerId = "3E87E8DA-1F15-4738-9454-A2AB4CEA57DC";
shapes = (
{
closed = 1;
nodes = (
(552,0,l),
(552,102,l),
(240,102,l),
(240,900,l),
(126,900,l),
(126,0,l)
);
}
);
width = 600;
},
{
anchors = (
{
name = bottom;
pos = (339,0);
},
{
name = center;
pos = (183,450);
},
{
name = periodcentered;
pos = (420,480);
},
{
name = top;
pos = (183,900);
},
{
name = topright;
pos = (282,900);
}
);
background = {
shapes = (
{
closed = 1;
nodes = (
(499,114,o),
(581,196,o),
(581,298,cs),
(581,400,o),
(499,482,o),
(397,482,cs),
(295,482,o),
(213,400,o),
(213,298,cs),
(213,196,o),
(295,114,o),
(397,114,cs)
);
},
{
closed = 1;
nodes = (
(562,0,o),
(695,133,o),
(695,298,cs),
(695,463,o),
(562,596,o),
(397,596,cs),
(232,596,o),
(99,463,o),
(99,298,cs),
(99,133,o),
(232,0,o),
(397,0,cs)
);
},
{
closed = 1;
nodes = (
(453,596,o),
(499,642,o),
(499,698,cs),
(499,754,o),
(453,800,o),
(397,800,cs),
(341,800,o),
(295,754,o),
(295,698,cs),
(295,642,o),
(341,596,o),
(397,596,cs)
);
},
{
closed = 1;
nodes = (
(516,482,o),
(613,579,o),
(613,698,cs),
(613,817,o),
(516,914,o),
(397,914,cs),
(278,914,o),
(181,817,o),
(181,698,cs),
(181,579,o),
(278,482,o),
(397,482,cs)
);
}
);
};
guides = (
{
angle = 180;
pos = (417,578);
}
);
layerId = "5864D40E-51E2-4FDD-96DA-51B6D988DC78";
shapes = (
{
closed = 1;
nodes = (
(552,0,l),
(552,162,l),
(282,162,l),
(282,900,l),
(96,900,l),
(96,0,l)
);
}
);
width = 600;
}
);
unicode = 76;
},
{
glyphname = Lslash;
kernLeft = B;
kernRight = L;
lastChange = "2023-10-12 14:03:48 +0000";
layers = (
{
hints = (
{
horizontal = 1;
origin = (0,13);
target = (0,2);
type = Stem;
},
{
horizontal = 1;
origin = (0,5);
target = down;
type = TopGhost;
},
{
horizontal = 1;
origin = (0,8);
target = down;
type = TopGhost;
},
{
origin = (0,13);
target = (0,2);
type = Stem;
},
{
horizontal = 1;
origin = (0,11);
target = up;
type = BottomGhost;
}
);
layerId = "3E87E8DA-1F15-4738-9454-A2AB4CEA57DC";
shapes = (
{
closed = 1;
nodes = (
(582,0,l),
(582,102,l),
(270,102,l),
(270,443,l),
(516,604,l),
(474,668,l),
(270,535,l),
(270,900,l),
(156,900,l),
(156,460,l),
(24,374,l),
(66,310,l),
(156,369,l),
(156,0,l)
);
}
);
width = 630;
},
{
guides = (
{
pos = (182,600);
}
);
layerId = "5864D40E-51E2-4FDD-96DA-51B6D988DC78";
shapes = (
{
closed = 1;
nodes = (
(582,0,l),
(582,162,l),
(312,162,l),
(312,447,l),
(534,570,l),
(478,670,l),
(312,578,l),
(312,900,l),
(126,900,l),
(126,475,l),
(6,408,l),
(62,308,l),
(126,344,l),
(126,0,l)
);
}
);
width = 630;
}
);
unicode = 321;
},
{
glyphname = M;
kernLeft = B;
kernRight = H;
lastChange = "2023-10-12 14:03:48 +0000";
layers = (
{
background = {
shapes = (
{
closed = 1;
nodes = (
(228,0,l),
(228,674,l),
(120,948,l),
(120,0,l)
);
},
{
closed = 1;
nodes = (
(581,312,l),
(120,948,l),
(143,719,l),
(540,171,l)
);
},
{
closed = 1;
nodes = (
(540,171,l),
(929,720,l),
(960,948,l),
(508,312,l)
);
},
{
closed = 1;
nodes = (
(960,0,l),
(960,948,l),
(845,688,l),
(845,0,l)
);
}
);
};
guides = (
{
angle = 180;
pos = (411,578);
},
{
angle = -54.0503;
pos = (349,689);
}
);
hints = (
{
horizontal = 1;
origin = (0,21);
target = up;
type = BottomGhost;
},
{
origin = (0,21);
target = (0,0);
type = Stem;
},
{
origin = (0,16);
target = (0,17);
type = Stem;
},
{
horizontal = 1;
origin = (0,20);
target = down;
type = TopGhost;
}
);
layerId = "3E87E8DA-1F15-4738-9454-A2AB4CEA57DC";
shapes = (
{
closed = 1;
nodes = (
(234,0,l),
(234,416,ls),
(234,470,o),
(234,533,o),
(226,616,c),
(269,542,o),
(307,489,o),
(340,443,cs),
(540,168,l),
(734,443,ls),
(766,489,o),
(806,542,o),
(848,616,c),
(840,533,o),
(840,470,o),
(840,416,cs),
(840,0,l),
(954,0,l),
(954,930,l),
(544,354,l),
(126,930,l),
(126,0,l)
);
}
);
width = 1080;
},
{
background = {
shapes = (
{
closed = 1;
nodes = (
(214,0,l),
(214,416,ls),
(214,470,o),
(214,533,o),
(206,616,c),
(249,542,o),
(287,489,o),
(320,443,cs),
(520,168,l),
(714,443,ls),
(746,489,o),
(786,542,o),
(828,616,c),
(820,533,o),
(820,470,o),
(820,416,cs),
(820,0,l),
(934,0,l),
(934,930,l),
(524,354,l),
(106,930,l),
(106,0,l)
);
}
);
};
guides = (
{
angle = 231.7431;
pos = (521,105);
}
);
layerId = "5864D40E-51E2-4FDD-96DA-51B6D988DC78";
shapes = (
{
closed = 1;
nodes = (
(264,0,l),
(264,258,ls),
(264,318,o),
(264,389,o),
(253,486,c),
(292,422,o),
(337,363,o),
(368,323,cs),
(521,125,l),
(669,323,ls),
(701,366,o),
(740,413,o),
(781,483,c),
(770,388,o),
(770,317,o),
(770,258,cs),
(770,0,l),
(944,0,l),
(944,930,l),
(524,398,l),
(96,930,l),
(96,0,l)
);
}
);
width = 1040;
}
);
unicode = 77;
},
{
glyphname = N;
kernLeft = B;
kernRight = H;
lastChange = "2023-10-12 14:03:48 +0000";
layers = (
{
anchors = (
{
name = bottom;
pos = (495,0);
},
{
name = top;
pos = (465,840);
}
);
background = {
shapes = (
{
closed = 1;
nodes = (
(237,0,l),
(237,948,l),
(129,948,l),
(129,0,l)
);
},
{
closed = 1;
nodes = (
(1025,-34,l),
(129,948,l),
(-26,948,l),
(871,-34,l)
);
},
{
closed = 1;
nodes = (
(871,-34,l),
(871,914,l),
(763,914,l),
(763,-34,l)
);
}
);
};
guides = (
{
angle = 35.1147;
pos = (375,510);
}
);
hints = (
{
horizontal = 1;
origin = (0,4);
target = up;
type = BottomGhost;
},
{
horizontal = 1;
origin = (0,1);
target = down;
type = TopGhost;
},
{
origin = (0,4);
target = (0,5);
type = Stem;
},
{
origin = (0,2);
target = (0,7);
type = Stem;
},
{
horizontal = 1;
origin = (0,7);
target = up;
type = BottomGhost;
},
{
horizontal = 1;
origin = (0,3);
target = down;
type = TopGhost;
}
);
layerId = "3E87E8DA-1F15-4738-9454-A2AB4CEA57DC";
shapes = (
{
closed = 1;
nodes = (
(864,900,l),
(756,900,l),
(756,255,l),
(126,930,l),
(126,0,l),
(234,0,l),
(234,645,l),
(864,-30,l)
);
}
);
width = 990;
},
{
anchors = (
{
name = bottom;
pos = (525,60);
},
{
name = top;
pos = (426,840);
}
);
background = {
shapes = (
{
closed = 1;
nodes = (
(204,0,l),
(204,645,l),
(834,-30,l),
(834,900,l),
(726,900,l),
(726,255,l),
(96,930,l),
(96,0,l)
);
}
);
};
layerId = "5864D40E-51E2-4FDD-96DA-51B6D988DC78";
shapes = (
{
closed = 1;
nodes = (
(804,900,l),
(636,900,l),
(636,392,l),
(96,930,l),
(96,0,l),
(264,0,l),
(264,509,l),
(804,-30,l)
);
}
);
width = 900;
}
);
unicode = 78;
},
{
glyphname = Eng;
kernLeft = B;
kernRight = H;
lastChange = "2023-10-12 14:03:48 +0000";
layers = (
{
anchors = (
{
name = bottom;
pos = (495,0);
},
{
name = top;
pos = (495,900);
}
);
hints = (
{
horizontal = 1;
origin = (0,21);
target = (0,14);
type = Stem;
},
{
horizontal = 1;
origin = (0,7);
target = up;
type = BottomGhost;
},
{
horizontal = 1;
origin = (0,4);
target = down;
type = TopGhost;
},
{
origin = (0,7);
target = (0,8);
type = Stem;
},
{
origin = (0,11);
target = (0,2);
type = Stem;
},
{
horizontal = 1;
origin = (0,6);
target = down;
type = TopGhost;
}
);
layerId = "3E87E8DA-1F15-4738-9454-A2AB4CEA57DC";
shapes = (
{
closed = 1;
nodes = (
(752,-192,o),
(864,-114,o),
(864,61,cs),
(864,900,l),
(756,900,l),
(756,255,l),
(126,930,l),
(126,0,l),
(234,0,l),
(234,645,l),
(756,86,l),
(756,76,ls),
(756,-47,o),
(695,-90,o),
(625,-90,cs),
(563,-90,o),
(513,-58,o),
(483,-6,c),
(450,-126,l),
(495,-174,o),
(562,-192,o),
(626,-192,cs)
);
}
);
width = 990;
},
{
anchors = (
{
name = bottom;
pos = (495,0);
},
{
name = top;
pos = (495,900);
}
);
guides = (
{
angle = 134.0608;
pos = (636,118);
}
);
layerId = "5864D40E-51E2-4FDD-96DA-51B6D988DC78";
shapes = (
{
closed = 1;
nodes = (
(680,-200,o),
(804,-117,o),
(804,71,cs),
(804,900,l),
(636,900,l),
(636,372,l),
(96,930,l),
(96,0,l),
(264,0,l),
(264,503,l),
(636,118,l),
(636,103,ls),
(636,6,o),
(588,-32,o),
(526,-32,cs),
(474,-32,o),
(431,-6,o),
(405,34,c),
(358,-134,l),
(403,-179,o),
(475,-200,o),
(545,-200,cs)
);
}
);
width = 990;
}
);
unicode = 330;
},
{
glyphname = O;
kernLeft = C;
kernRight = D;
lastChange = "2023-10-12 14:03:48 +0000";
layers = (
{
anchors = (
{
name = bottom;
pos = (530,0);
},
{
name = center;
pos = (530,450);
},
{
name = ogonek;
pos = (560,0);
},
{
name = top;
pos = (530,900);
},
{
name = "top-vertical";
pos = (530,510);
},
{
name = topleft;
pos = (60,900);
},
{
name = topright;
pos = (1000,900);
}
);
background = {
shapes = (
{
closed = 1;
nodes = (
(792,-17,o),
(1004,195,o),
(1004,457,cs),
(1004,719,o),
(792,931,o),
(530,931,cs),
(268,931,o),
(56,719,o),
(56,457,cs),
(56,195,o),
(268,-17,o),
(530,-17,cs)
);
},
{
closed = 1;
nodes = (
(331,97,o),
(170,258,o),
(170,457,cs),
(170,656,o),
(331,817,o),
(530,817,cs),
(729,817,o),
(890,656,o),
(890,457,cs),
(890,258,o),
(729,97,o),
(530,97,cs)
);
}
);
};
hints = (
{
horizontal = 1;
origin = (0,11);
target = (1,11);
type = Stem;
},
{
horizontal = 1;
origin = (0,5);
target = (1,5);
type = Stem;
},
{
origin = (0,8);
target = (1,2);
type = Stem;
},
{
origin = (1,8);
target = (0,2);
type = Stem;
}
);
layerId = "3E87E8DA-1F15-4738-9454-A2AB4CEA57DC";
shapes = (
{
closed = 1;
nodes = (
(790,-18,o),
(1000,191,o),
(1000,450,cs),
(1000,709,o),
(790,918,o),
(530,918,cs),
(270,918,o),
(60,709,o),
(60,450,cs),
(60,191,o),
(270,-18,o),
(530,-18,cs)
);
},
{
closed = 1;
nodes = (
(332,90,o),
(178,251,o),
(178,450,cs),
(178,649,o),
(332,810,o),
(530,810,cs),
(728,810,o),
(882,649,o),
(882,450,cs),
(882,251,o),
(728,90,o),
(530,90,cs)
);
}
);
width = 1060;
},
{
anchors = (
{
name = bottom;
pos = (530,0);
},
{
name = center;
pos = (530,450);
},
{
name = ogonek;
pos = (560,0);
},
{
name = top;
pos = (530,900);
},
{
name = "top-vertical";
pos = (530,480);
},
{
name = topleft;
pos = (60,900);
},
{
name = topright;
pos = (1000,900);
}
);
background = {
shapes = (
{
closed = 1;
nodes = (
(792,-17,o),
(1004,195,o),
(1004,457,cs),
(1004,719,o),
(792,931,o),
(530,931,cs),
(268,931,o),
(56,719,o),
(56,457,cs),
(56,195,o),
(268,-17,o),
(530,-17,cs)
);
},
{
closed = 1;
nodes = (
(331,97,o),
(170,258,o),
(170,457,cs),
(170,656,o),
(331,817,o),
(530,817,cs),
(729,817,o),
(890,656,o),
(890,457,cs),
(890,258,o),
(729,97,o),
(530,97,cs)
);
}
);
};
layerId = "5864D40E-51E2-4FDD-96DA-51B6D988DC78";
shapes = (
{
closed = 1;
nodes = (
(793,-18,o),
(1006,191,o),
(1006,450,cs),
(1006,709,o),
(793,918,o),
(530,918,cs),
(267,918,o),
(54,709,o),
(54,450,cs),
(54,191,o),
(267,-18,o),
(530,-18,cs)
);
},
{
closed = 1;
nodes = (
(368,156,o),
(242,287,o),
(242,450,cs),
(242,613,o),
(368,744,o),
(530,744,cs),
(692,744,o),
(818,613,o),
(818,450,cs),
(818,287,o),
(692,156,o),
(530,156,cs)
);
}
);
width = 1060;
}
);
unicode = 79;
},
{
glyphname = Ohorn;
kernLeft = C;
kernRight = Ohorn;
lastChange = "2023-10-12 14:03:48 +0000";
layers = (
{
anchors = (
{
name = bottom;
pos = (530,0);
},
{
name = ogonek;
pos = (530,0);
},
{
name = top;
pos = (530,900);
}
);
guides = (
{
angle = 90;
pos = (941,450);
}
);
hints = (
{
horizontal = 1;
origin = (0,27);
target = (1,11);
type = Stem;
},
{
horizontal = 1;
origin = (0,21);
target = (1,5);
type = Stem;
},
{
origin = (0,24);
target = (1,2);
type = Stem;
},
{
origin = (1,8);
target = (0,2);
type = Stem;
},
{
horizontal = 1;
origin = (0,12);
target = down;
type = TopGhost;
}
);
layerId = "3E87E8DA-1F15-4738-9454-A2AB4CEA57DC";
shapes = (
{
closed = 1;
nodes = (
(790,-18,o),
(1000,191,o),
(1000,450,cs),
(1000,547,o),
(970,638,o),
(920,712,c),
(969,736,o),
(1006,790,o),
(1006,868,cs),
(1006,897,o),
(1001,928,o),
(982,960,c),
(886,960,l),
(905,927,o),
(910,892,o),
(910,868,cs),
(910,828,o),
(893,794,o),
(862,782,c),
(777,866,o),
(660,918,o),
(530,918,cs),
(270,918,o),
(60,709,o),
(60,450,cs),
(60,191,o),
(270,-18,o),
(530,-18,cs)
);
},
{
closed = 1;
nodes = (
(332,90,o),
(178,251,o),
(178,450,cs),
(178,649,o),
(332,810,o),
(530,810,cs),
(728,810,o),
(882,649,o),
(882,450,cs),
(882,251,o),
(728,90,o),
(530,90,cs)
);
}
);
width = 1060;
},
{
anchors = (
{
name = bottom;
pos = (530,0);
},
{
name = ogonek;
pos = (530,0);
},
{
name = top;
pos = (530,900);
}
);
guides = (
{
angle = 90;
pos = (941,450);
},
{
angle = -73.0447;
pos = (819,780);
}
);
layerId = "5864D40E-51E2-4FDD-96DA-51B6D988DC78";
shapes = (
{
closed = 1;
nodes = (
(793,-18,o),
(1006,191,o),
(1006,450,cs),
(1006,541,o),
(980,625,o),
(935,697,c),
(994,724,o),
(1030,782,o),
(1030,868,cs),
(1030,897,o),
(1025,928,o),
(1006,960,c),
(850,960,l),
(869,927,o),
(874,892,o),
(874,868,cs),
(874,835,o),
(865,812,o),
(849,797,c),
(765,872,o),
(653,918,o),
(530,918,cs),
(267,918,o),
(54,709,o),
(54,450,cs),
(54,191,o),
(267,-18,o),
(530,-18,cs)
);
},
{
closed = 1;
nodes = (
(368,156,o),
(242,287,o),
(242,450,cs),
(242,613,o),
(368,744,o),
(530,744,cs),
(692,744,o),
(818,613,o),
(818,450,cs),
(818,287,o),
(692,156,o),
(530,156,cs)
);
}
);
width = 1060;
}
);
unicode = 416;
},
{
glyphname = Oogonek;
kernLeft = C;
kernRight = D;
lastChange = "2023-10-12 14:03:48 +0000";
layers = (
{
anchors = (
{
name = top;
pos = (530,900);
}
);
hints = (
{
horizontal = 1;
origin = (0,24);
target = (0,0);
type = Stem;
},
{
horizontal = 1;
origin = (0,18);
target = (1,11);
type = Stem;
},
{
horizontal = 1;
origin = (0,12);
target = (1,5);
type = Stem;
},
{
origin = (0,15);
target = (1,2);
type = Stem;
},
{
origin = (0,21);
target = (0,3);
type = Stem;
},
{
origin = (1,8);
target = (0,9);
type = Stem;
}
);
layerId = "3E87E8DA-1F15-4738-9454-A2AB4CEA57DC";
shapes = (
{
closed = 1;
nodes = (
(637,-219,l),
(586,-219,o),
(550,-195,o),
(550,-134,cs),
(550,-88,o),
(569,-53,o),
(600,-13,c),
(826,20,o),
(1000,215,o),
(1000,450,cs),
(1000,709,o),
(790,918,o),
(530,918,cs),
(270,918,o),
(60,709,o),
(60,450,cs),
(60,202,o),
(253,0,o),
(498,-17,c),
(467,-61,o),
(450,-106,o),
(450,-153,cs),
(450,-254,o),
(528,-312,o),
(615,-312,c)
);
},
{
closed = 1;
nodes = (
(332,90,o),
(178,251,o),
(178,450,cs),
(178,649,o),
(332,810,o),
(530,810,cs),
(728,810,o),
(882,649,o),
(882,450,cs),
(882,251,o),
(728,90,o),
(530,90,cs)
);
}
);
width = 1060;
},
{
anchors = (
{
name = top;
pos = (530,900);
}
);
layerId = "5864D40E-51E2-4FDD-96DA-51B6D988DC78";
shapes = (
{
closed = 1;
nodes = (
(656,-190,l),
(610,-189,o),
(575,-166,o),
(575,-116,cs),
(575,-77,o),
(597,-44,o),
(628,-8,c),
(844,36,o),
(1006,224,o),
(1006,450,cs),
(1006,709,o),
(793,918,o),
(530,918,cs),
(267,918,o),
(54,709,o),
(54,450,cs),
(54,210,o),
(238,12,o),
(474,-15,c),
(443,-60,o),
(425,-105,o),
(425,-153,cs),
(425,-266,o),
(510,-318,o),
(626,-318,c)
);
},
{
closed = 1;
nodes = (
(368,156,o),
(242,287,o),
(242,450,cs),
(242,613,o),
(368,744,o),
(530,744,cs),
(692,744,o),
(818,613,o),
(818,450,cs),
(818,287,o),
(692,156,o),
(530,156,cs)
);
}
);
width = 1060;
}
);
unicode = 490;
},
{
glyphname = Oslash;
kernLeft = C;
kernRight = D;
lastChange = "2023-10-12 14:03:48 +0000";
layers = (
{
anchors = (
{
name = bottom;
pos = (530,0);
},
{
name = top;
pos = (530,900);
}
);
hints = (
{
horizontal = 1;
origin = (0,3);
target = (2,9);
type = Stem;
},
{
horizontal = 1;
origin = (0,15);
target = (1,5);
type = Stem;
},
{
origin = (0,18);
target = (1,2);
type = Stem;
},
{
origin = (2,6);
target = (0,6);
type = Stem;
}
);
layerId = "3E87E8DA-1F15-4738-9454-A2AB4CEA57DC";
shapes = (
{
closed = 1;
nodes = (
(271,59,l),
(345,10,o),
(434,-18,o),
(530,-18,cs),
(790,-18,o),
(1000,191,o),
(1000,450,cs),
(1000,577,o),
(949,692,o),
(867,776,c),
(930,852,l),
(859,911,l),
(797,836,l),
(721,888,o),
(629,918,o),
(530,918,cs),
(270,918,o),
(60,709,o),
(60,450,cs),
(60,320,o),
(113,202,o),
(199,117,c),
(130,34,l),
(201,-25,l)
);
},
{
closed = 1;
nodes = (
(213,269,o),
(178,355,o),
(178,450,cs),
(178,649,o),
(332,810,o),
(530,810,cs),
(603,810,o),
(670,788,o),
(726,750,c),
(271,204,l)
);
},
{
closed = 1;
nodes = (
(460,90,o),
(396,110,o),
(342,145,c),
(795,689,l),
(849,625,o),
(882,542,o),
(882,450,cs),
(882,251,o),
(728,90,o),
(530,90,cs)
);
}
);
width = 1060;
},
{
anchors = (
{
name = _center;
pos = (543,457);
},
{
name = bottom;
pos = (543,0);
},
{
name = center;
pos = (543,457);
},
{
name = ogonek;
pos = (977,10);
},
{
name = top;
pos = (543,914);
},
{
name = topleft;
pos = (19,914);
},
{
name = topright;
pos = (1066,914);
}
);
associatedMasterId = "3E87E8DA-1F15-4738-9454-A2AB4CEA57DC";
background = {
shapes = (
{
closed = 1;
nodes = (
(805,-17,o),
(1017,195,o),
(1017,457,cs),
(1017,719,o),
(805,931,o),
(543,931,cs),
(281,931,o),
(69,719,o),
(69,457,cs),
(69,195,o),
(281,-17,o),
(543,-17,cs)
);
},
{
closed = 1;
nodes = (
(342,91,o),
(186,255,o),
(186,457,cs),
(186,659,o),
(342,823,o),
(543,823,cs),
(744,823,o),
(900,659,o),
(900,457,cs),
(900,255,o),
(744,91,o),
(543,91,cs)
);
},
{
closed = 1;
nodes = (
(215,-13,l),
(949,862,l),
(870,927,l),
(136,52,l)
);
}
);
};
guides = (
{
angle = 50;
pos = (611,444);
},
{
angle = 230;
pos = (530,516);
}
);
hints = (
{
horizontal = 1;
origin = (0,24);
target = (2,9);
type = Stem;
},
{
horizontal = 1;
origin = (0,8);
target = (1,2);
type = Stem;
},
{
origin = (0,11);
target = (1,9);
type = Stem;
},
{
origin = (2,6);
target = (0,27);
type = Stem;
}
);
layerId = "EE0FBCA4-4CE2-4E3B-825D-04713E092735";
name = "Oct 26 19, 10:49";
shapes = (
{
closed = 1;
nodes = (
(979,901,l),
(989,828,l),
(830,961,l),
(907,966,l),
(777,812,l),
(833,832,l),
(753,894,o),
(652,931,o),
(543,931,cs),
(281,931,o),
(69,719,o),
(69,457,cs),
(69,317,o),
(129,192,o),
(224,105,c),
(237,168,l),
(107,13,l),
(96,86,l),
(255,-47,l),
(178,-52,l),
(308,102,l),
(252,82,l),
(332,20,o),
(433,-17,o),
(543,-17,cs),
(805,-17,o),
(1017,195,o),
(1017,457,cs),
(1017,597,o),
(956,722,o),
(862,809,c),
(848,746,l)
);
},
{
closed = 1;
nodes = (
(186,659,o),
(342,823,o),
(543,823,cs),
(614,823,o),
(680,802,o),
(735,766,c),
(273,216,l),
(218,280,o),
(186,365,o),
(186,457,cs)
);
},
{
closed = 1;
nodes = (
(471,91,o),
(406,112,o),
(350,148,c),
(812,698,l),
(867,634,o),
(900,549,o),
(900,457,cs),
(900,255,o),
(744,91,o),
(543,91,cs)
);
}
);
width = 1085;
},
{
anchors = (
{
name = _center;
pos = (543,457);
},
{
name = bottom;
pos = (543,0);
},
{
name = center;
pos = (543,457);
},
{
name = ogonek;
pos = (977,10);
},
{
name = top;
pos = (543,914);
},
{
name = topleft;
pos = (19,914);
},
{
name = topright;
pos = (1066,914);
}
);
associatedMasterId = "3E87E8DA-1F15-4738-9454-A2AB4CEA57DC";
background = {
shapes = (
{
closed = 1;
nodes = (
(805,-17,o),
(1017,195,o),
(1017,457,cs),
(1017,719,o),
(805,931,o),
(543,931,cs),
(281,931,o),
(69,719,o),
(69,457,cs),
(69,195,o),
(281,-17,o),
(543,-17,cs)
);
},
{
closed = 1;
nodes = (
(342,91,o),
(186,255,o),
(186,457,cs),
(186,659,o),
(342,823,o),
(543,823,cs),
(744,823,o),
(900,659,o),
(900,457,cs),
(900,255,o),
(744,91,o),
(543,91,cs)
);
},
{
closed = 1;
nodes = (
(215,-13,l),
(949,862,l),
(870,927,l),
(136,52,l)
);
}
);
};
guides = (
{
angle = 50;
pos = (611,444);
},
{
angle = 230;
pos = (530,516);
}
);
hints = (
{
horizontal = 1;
origin = (0,24);
target = (2,11);
type = Stem;
},
{
horizontal = 1;
origin = (0,8);
target = (1,2);
type = Stem;
},
{
origin = (0,11);
target = (1,11);
type = Stem;
},
{
origin = (2,8);
target = (0,27);
type = Stem;
}
);
layerId = "D07CEF20-34CD-4B3F-8A78-93235AF9D561";
name = "Oct 26 19, 10:51";
shapes = (
{
closed = 1;
nodes = (
(979,901,l),
(989,828,l),
(830,961,l),
(907,966,l),
(777,812,l),
(833,832,l),
(753,894,o),
(652,931,o),
(543,931,cs),
(281,931,o),
(69,719,o),
(69,457,cs),
(69,317,o),
(129,192,o),
(224,105,c),
(237,168,l),
(107,13,l),
(96,86,l),
(255,-47,l),
(178,-52,l),
(308,102,l),
(252,82,l),
(332,20,o),
(433,-17,o),
(543,-17,cs),
(805,-17,o),
(1017,195,o),
(1017,457,cs),
(1017,597,o),
(956,722,o),
(862,809,c),
(848,746,l)
);
},
{
closed = 1;
nodes = (
(186,659,o),
(342,823,o),
(543,823,cs),
(626,823,o),
(702,794,o),
(762,747,c),
(770,804,l),
(242,175,l),
(296,192,l),
(227,258,o),
(186,352,o),
(186,457,cs)
);
},
{
closed = 1;
nodes = (
(459,91,o),
(384,120,o),
(324,167,c),
(315,110,l),
(844,739,l),
(789,722,l),
(859,656,o),
(900,562,o),
(900,457,cs),
(900,255,o),
(744,91,o),
(543,91,cs)
);
}
);
width = 1085;
},
{
anchors = (
{
name = bottom;
pos = (530,0);
},
{
name = top;
pos = (530,900);
}
);
layerId = "5864D40E-51E2-4FDD-96DA-51B6D988DC78";
shapes = (
{
closed = 1;
nodes = (
(280,52,l),
(352,8,o),
(438,-18,o),
(530,-18,cs),
(793,-18,o),
(1006,191,o),
(1006,450,cs),
(1006,574,o),
(957,687,o),
(877,771,c),
(939,845,l),
(850,918,l),
(788,843,l),
(714,891,o),
(625,918,o),
(530,918,cs),
(267,918,o),
(54,709,o),
(54,450,cs),
(54,323,o),
(106,207,o),
(189,123,c),
(121,41,l),
(210,-32,l)
);
},
{
closed = 1;
nodes = (
(266,314,o),
(242,379,o),
(242,450,cs),
(242,613,o),
(368,744,o),
(530,744,cs),
(583,744,o),
(632,730,o),
(674,706,c),
(306,264,l)
);
},
{
closed = 1;
nodes = (
(481,156,o),
(435,168,o),
(394,190,c),
(760,629,l),
(796,580,o),
(818,518,o),
(818,450,cs),
(818,287,o),
(692,156,o),
(530,156,cs)
);
}
);
width = 1060;
},
{
anchors = (
{
name = _center;
pos = (543,457);
},
{
name = bottom;
pos = (543,0);
},
{
name = center;
pos = (543,457);
},
{
name = ogonek;
pos = (977,10);
},
{
name = top;
pos = (543,914);
},
{
name = topleft;
pos = (19,914);
},
{
name = topright;
pos = (1066,914);
}
);
associatedMasterId = "5864D40E-51E2-4FDD-96DA-51B6D988DC78";
background = {
shapes = (
{
closed = 1;
nodes = (
(805,-17,o),
(1017,195,o),
(1017,457,cs),
(1017,719,o),
(805,931,o),
(543,931,cs),
(281,931,o),
(69,719,o),
(69,457,cs),
(69,195,o),
(281,-17,o),
(543,-17,cs)
);
},
{
closed = 1;
nodes = (
(342,91,o),
(186,255,o),
(186,457,cs),
(186,659,o),
(342,823,o),
(543,823,cs),
(744,823,o),
(900,659,o),
(900,457,cs),
(900,255,o),
(744,91,o),
(543,91,cs)
);
},
{
closed = 1;
nodes = (
(215,-13,l),
(949,862,l),
(870,927,l),
(136,52,l)
);
}
);
};
guides = (
{
angle = 50;
pos = (611,444);
},
{
angle = 230;
pos = (530,516);
}
);
hints = (
{
horizontal = 1;
origin = (0,24);
target = (2,9);
type = Stem;
},
{
horizontal = 1;
origin = (0,8);
target = (1,2);
type = Stem;
},
{
origin = (0,11);
target = (1,9);
type = Stem;
},
{
origin = (2,6);
target = (0,27);
type = Stem;
}
);
layerId = "52617ACB-0366-4B77-8116-19A66B661E1C";
name = "Oct 26 19, 10:49";
shapes = (
{
closed = 1;
nodes = (
(979,901,l),
(989,828,l),
(830,961,l),
(907,966,l),
(777,812,l),
(833,832,l),
(753,894,o),
(652,931,o),
(543,931,cs),
(281,931,o),
(69,719,o),
(69,457,cs),
(69,317,o),
(129,192,o),
(224,105,c),
(237,168,l),
(107,13,l),
(96,86,l),
(255,-47,l),
(178,-52,l),
(308,102,l),
(252,82,l),
(332,20,o),
(433,-17,o),
(543,-17,cs),
(805,-17,o),
(1017,195,o),
(1017,457,cs),
(1017,597,o),
(956,722,o),
(862,809,c),
(848,746,l)
);
},
{
closed = 1;
nodes = (
(186,659,o),
(342,823,o),
(543,823,cs),
(614,823,o),
(680,802,o),
(735,766,c),
(273,216,l),
(218,280,o),
(186,365,o),
(186,457,cs)
);
},
{
closed = 1;
nodes = (
(471,91,o),
(406,112,o),
(350,148,c),
(812,698,l),
(867,634,o),
(900,549,o),
(900,457,cs),
(900,255,o),
(744,91,o),
(543,91,cs)
);
}
);
width = 1085;
},
{
anchors = (
{
name = _center;
pos = (543,457);
},
{
name = bottom;
pos = (543,0);
},
{
name = center;
pos = (543,457);
},
{
name = ogonek;
pos = (977,10);
},
{
name = top;
pos = (543,914);
},
{
name = topleft;
pos = (19,914);
},
{
name = topright;
pos = (1066,914);
}
);
associatedMasterId = "5864D40E-51E2-4FDD-96DA-51B6D988DC78";
background = {
shapes = (
{
closed = 1;
nodes = (
(805,-17,o),
(1017,195,o),
(1017,457,cs),
(1017,719,o),
(805,931,o),
(543,931,cs),
(281,931,o),
(69,719,o),
(69,457,cs),
(69,195,o),
(281,-17,o),
(543,-17,cs)
);
},
{
closed = 1;
nodes = (
(342,91,o),
(186,255,o),
(186,457,cs),
(186,659,o),
(342,823,o),
(543,823,cs),
(744,823,o),
(900,659,o),
(900,457,cs),
(900,255,o),
(744,91,o),
(543,91,cs)
);
},
{
closed = 1;
nodes = (
(215,-13,l),
(949,862,l),
(870,927,l),
(136,52,l)
);
}
);
};
guides = (
{
angle = 50;
pos = (611,444);
},
{
angle = 230;
pos = (530,516);
}
);
hints = (
{
horizontal = 1;
origin = (0,24);
target = (2,11);
type = Stem;
},
{
horizontal = 1;
origin = (0,8);
target = (1,2);
type = Stem;
},
{
origin = (0,11);
target = (1,11);
type = Stem;
},
{
origin = (2,8);
target = (0,27);
type = Stem;
}
);
layerId = "51E2F5BA-3C55-40C3-A1E0-654BEFD7D5AA";
name = "Oct 26 19, 10:51";
shapes = (
{
closed = 1;
nodes = (
(979,901,l),
(989,828,l),
(830,961,l),
(907,966,l),
(777,812,l),
(833,832,l),
(753,894,o),
(652,931,o),
(543,931,cs),
(281,931,o),
(69,719,o),
(69,457,cs),
(69,317,o),
(129,192,o),
(224,105,c),
(237,168,l),
(107,13,l),
(96,86,l),
(255,-47,l),
(178,-52,l),
(308,102,l),
(252,82,l),
(332,20,o),
(433,-17,o),
(543,-17,cs),
(805,-17,o),
(1017,195,o),
(1017,457,cs),
(1017,597,o),
(956,722,o),
(862,809,c),
(848,746,l)
);
},
{
closed = 1;
nodes = (
(186,659,o),
(342,823,o),
(543,823,cs),
(626,823,o),
(702,794,o),
(762,747,c),
(770,804,l),
(242,175,l),
(296,192,l),
(227,258,o),
(186,352,o),
(186,457,cs)
);
},
{
closed = 1;
nodes = (
(459,91,o),
(384,120,o),
(324,167,c),
(315,110,l),
(844,739,l),
(789,722,l),
(859,656,o),
(900,562,o),
(900,457,cs),
(900,255,o),
(744,91,o),
(543,91,cs)
);
}
);
width = 1085;
}
);
unicode = 216;
},
{
glyphname = OE;
kernLeft = O;
kernRight = E;
lastChange = "2023-10-12 14:03:48 +0000";
layers = (
{
anchors = (
{
name = bottom;
pos = (530,0);
},
{
name = center;
pos = (530,450);
},
{
name = ogonek;
pos = (530,0);
},
{
name = top;
pos = (530,900);
},
{
name = "top-vertical";
pos = (530,540);
},
{
name = topleft;
pos = (60,900);
},
{
name = topright;
pos = (1000,900);
}
);
background = {
shapes = (
{
closed = 1;
nodes = (
(790,-18,o),
(1000,191,o),
(1000,450,cs),
(1000,709,o),
(790,918,o),
(530,918,cs),
(270,918,o),
(60,709,o),
(60,450,cs),
(60,191,o),
(270,-18,o),
(530,-18,cs)
);
},
{
closed = 1;
nodes = (
(332,90,o),
(178,251,o),
(178,450,cs),
(178,649,o),
(332,810,o),
(530,810,cs),
(728,810,o),
(882,649,o),
(882,450,cs),
(882,251,o),
(728,90,o),
(530,90,cs)
);
}
);
};
hints = (
{
horizontal = 1;
origin = (0,24);
target = (1,11);
type = Stem;
},
{
horizontal = 1;
origin = (0,18);
target = (1,5);
type = Stem;
},
{
origin = (0,21);
target = (1,2);
type = Stem;
},
{
origin = (1,8);
target = (0,7);
type = Stem;
}
);
layerId = "3E87E8DA-1F15-4738-9454-A2AB4CEA57DC";
shapes = (
{
closed = 1;
nodes = (
(676,-18,o),
(805,52,o),
(882,159,c),
(882,0,l),
(1320,0,l),
(1320,102,l),
(990,102,l),
(990,504,l),
(1250,504,l),
(1250,606,l),
(990,606,l),
(990,798,l),
(1320,798,l),
(1320,900,l),
(882,900,l),
(882,741,l),
(805,848,o),
(676,918,o),
(529,918,cs),
(269,918,o),
(60,709,o),
(60,450,cs),
(60,191,o),
(274,-18,o),
(529,-18,cs)
);
},
{
closed = 1;
nodes = (
(332,90,o),
(178,251,o),
(178,450,cs),
(178,649,o),
(332,810,o),
(530,810,cs),
(728,810,o),
(882,649,o),
(882,450,cs),
(882,251,o),
(728,90,o),
(530,90,cs)
);
}
);
width = 1380;
},
{
anchors = (
{
name = bottom;
pos = (530,0);
},
{
name = center;
pos = (530,450);
},
{
name = ogonek;
pos = (530,0);
},
{
name = top;
pos = (530,900);
},
{
name = "top-vertical";
pos = (530,480);
},
{
name = topleft;
pos = (60,900);
},
{
name = topright;
pos = (1000,900);
}
);
background = {
shapes = (
{
closed = 1;
nodes = (
(496,158,l),
(351,175,o),
(242,299,o),
(242,450,cs),
(242,601,o),
(351,725,o),
(496,742,c),
(496,917,l),
(249,900,o),
(54,698,o),
(54,450,cs),
(54,202,o),
(249,0,o),
(496,-17,c)
);
},
{
closed = 1;
nodes = (
(658,-10,o),
(744,28,o),
(813,107,c),
(786,117,l),
(786,0,l),
(960,0,l),
(960,900,l),
(786,900,l),
(786,783,l),
(813,793,l),
(744,872,o),
(658,910,o),
(564,917,c),
(564,742,l),
(709,725,o),
(818,602,o),
(818,450,cs),
(818,298,o),
(709,175,o),
(564,158,c),
(564,-17,l)
);
},
{
closed = 1;
nodes = (
(1266,0,l),
(1266,162,l),
(876,162,l),
(876,0,l)
);
},
{
closed = 1;
nodes = (
(1196,456,l),
(1196,606,l),
(876,606,l),
(876,456,l)
);
},
{
closed = 1;
nodes = (
(1266,744,l),
(1266,900,l),
(876,900,l),
(876,744,l)
);
}
);
};
layerId = "5864D40E-51E2-4FDD-96DA-51B6D988DC78";
shapes = (
{
closed = 1;
nodes = (
(626,-18,o),
(723,16,o),
(786,77,c),
(786,0,l),
(1266,0,l),
(1266,162,l),
(960,162,l),
(960,456,l),
(1196,456,l),
(1196,606,l),
(960,606,l),
(960,744,l),
(1266,744,l),
(1266,900,l),
(786,900,l),
(786,823,l),
(726,881,o),
(632,918,o),
(512,918,cs),
(259,918,o),
(54,709,o),
(54,450,cs),
(54,191,o),
(259,-18,o),
(512,-18,cs)
);
},
{
closed = 1;
nodes = (
(368,156,o),
(242,287,o),
(242,450,cs),
(242,613,o),
(368,744,o),
(530,744,cs),
(692,744,o),
(818,613,o),
(818,450,cs),
(818,287,o),
(692,156,o),
(530,156,cs)
);
}
);
width = 1320;
}
);
unicode = 338;
},
{
glyphname = P;
kernLeft = B;
kernRight = P;
lastChange = "2023-10-12 14:03:48 +0000";
layers = (
{
background = {
shapes = (
{
closed = 1;
nodes = (
(339,316,ls),
(449,316,o),
(523,347,o),
(577,401,cs),
(629,454,o),
(662,526,o),
(662,608,cs),
(662,686,o),
(632,759,o),
(577,814,cs),
(523,869,o),
(452,900,o),
(339,900,cs),
(180,900,l),
(180,798,l),
(333,798,ls),
(418,798,o),
(456,779,o),
(493,744,cs),
(529,712,o),
(548,661,o),
(548,608,cs),
(548,551,o),
(527,504,o),
(493,472,cs),
(456,437,o),
(418,418,o),
(333,418,cs),
(180,418,l),
(180,316,l)
);
},
{
closed = 1;
nodes = (
(241,0,l),
(241,900,l),
(127,900,l),
(127,0,l)
);
}
);
};
guides = (
{
pos = (179,367);
}
);
hints = (
{
horizontal = 1;
origin = (0,10);
target = up;
type = BottomGhost;
},
{
horizontal = 1;
origin = (0,1);
target = (1,8);
type = Stem;
},
{
horizontal = 1;
origin = (0,9);
target = (1,0);
type = Stem;
},
{
origin = (0,10);
target = (0,0);
type = Stem;
},
{
origin = (1,4);
target = (0,5);
type = Stem;
}
);
layerId = "3E87E8DA-1F15-4738-9454-A2AB4CEA57DC";
shapes = (
{
closed = 1;
nodes = (
(240,0,l),
(240,316,l),
(349,316,ls),
(587,316,o),
(672,480,o),
(672,608,cs),
(672,738,o),
(586,900,o),
(349,900,cs),
(126,900,l),
(126,0,l)
);
},
{
closed = 1;
nodes = (
(240,798,l),
(343,798,ls),
(508,798,o),
(558,696,o),
(558,608,cs),
(558,516,o),
(504,418,o),
(343,418,cs),
(240,418,l)
);
}
);
width = 720;
},
{
background = {
shapes = (
{
closed = 1;
nodes = (
(339,316,ls),
(449,316,o),
(523,347,o),
(577,401,cs),
(629,454,o),
(662,526,o),
(662,608,cs),
(662,686,o),
(632,759,o),
(577,814,cs),
(523,869,o),
(452,900,o),
(339,900,cs),
(180,900,l),
(180,798,l),
(333,798,ls),
(418,798,o),
(456,779,o),
(493,744,cs),
(529,712,o),
(548,661,o),
(548,608,cs),
(548,551,o),
(527,504,o),
(493,472,cs),
(456,437,o),
(418,418,o),
(333,418,cs),
(180,418,l),
(180,316,l)
);
},
{
closed = 1;
nodes = (
(241,0,l),
(241,900,l),
(127,900,l),
(127,0,l)
);
}
);
};
guides = (
{
angle = -86.6335;
pos = (346,367);
},
{
pos = (179,367);
}
);
layerId = "5864D40E-51E2-4FDD-96DA-51B6D988DC78";
shapes = (
{
closed = 1;
nodes = (
(270,0,l),
(270,289,l),
(368,289,ls),
(620,289,o),
(710,459,o),
(710,594,cs),
(710,732,o),
(619,900,o),
(368,900,cs),
(96,900,l),
(96,0,l)
);
},
{
closed = 1;
nodes = (
(270,744,l),
(358,744,ls),
(487,744,o),
(530,664,o),
(530,594,cs),
(530,522,o),
(486,445,o),
(358,445,cs),
(270,445,l)
);
}
);
width = 740;
}
);
unicode = 80;
},
{
glyphname = Thorn;
kernLeft = B;
kernRight = Thorn;
lastChange = "2023-10-12 14:03:48 +0000";
layers = (
{
hints = (
{
horizontal = 1;
origin = (0,12);
target = up;
type = BottomGhost;
},
{
horizontal = 1;
origin = (0,1);
target = (1,8);
type = Stem;
},
{
horizontal = 1;
origin = (1,0);
target = (0,9);
type = Stem;
},
{
horizontal = 1;
origin = (0,11);
target = down;
type = TopGhost;
},
{
origin = (0,12);
target = (0,0);
type = Stem;
},
{
origin = (1,4);
target = (0,5);
type = Stem;
}
);
layerId = "3E87E8DA-1F15-4738-9454-A2AB4CEA57DC";
shapes = (
{
closed = 1;
nodes = (
(240,0,l),
(240,196,l),
(349,196,ls),
(587,196,o),
(672,360,o),
(672,488,cs),
(672,618,o),
(586,780,o),
(349,780,cs),
(240,780,l),
(240,900,l),
(126,900,l),
(126,0,l)
);
},
{
closed = 1;
nodes = (
(240,678,l),
(343,678,ls),
(508,678,o),
(558,576,o),
(558,488,cs),
(558,396,o),
(504,298,o),
(343,298,cs),
(240,298,l)
);
}
);
width = 720;
},
{
background = {
shapes = (
{
closed = 1;
nodes = (
(349,196,ls),
(587,196,o),
(672,360,o),
(672,488,cs),
(672,618,o),
(586,780,o),
(349,780,cs),
(179,780,l),
(179,678,l),
(343,678,ls),
(508,678,o),
(558,576,o),
(558,488,cs),
(558,396,o),
(504,298,o),
(343,298,cs),
(179,298,l),
(179,196,l)
);
},
{
closed = 1;
nodes = (
(240,0,l),
(240,900,l),
(126,900,l),
(126,0,l)
);
}
);
};
layerId = "5864D40E-51E2-4FDD-96DA-51B6D988DC78";
shapes = (
{
closed = 1;
nodes = (
(270,0,l),
(270,169,l),
(368,169,ls),
(620,169,o),
(710,339,o),
(710,474,cs),
(710,612,o),
(619,780,o),
(368,780,cs),
(270,780,l),
(270,900,l),
(96,900,l),
(96,0,l)
);
},
{
closed = 1;
nodes = (
(270,624,l),
(358,624,ls),
(487,624,o),
(530,544,o),
(530,474,cs),
(530,402,o),
(486,325,o),
(358,325,cs),
(270,325,l)
);
}
);
width = 740;
}
);
unicode = 222;
},
{
glyphname = Q;
kernLeft = C;
kernRight = D;
lastChange = "2023-10-12 14:03:48 +0000";
layers = (
{
guides = (
{
angle = 180;
pos = (530,450);
},
{
angle = 129.7449;
pos = (710,311);
}
);
hints = (
{
horizontal = 1;
origin = (0,13);
target = (1,17);
type = Stem;
},
{
horizontal = 1;
origin = (0,7);
target = (1,5);
type = Stem;
},
{
origin = (0,10);
target = (1,2);
type = Stem;
},
{
origin = (1,8);
target = (0,4);
type = Stem;
},
{
horizontal = 1;
origin = (0,17);
target = up;
type = BottomGhost;
},
{
horizontal = 1;
origin = (1,13);
target = down;
type = TopGhost;
}
);
layerId = "3E87E8DA-1F15-4738-9454-A2AB4CEA57DC";
shapes = (
{
closed = 1;
nodes = (
(993,-30,l),
(866,123,l),
(949,207,o),
(1000,322,o),
(1000,450,cs),
(1000,709,o),
(790,918,o),
(530,918,cs),
(270,918,o),
(60,709,o),
(60,450,cs),
(60,191,o),
(270,-18,o),
(530,-18,cs),
(626,-18,o),
(715,10,o),
(789,59,c),
(863,-30,l)
);
},
{
closed = 1;
nodes = (
(332,90,o),
(178,251,o),
(178,450,cs),
(178,649,o),
(332,810,o),
(530,810,cs),
(728,810,o),
(882,649,o),
(882,450,cs),
(882,358,o),
(849,274,o),
(794,210,c),
(594,450,l),
(460,450,l),
(715,143,l),
(662,109,o),
(599,90,o),
(530,90,cs)
);
}
);
width = 1060;
},
{
guides = (
{
angle = 180;
pos = (530,450);
},
{
angle = 129.7449;
pos = (710,311);
}
);
layerId = "5864D40E-51E2-4FDD-96DA-51B6D988DC78";
shapes = (
{
closed = 1;
nodes = (
(1023,-30,l),
(884,137,l),
(960,220,o),
(1006,330,o),
(1006,450,cs),
(1006,709,o),
(793,918,o),
(530,918,cs),
(267,918,o),
(54,709,o),
(54,450,cs),
(54,191,o),
(267,-18,o),
(530,-18,cs),
(614,-18,o),
(693,3,o),
(762,41,c),
(821,-30,l)
);
},
{
closed = 1;
nodes = (
(368,156,o),
(242,287,o),
(242,450,cs),
(242,613,o),
(368,744,o),
(530,744,cs),
(692,744,o),
(818,613,o),
(818,450,cs),
(818,386,o),
(799,328,o),
(766,280,c),
(624,450,l),
(424,450,l),
(648,181,l),
(612,165,o),
(572,156,o),
(530,156,cs)
);
}
);
width = 1060;
}
);
unicode = 81;
},
{
glyphname = R;
kernLeft = B;
kernRight = R;
lastChange = "2023-10-12 14:03:48 +0000";
layers = (
{
anchors = (
{
name = bottom;
pos = (439,0);
},
{
name = top;
pos = (325,900);
}
);
background = {
shapes = (
{
closed = 1;
nodes = (
(243,0,l),
(243,900,l),
(129,900,l),
(129,0,l)
);
},
{
closed = 1;
nodes = (
(364,457,l),
(588,0,l),
(715,0,l),
(461,508,l)
);
},
{
closed = 1;
nodes = (
(441,414,o),
(503,440,o),
(549,481,cs),
(598,526,o),
(628,587,o),
(628,655,cs),
(628,725,o),
(597,788,o),
(548,833,cs),
(502,875,o),
(440,900,o),
(355,900,cs),
(186,900,l),
(186,799,l),
(355,799,ls),
(411,799,o),
(448,784,o),
(475,759,cs),
(503,733,o),
(521,696,o),
(521,655,cs),
(521,614,o),
(503,578,o),
(475,551,cs),
(449,525,o),
(412,510,o),
(355,510,cs),
(186,510,l),
(186,414,l),
(355,414,ls)
);
}
);
};
guides = (
{
angle = 180;
pos = (417,412);
},
{
angle = -55.3297;
pos = (469,240);
}
);
hints = (
{
horizontal = 1;
origin = (0,13);
target = up;
type = BottomGhost;
},
{
horizontal = 1;
origin = (0,1);
target = (1,8);
type = Stem;
},
{
horizontal = 1;
origin = (0,12);
target = (1,0);
type = Stem;
},
{
origin = (0,13);
target = (0,0);
type = Stem;
},
{
origin = (1,4);
target = (0,8);
type = Stem;
}
);
layerId = "3E87E8DA-1F15-4738-9454-A2AB4CEA57DC";
shapes = (
{
closed = 1;
nodes = (
(243,0,l),
(243,414,l),
(355,414,l),
(641,0,l),
(774,0,l),
(472,435,l),
(569,472,o),
(629,556,o),
(629,655,cs),
(629,787,o),
(524,900,o),
(355,900,cs),
(129,900,l),
(129,0,l)
);
},
{
closed = 1;
nodes = (
(243,798,l),
(355,798,ls),
(455,798,o),
(521,739,o),
(521,655,cs),
(521,585,o),
(470,510,o),
(355,510,cs),
(243,510,l)
);
}
);
width = 780;
},
{
anchors = (
{
name = bottom;
pos = (439,0);
},
{
name = top;
pos = (325,900);
}
);
background = {
shapes = (
{
closed = 1;
nodes = (
(243,0,l),
(243,900,l),
(129,900,l),
(129,0,l)
);
},
{
closed = 1;
nodes = (
(364,457,l),
(588,0,l),
(715,0,l),
(461,508,l)
);
},
{
closed = 1;
nodes = (
(441,414,o),
(503,440,o),
(549,481,cs),
(598,526,o),
(628,587,o),
(628,655,cs),
(628,725,o),
(597,788,o),
(548,833,cs),
(502,875,o),
(440,900,o),
(355,900,cs),
(186,900,l),
(186,799,l),
(355,799,ls),
(411,799,o),
(448,784,o),
(475,759,cs),
(503,733,o),
(521,696,o),
(521,655,cs),
(521,614,o),
(503,578,o),
(475,551,cs),
(449,525,o),
(412,510,o),
(355,510,cs),
(186,510,l),
(186,414,l),
(355,414,ls)
);
}
);
};
guides = (
{
angle = 180;
pos = (417,412);
},
{
angle = -55.3297;
pos = (469,240);
},
{
angle = -59.7243;
pos = (605,0);
},
{
angle = 120.5324;
pos = (667,206);
}
);
layerId = "5864D40E-51E2-4FDD-96DA-51B6D988DC78";
shapes = (
{
closed = 1;
nodes = (
(273,0,l),
(273,342,l),
(409,342,l),
(609,0,l),
(806,0,l),
(568,395,l),
(642,444,o),
(685,523,o),
(685,616,cs),
(685,769,o),
(570,900,o),
(374,900,cs),
(99,900,l),
(99,0,l)
);
},
{
closed = 1;
nodes = (
(273,738,l),
(370,738,ls),
(454,738,o),
(511,687,o),
(511,616,cs),
(511,556,o),
(468,492,o),
(370,492,cs),
(273,492,l)
);
}
);
width = 800;
}
);
unicode = 82;
},
{
glyphname = S;
kernLeft = S;
kernRight = S;
lastChange = "2023-10-12 14:03:48 +0000";
layers = (
{
anchors = (
{
name = bottom;
pos = (322,0);
},
{
name = top;
pos = (343,900);
}
);
background = {
shapes = (
{
closed = 1;
nodes = (
(480,-12,o),
(600,99,o),
(600,252,cs),
(600,410,o),
(472,476,o),
(419,503,cs),
(307,559,ls),
(278,574,o),
(207,607,o),
(207,688,cs),
(207,758,o),
(260,812,o),
(336,812,cs),
(418,812,o),
(483,748,o),
(505,679,c),
(566,799,l),
(521,863,o),
(437,912,o),
(340,912,cs),
(201,912,o),
(96,813,o),
(96,678,cs),
(96,537,o),
(212,479,o),
(257,456,cs),
(367,400,ls),
(401,383,o),
(490,341,o),
(490,246,cs),
(490,158,o),
(421,90,o),
(328,90,cs),
(229,90,o),
(141,168,o),
(128,269,c),
(62,138,l),
(115,47,o),
(218,-12,o),
(328,-12,cs)
);
}
);
};
guides = (
{
angle = 153.4349;
pos = (363,531);
},
{
angle = 256.4428;
pos = (60,114);
},
{
angle = 256.443;
pos = (92,177);
},
{
angle = 256.443;
pos = (541,765);
}
);
hints = (
{
horizontal = 1;
origin = (0,39);
target = (0,32);
type = Stem;
},
{
horizontal = 1;
origin = (0,19);
target = (0,12);
type = Stem;
},
{
origin = (0,22);
target = (0,9);
type = Stem;
},
{
origin = (0,29);
target = (0,2);
type = Stem;
}
);
layerId = "3E87E8DA-1F15-4738-9454-A2AB4CEA57DC";
name = Regular;
shapes = (
{
closed = 1;
nodes = (
(481,-12,o),
(600,99,o),
(600,253,cs),
(600,412,o),
(473,476,o),
(419,503,cs),
(307,559,ls),
(277,574,o),
(208,609,o),
(208,689,cs),
(208,758,o),
(260,812,o),
(340,812,cs),
(422,812,o),
(492,752,o),
(525,696,c),
(558,834,l),
(517,870,o),
(441,912,o),
(345,912,cs),
(198,912,o),
(96,814,o),
(96,678,cs),
(96,538,o),
(204,483,o),
(257,456,cs),
(367,400,ls),
(401,383,o),
(488,341,o),
(488,246,cs),
(488,158,o),
(419,90,o),
(324,90,cs),
(220,90,o),
(143,161,o),
(106,236,c),
(73,98,l),
(124,37,o),
(213,-12,o),
(320,-12,cs)
);
}
);
width = 660;
},
{
anchors = (
{
name = bottom;
pos = (317,0);
},
{
name = top;
pos = (338,900);
}
);
background = {
shapes = (
{
closed = 1;
nodes = (
(481,-12,o),
(600,99,o),
(600,253,cs),
(600,412,o),
(473,476,o),
(419,503,cs),
(307,559,ls),
(277,574,o),
(208,609,o),
(208,689,cs),
(208,758,o),
(260,812,o),
(340,812,cs),
(422,812,o),
(492,752,o),
(525,696,c),
(558,834,l),
(517,870,o),
(441,912,o),
(345,912,cs),
(198,912,o),
(96,814,o),
(96,678,cs),
(96,538,o),
(204,483,o),
(257,456,cs),
(367,400,ls),
(401,383,o),
(488,341,o),
(488,246,cs),
(488,158,o),
(419,90,o),
(324,90,cs),
(220,90,o),
(143,161,o),
(106,236,c),
(73,98,l),
(124,37,o),
(213,-12,o),
(320,-12,cs)
);
}
);
};
guides = (
{
angle = -26.9802;
pos = (299,402);
},
{
angle = 153.4349;
pos = (376,557);
},
{
pos = (320,-20);
},
{
pos = (326,134);
},
{
pos = (338,770);
},
{
pos = (345,920);
},
{
angle = 90;
pos = (460,244);
},
{
angle = 90;
pos = (628,255);
},
{
angle = 90;
pos = (236,692);
},
{
angle = 90;
pos = (68,675);
},
{
angle = 256.443;
pos = (55,84);
},
{
angle = 256.4428;
pos = (812,710);
},
{
angle = 256.443;
pos = (575,734);
}
);
layerId = "5864D40E-51E2-4FDD-96DA-51B6D988DC78";
name = Regular;
shapes = (
{
closed = 1;
nodes = (
(508,-20,o),
(621,100,o),
(621,256,cs),
(621,415,o),
(503,484,o),
(432,519,cs),
(325,572,ls),
(270,599,o),
(237,626,o),
(237,673,cs),
(237,722,o),
(273,760,o),
(339,760,cs),
(412,760,o),
(491,714,o),
(545,645,c),
(591,840,l),
(539,879,o),
(453,920,o),
(347,920,cs),
(176,920,o),
(67,817,o),
(67,666,cs),
(67,527,o),
(157,463,o),
(250,417,cs),
(356,364,ls),
(390,347,o),
(451,314,o),
(451,245,cs),
(451,187,o),
(406,142,o),
(333,142,cs),
(244,142,o),
(150,202,o),
(103,284,c),
(54,84,l),
(113,26,o),
(217,-20,o),
(327,-20,cs)
);
}
);
width = 660;
}
);
unicode = 83;
},
{
glyphname = Scedilla;
kernLeft = S;
kernRight = S;
lastChange = "2023-10-12 14:03:48 +0000";
layers = (
{
hints = (
{
horizontal = 1;
origin = (0,21);
target = (0,14);
type = Stem;
},
{
origin = (0,24);
target = (0,11);
type = Stem;
},
{
origin = (0,31);
target = (0,4);
type = Stem;
},
{
horizontal = 1;
origin = (0,41);
target = (0,34);
type = Stem;
},
{
horizontal = 1;
origin = (0,42);
target = up;
type = BottomGhost;
}
);
layerId = "3E87E8DA-1F15-4738-9454-A2AB4CEA57DC";
shapes = (
{
closed = 1;
nodes = (
(233,-180,l),
(369,-8,l),
(505,12,o),
(600,115,o),
(600,253,cs),
(600,412,o),
(473,476,o),
(419,503,cs),
(307,559,ls),
(277,574,o),
(208,609,o),
(208,689,cs),
(208,758,o),
(260,812,o),
(340,812,cs),
(422,812,o),
(492,752,o),
(525,696,c),
(558,834,l),
(517,870,o),
(441,912,o),
(345,912,cs),
(198,912,o),
(96,814,o),
(96,678,cs),
(96,538,o),
(204,483,o),
(257,456,cs),
(367,400,ls),
(401,383,o),
(488,341,o),
(488,246,cs),
(488,158,o),
(419,90,o),
(324,90,cs),
(220,90,o),
(143,161,o),
(106,236,c),
(73,98,l),
(114,49,o),
(181,7,o),
(261,-7,c),
(90,-180,l)
);
}
);
width = 660;
},
{
layerId = "5864D40E-51E2-4FDD-96DA-51B6D988DC78";
shapes = (
{
closed = 1;
nodes = (
(258,-192,l),
(381,-16,l),
(530,5,o),
(621,116,o),
(621,256,cs),
(621,415,o),
(503,484,o),
(432,519,cs),
(325,572,ls),
(270,599,o),
(237,626,o),
(237,673,cs),
(237,722,o),
(273,760,o),
(339,760,cs),
(412,760,o),
(491,714,o),
(545,645,c),
(591,840,l),
(539,879,o),
(453,920,o),
(347,920,cs),
(176,920,o),
(67,817,o),
(67,666,cs),
(67,527,o),
(157,463,o),
(250,417,cs),
(356,364,ls),
(390,347,o),
(451,314,o),
(451,245,cs),
(451,187,o),
(406,142,o),
(333,142,cs),
(244,142,o),
(150,202,o),
(103,284,c),
(54,84,l),
(96,43,o),
(160,8,o),
(233,-9,c),
(43,-192,l)
);
}
);
width = 660;
}
);
unicode = 350;
},
{
glyphname = Germandbls;
kernLeft = B;
lastChange = "2023-10-12 14:03:48 +0000";
layers = (
{
associatedMasterId = "3E87E8DA-1F15-4738-9454-A2AB4CEA57DC";
background = {
shapes = (
{
closed = 1;
nodes = (
(874,914,l),
(126,914,l),
(126,0,l),
(240,0,l),
(240,811,l),
(700,811,l),
(522,468,l),
(553,487,o),
(589,499,o),
(628,499,cs),
(740,499,o),
(829,409,o),
(829,298,cs),
(829,187,o),
(740,97,o),
(628,97,cs),
(534,97,o),
(437,172,o),
(425,274,c),
(356,139,l),
(411,46,o),
(512,-11,o),
(628,-11,cs),
(803,-11,o),
(944,124,o),
(944,298,cs),
(944,448,o),
(843,566,o),
(706,595,c)
);
}
);
};
guides = (
{
angle = 242.6633;
pos = (610,669);
},
{
pos = (444,420);
}
);
layerId = "46F1D31C-016F-43F8-A06D-2EFF4B671CAA";
name = "Oct 26 19, 11:25";
shapes = (
{
closed = 1;
nodes = (
(387,400,l),
(376,368,o),
(370,334,o),
(370,298,cs),
(370,124,o),
(511,-11,o),
(686,-11,cs),
(860,-11,o),
(1001,124,o),
(1001,298,cs),
(1001,448,o),
(900,566,o),
(764,595,c),
(931,914,l),
(126,914,l),
(126,0,l),
(240,0,l),
(240,811,l),
(757,811,l),
(579,468,l),
(610,487,o),
(646,499,o),
(686,499,cs),
(797,499,o),
(886,409,o),
(886,298,cs),
(886,187,o),
(797,97,o),
(686,97,cs),
(574,97,o),
(485,187,o),
(485,298,cs),
(485,335,o),
(495,370,o),
(512,400,c)
);
}
);
width = 1085;
},
{
guides = (
{
angle = 242.6633;
pos = (598,669);
}
);
hints = (
{
horizontal = 1;
origin = (0,28);
target = (0,21);
type = Stem;
},
{
horizontal = 1;
origin = (0,7);
target = (0,10);
type = Stem;
},
{
horizontal = 1;
origin = (0,8);
target = up;
type = BottomGhost;
},
{
origin = (0,8);
target = (0,9);
type = Stem;
},
{
origin = (0,18);
target = (0,2);
type = Stem;
},
{
horizontal = 1;
origin = (0,15);
target = (0,5);
type = Stem;
}
);
layerId = "3E87E8DA-1F15-4738-9454-A2AB4CEA57DC";
shapes = (
{
closed = 1;
nodes = (
(771,-12,o),
(910,122,o),
(910,294,cs),
(910,442,o),
(804,558,o),
(671,585,c),
(840,900,l),
(126,900,l),
(126,0,l),
(240,0,l),
(240,804,l),
(674,804,l),
(503,473,l),
(530,488,o),
(563,498,o),
(600,498,cs),
(712,498,o),
(802,406,o),
(802,294,cs),
(802,181,o),
(713,90,o),
(600,90,cs),
(496,90,o),
(410,166,o),
(396,269,c),
(330,138,l),
(385,45,o),
(485,-12,o),
(600,-12,cs)
);
}
);
width = 970;
},
{
associatedMasterId = "3E87E8DA-1F15-4738-9454-A2AB4CEA57DC";
guides = (
{
angle = 242.6633;
pos = (610,669);
}
);
layerId = "FEAE1D95-A267-4764-8AC0-2A58F9A958CF";
name = "15 Dec 21, 09:24";
shapes = (
{
closed = 1;
nodes = (
(845,914,l),
(126,914,l),
(126,0,l),
(240,0,l),
(240,811,l),
(671,811,l),
(493,468,l),
(525,487,o),
(561,499,o),
(600,499,cs),
(711,499,o),
(801,409,o),
(801,298,cs),
(801,187,o),
(711,97,o),
(600,97,cs),
(506,97,o),
(408,172,o),
(396,274,c),
(328,139,l),
(383,46,o),
(484,-11,o),
(600,-11,cs),
(774,-11,o),
(915,124,o),
(915,298,cs),
(915,448,o),
(814,566,o),
(678,595,c)
);
}
);
width = 971;
},
{
associatedMasterId = "5864D40E-51E2-4FDD-96DA-51B6D988DC78";
background = {
shapes = (
{
closed = 1;
nodes = (
(874,914,l),
(126,914,l),
(126,0,l),
(240,0,l),
(240,811,l),
(700,811,l),
(522,468,l),
(553,487,o),
(589,499,o),
(628,499,cs),
(740,499,o),
(829,409,o),
(829,298,cs),
(829,187,o),
(740,97,o),
(628,97,cs),
(534,97,o),
(437,172,o),
(425,274,c),
(356,139,l),
(411,46,o),
(512,-11,o),
(628,-11,cs),
(803,-11,o),
(944,124,o),
(944,298,cs),
(944,448,o),
(843,566,o),
(706,595,c)
);
}
);
};
guides = (
{
angle = 242.6633;
pos = (610,669);
},
{
pos = (444,420);
}
);
layerId = "D010DA99-FD1B-4684-9C4C-3A8C180985C5";
name = "Oct 26 19, 11:25";
shapes = (
{
closed = 1;
nodes = (
(387,400,l),
(376,368,o),
(370,334,o),
(370,298,cs),
(370,124,o),
(511,-11,o),
(686,-11,cs),
(860,-11,o),
(1001,124,o),
(1001,298,cs),
(1001,448,o),
(900,566,o),
(764,595,c),
(931,914,l),
(126,914,l),
(126,0,l),
(240,0,l),
(240,811,l),
(757,811,l),
(579,468,l),
(610,487,o),
(646,499,o),
(686,499,cs),
(797,499,o),
(886,409,o),
(886,298,cs),
(886,187,o),
(797,97,o),
(686,97,cs),
(574,97,o),
(485,187,o),
(485,298,cs),
(485,335,o),
(495,370,o),
(512,400,c)
);
}
);
width = 1085;
},
{
guides = (
{
angle = 242.6633;
pos = (610,669);
}
);
layerId = "5864D40E-51E2-4FDD-96DA-51B6D988DC78";
shapes = (
{
closed = 1;
nodes = (
(806,-20,o),
(960,118,o),
(960,299,cs),
(960,433,o),
(875,543,o),
(762,586,c),
(930,900,l),
(96,900,l),
(96,0,l),
(281,0,l),
(281,738,l),
(670,738,l),
(512,428,l),
(549,448,o),
(584,458,o),
(624,458,cs),
(724,458,o),
(790,388,o),
(790,301,cs),
(790,211,o),
(719,142,o),
(628,142,cs),
(533,142,o),
(460,217,o),
(442,306,c),
(350,123,l),
(406,38,o),
(509,-20,o),
(626,-20,cs)
);
}
);
width = 990;
},
{
associatedMasterId = "5864D40E-51E2-4FDD-96DA-51B6D988DC78";
guides = (
{
angle = 242.6633;
pos = (610,669);
}
);
layerId = "04B710A5-1E75-422B-864B-1AB043A5ADC3";
name = "15 Dec 21, 09:24";
shapes = (
{
closed = 1;
nodes = (
(845,914,l),
(126,914,l),
(126,0,l),
(240,0,l),
(240,811,l),
(671,811,l),
(493,468,l),
(525,487,o),
(561,499,o),
(600,499,cs),
(711,499,o),
(801,409,o),
(801,298,cs),
(801,187,o),
(711,97,o),
(600,97,cs),
(506,97,o),
(408,172,o),
(396,274,c),
(328,139,l),
(383,46,o),
(484,-11,o),
(600,-11,cs),
(774,-11,o),
(915,124,o),
(915,298,cs),
(915,448,o),
(814,566,o),
(678,595,c)
);
}
);
width = 971;
}
);
unicode = 7838;
},
{
glyphname = T;
kernLeft = T;
kernRight = T;
lastChange = "2023-10-12 14:03:48 +0000";
layers = (
{
anchors = (
{
name = bottom;
pos = (345,0);
},
{
name = center;
pos = (345,450);
},
{
name = top;
pos = (345,900);
}
);
background = {
shapes = (
{
closed = 1;
nodes = (
(642,0,l),
(642,103,l),
(48,103,l),
(48,0,l)
);
},
{
closed = 1;
nodes = (
(402,0,l),
(402,914,l),
(288,914,l),
(288,0,l)
);
}
);
};
guides = (
{
angle = 180;
pos = (359,578);
}
);
hints = (
{
horizontal = 1;
origin = (0,1);
target = up;
type = BottomGhost;
},
{
horizontal = 1;
origin = (0,6);
target = (0,7);
type = Stem;
},
{
origin = (0,1);
target = (0,2);
type = Stem;
}
);
layerId = "3E87E8DA-1F15-4738-9454-A2AB4CEA57DC";
shapes = (
{
closed = 1;
nodes = (
(288,798,l),
(288,0,l),
(402,0,l),
(402,798,l),
(642,798,l),
(642,900,l),
(48,900,l),
(48,798,l)
);
}
);
width = 690;
},
{
anchors = (
{
name = bottom;
pos = (355,0);
},
{
name = center;
pos = (355,450);
},
{
name = top;
pos = (355,900);
}
);
background = {
shapes = (
{
closed = 1;
nodes = (
(652,0,l),
(652,103,l),
(58,103,l),
(58,0,l)
);
},
{
closed = 1;
nodes = (
(412,0,l),
(412,914,l),
(298,914,l),
(298,0,l)
);
}
);
};
guides = (
{
angle = 180;
pos = (369,578);
}
);
layerId = "5864D40E-51E2-4FDD-96DA-51B6D988DC78";
shapes = (
{
closed = 1;
nodes = (
(262,738,l),
(262,0,l),
(448,0,l),
(448,738,l),
(668,738,l),
(668,900,l),
(42,900,l),
(42,738,l)
);
}
);
width = 710;
}
);
unicode = 84;
},
{
glyphname = Tbar;
kernLeft = T;
kernRight = T;
lastChange = "2023-10-12 14:03:48 +0000";
layers = (
{
hints = (
{
horizontal = 1;
origin = (0,15);
target = up;
type = BottomGhost;
},
{
horizontal = 1;
origin = (0,13);
target = (0,12);
type = Stem;
},
{
horizontal = 1;
origin = (0,8);
target = (0,9);
type = Stem;
},
{
origin = (0,15);
target = (0,0);
type = Stem;
}
);
layerId = "3E87E8DA-1F15-4738-9454-A2AB4CEA57DC";
shapes = (
{
closed = 1;
nodes = (
(402,0,l),
(402,408,l),
(585,408,l),
(585,492,l),
(402,492,l),
(402,798,l),
(642,798,l),
(642,900,l),
(48,900,l),
(48,798,l),
(288,798,l),
(288,492,l),
(105,492,l),
(105,408,l),
(288,408,l),
(288,0,l)
);
}
);
width = 690;
},
{
layerId = "5864D40E-51E2-4FDD-96DA-51B6D988DC78";
shapes = (
{
closed = 1;
nodes = (
(448,0,l),
(448,387,l),
(595,387,l),
(595,513,l),
(448,513,l),
(448,738,l),
(668,738,l),
(668,900,l),
(42,900,l),
(42,738,l),
(262,738,l),
(262,513,l),
(115,513,l),
(115,387,l),
(262,387,l),
(262,0,l)
);
}
);
width = 710;
}
);
unicode = 358;
},
{
glyphname = Tcedilla;
kernLeft = T;
kernRight = T;
lastChange = "2023-10-12 14:03:48 +0000";
layers = (
{
hints = (
{
horizontal = 1;
origin = (0,5);
target = (0,6);
type = Stem;
},
{
origin = (0,8);
target = (0,1);
type = Stem;
},
{
horizontal = 1;
origin = (0,9);
target = up;
type = BottomGhost;
},
{
horizontal = 1;
origin = (0,8);
target = up;
type = BottomGhost;
}
);
layerId = "3E87E8DA-1F15-4738-9454-A2AB4CEA57DC";
shapes = (
{
closed = 1;
nodes = (
(256,-180,l),
(402,0,l),
(402,798,l),
(642,798,l),
(642,900,l),
(48,900,l),
(48,798,l),
(288,798,l),
(288,0,l),
(113,-180,l)
);
}
);
width = 690;
},
{
layerId = "5864D40E-51E2-4FDD-96DA-51B6D988DC78";
shapes = (
{
closed = 1;
nodes = (
(296,-192,l),
(448,0,l),
(448,738,l),
(668,738,l),
(668,900,l),
(42,900,l),
(42,738,l),
(262,738,l),
(262,0,l),
(81,-192,l)
);
}
);
width = 710;
}
);
unicode = 354;
},
{
glyphname = U;
kernLeft = U;
kernRight = J;
lastChange = "2023-10-12 14:03:48 +0000";
layers = (
{
anchors = (
{
name = bottom;
pos = (400,0);
},
{
name = ogonek;
pos = (430,0);
},
{
name = top;
pos = (400,900);
},
{
name = "top-vertical";
pos = (400,720);
},
{
name = topright;
pos = (635,900);
}
);
background = {
guides = (
{
angle = 135;
pos = (420,313);
},
{
angle = 45;
pos = (420,313);
}
);
shapes = (
{
closed = 1;
nodes = (
(571,-12,o),
(692,110,o),
(692,287,cs),
(692,900,l),
(577,900,l),
(577,283,ls),
(577,168,o),
(502,90,o),
(400,90,cs),
(297,90,o),
(223,168,o),
(223,287,cs),
(223,900,l),
(108,900,l),
(108,283,ls),
(108,109,o),
(230,-12,o),
(400,-12,cs)
);
}
);
};
hints = (
{
horizontal = 1;
origin = (0,17);
target = (0,8);
type = Stem;
},
{
horizontal = 1;
origin = (0,13);
target = down;
type = TopGhost;
},
{
origin = (0,14);
target = (0,11);
type = Stem;
},
{
origin = (0,5);
target = (0,2);
type = Stem;
}
);
layerId = "3E87E8DA-1F15-4738-9454-A2AB4CEA57DC";
name = Regular;
shapes = (
{
closed = 1;
nodes = (
(571,-12,o),
(692,110,o),
(692,287,cs),
(692,900,l),
(582,900,l),
(582,283,ls),
(582,168,o),
(505,90,o),
(402,90,cs),
(298,90,o),
(222,168,o),
(222,287,cs),
(222,900,l),
(108,900,l),
(108,283,ls),
(108,109,o),
(230,-12,o),
(400,-12,cs)
);
}
);
width = 800;
},
{
anchors = (
{
name = bottom;
pos = (400,0);
},
{
name = ogonek;
pos = (430,0);
},
{
name = top;
pos = (400,900);
},
{
name = "top-vertical";
pos = (400,720);
},
{
name = topright;
pos = (635,900);
}
);
background = {
guides = (
{
angle = 135;
pos = (420,313);
},
{
angle = 45;
pos = (420,313);
}
);
shapes = (
{
closed = 1;
nodes = (
(571,-12,o),
(692,110,o),
(692,287,cs),
(692,900,l),
(577,900,l),
(577,283,ls),
(577,168,o),
(502,90,o),
(400,90,cs),
(297,90,o),
(223,168,o),
(223,287,cs),
(223,900,l),
(108,900,l),
(108,283,ls),
(108,109,o),
(230,-12,o),
(400,-12,cs)
);
}
);
};
layerId = "5864D40E-51E2-4FDD-96DA-51B6D988DC78";
name = Regular;
shapes = (
{
closed = 1;
nodes = (
(593,-21,o),
(728,101,o),
(728,306,cs),
(728,900,l),
(548,900,l),
(548,306,ls),
(548,213,o),
(487,153,o),
(403,153,cs),
(318,153,o),
(258,215,o),
(258,312,cs),
(258,900,l),
(72,900,l),
(72,303,ls),
(72,101,o),
(210,-21,o),
(400,-21,cs)
);
}
);
width = 800;
}
);
unicode = 85;
},
{
glyphname = Uhorn;
kernLeft = U;
kernRight = Uhorn;
lastChange = "2023-10-12 14:03:48 +0000";
layers = (
{
anchors = (
{
name = bottom;
pos = (400,0);
},
{
name = top;
pos = (400,900);
}
);
guides = (
{
angle = 90;
pos = (635,900);
}
);
hints = (
{
horizontal = 1;
origin = (0,37);
target = (0,28);
type = Stem;
},
{
horizontal = 1;
origin = (0,6);
target = (0,19);
type = Stem;
},
{
horizontal = 1;
origin = (0,33);
target = down;
type = TopGhost;
},
{
horizontal = 1;
origin = (0,13);
target = down;
type = TopGhost;
},
{
origin = (0,34);
target = (0,31);
type = Stem;
},
{
origin = (0,16);
target = (0,9);
type = Stem;
},
{
origin = (0,25);
target = (0,2);
type = Stem;
}
);
layerId = "3E87E8DA-1F15-4738-9454-A2AB4CEA57DC";
shapes = (
{
closed = 1;
nodes = (
(571,-12,o),
(692,110,o),
(692,287,cs),
(692,708,l),
(709,701,o),
(727,698,o),
(746,698,cs),
(825,698,o),
(896,759,o),
(896,868,cs),
(896,897,o),
(891,928,o),
(872,960,c),
(776,960,l),
(795,927,o),
(800,892,o),
(800,868,cs),
(800,816,o),
(772,776,o),
(722,776,cs),
(709,776,o),
(697,779,o),
(686,785,c),
(686,900,l),
(577,900,l),
(577,283,ls),
(577,168,o),
(502,90,o),
(400,90,cs),
(297,90,o),
(223,168,o),
(223,287,cs),
(223,900,l),
(108,900,l),
(108,283,ls),
(108,109,o),
(230,-12,o),
(400,-12,cs)
);
}
);
width = 920;
},
{
anchors = (
{
name = bottom;
pos = (400,0);
},
{
name = top;
pos = (400,900);
}
);
guides = (
{
angle = 90;
pos = (635,900);
}
);
layerId = "5864D40E-51E2-4FDD-96DA-51B6D988DC78";
shapes = (
{
closed = 1;
nodes = (
(593,-21,o),
(728,101,o),
(728,306,cs),
(728,685,l),
(741,682,o),
(755,680,o),
(769,680,cs),
(854,680,o),
(936,745,o),
(936,866,cs),
(936,896,o),
(931,927,o),
(912,960,c),
(762,960,l),
(781,927,o),
(786,892,o),
(786,868,cs),
(786,816,o),
(756,794,o),
(725,794,cs),
(722,794,o),
(719,794,o),
(716,794,c),
(716,900,l),
(548,900,l),
(548,306,ls),
(548,213,o),
(487,153,o),
(403,153,cs),
(318,153,o),
(258,215,o),
(258,312,cs),
(258,900,l),
(72,900,l),
(72,303,ls),
(72,101,o),
(210,-21,o),
(400,-21,cs)
);
}
);
width = 940;
}
);
unicode = 431;
},
{
glyphname = Uogonek;
kernLeft = U;
kernRight = J;
lastChange = "2023-10-12 14:03:48 +0000";
layers = (
{
background = {
shapes = (
{
closed = 1;
nodes = (
(571,-12,o),
(692,110,o),
(692,287,cs),
(692,900,l),
(577,900,l),
(577,283,ls),
(577,168,o),
(502,90,o),
(400,90,cs),
(297,90,o),
(223,168,o),
(223,287,cs),
(223,900,l),
(108,900,l),
(108,283,ls),
(108,109,o),
(230,-12,o),
(400,-12,cs)
);
},
{
closed = 1;
nodes = (
(464,-312,o),
(504,-299,o),
(532,-277,c),
(508,-180,l),
(493,-205,o),
(469,-228,o),
(429,-228,cs),
(384,-228,o),
(358,-200,o),
(358,-158,cs),
(358,-99,o),
(410,-44,o),
(466,0,c),
(358,0,l),
(285,-65,o),
(262,-120,o),
(262,-168,cs),
(262,-253,o),
(334,-312,o),
(421,-312,cs)
);
}
);
};
guides = (
{
angle = 90;
pos = (400,39);
}
);
hints = (
{
horizontal = 1;
origin = (0,30);
target = (0,0);
type = Stem;
},
{
horizontal = 1;
origin = (0,24);
target = (0,15);
type = Stem;
},
{
horizontal = 1;
origin = (0,20);
target = down;
type = TopGhost;
},
{
origin = (0,21);
target = (0,18);
type = Stem;
},
{
origin = (0,27);
target = (0,3);
type = Stem;
},
{
origin = (0,12);
target = (0,9);
type = Stem;
}
);
layerId = "3E87E8DA-1F15-4738-9454-A2AB4CEA57DC";
shapes = (
{
closed = 1;
nodes = (
(507,-219,l),
(456,-219,o),
(420,-195,o),
(420,-134,cs),
(420,-84,o),
(442,-47,o),
(478,-3,c),
(606,28,o),
(692,138,o),
(692,287,cs),
(692,900,l),
(582,900,l),
(582,283,ls),
(582,168,o),
(505,90,o),
(402,90,cs),
(298,90,o),
(222,168,o),
(222,287,cs),
(222,900,l),
(108,900,l),
(108,283,ls),
(108,119,o),
(216,2,o),
(371,-11,c),
(330,-72,o),
(320,-114,o),
(320,-153,cs),
(320,-254,o),
(398,-312,o),
(485,-312,c)
);
}
);
width = 800;
},
{
background = {
shapes = (
{
closed = 1;
nodes = (
(571,-12,o),
(692,110,o),
(692,287,cs),
(692,900,l),
(577,900,l),
(577,283,ls),
(577,168,o),
(502,90,o),
(400,90,cs),
(297,90,o),
(223,168,o),
(223,287,cs),
(223,900,l),
(108,900,l),
(108,283,ls),
(108,109,o),
(230,-12,o),
(400,-12,cs)
);
},
{
closed = 1;
nodes = (
(464,-312,o),
(504,-299,o),
(532,-277,c),
(508,-180,l),
(493,-205,o),
(469,-228,o),
(429,-228,cs),
(384,-228,o),
(358,-200,o),
(358,-158,cs),
(358,-99,o),
(410,-44,o),
(466,0,c),
(358,0,l),
(285,-65,o),
(262,-120,o),
(262,-168,cs),
(262,-253,o),
(334,-312,o),
(421,-312,cs)
);
}
);
};
guides = (
{
angle = 90;
pos = (400,39);
}
);
layerId = "5864D40E-51E2-4FDD-96DA-51B6D988DC78";
shapes = (
{
closed = 1;
nodes = (
(526,-190,l),
(480,-189,o),
(445,-166,o),
(445,-116,cs),
(445,-78,o),
(466,-45,o),
(496,-10,c),
(636,25,o),
(728,137,o),
(728,306,cs),
(728,900,l),
(548,900,l),
(548,306,ls),
(548,213,o),
(487,153,o),
(403,153,cs),
(318,153,o),
(258,215,o),
(258,312,cs),
(258,900,l),
(72,900,l),
(72,303,ls),
(72,123,o),
(182,6,o),
(340,-17,c),
(302,-77,o),
(295,-118,o),
(295,-153,cs),
(295,-266,o),
(380,-318,o),
(496,-318,c)
);
}
);
width = 800;
}
);
unicode = 370;
},
{
glyphname = V;
kernLeft = V;
kernRight = V;
lastChange = "2023-10-12 14:03:48 +0000";
layers = (
{
guides = (
{
angle = 180;
pos = (391,578);
},
{
angle = 90;
pos = (394,960);
},
{
pos = (397,382);
}
);
hints = (
{
horizontal = 1;
origin = (0,11);
target = down;
type = TopGhost;
},
{
horizontal = 1;
origin = (0,12);
target = up;
type = BottomGhost;
}
);
layerId = "3E87E8DA-1F15-4738-9454-A2AB4CEA57DC";
shapes = (
{
closed = 1;
nodes = (
(376,-30,l),
(738,900,l),
(625,900,l),
(414,358,ls),
(401,323,o),
(390,295,o),
(379,254,c),
(368,295,o),
(357,323,o),
(344,358,cs),
(132,900,l),
(12,900,l),
(374,-30,l)
);
}
);
width = 750;
},
{
guides = (
{
angle = 180;
pos = (401,578);
},
{
angle = 90;
pos = (404,960);
},
{
pos = (407,382);
},
{
angle = -67.8708;
pos = (187,900);
}
);
layerId = "5864D40E-51E2-4FDD-96DA-51B6D988DC78";
shapes = (
{
closed = 1;
nodes = (
(386,-30,l),
(764,900,l),
(583,900,l),
(436,530,ls),
(418,485,o),
(403,450,o),
(390,404,c),
(375,452,o),
(359,488,o),
(343,530,cs),
(196,900,l),
(6,900,l),
(384,-30,l)
);
}
);
width = 770;
}
);
unicode = 86;
},
{
glyphname = W;
kernLeft = V;
kernRight = V;
lastChange = "2023-10-12 14:03:48 +0000";
layers = (
{
anchors = (
{
name = bottom;
pos = (601,0);
},
{
name = top;
pos = (604,900);
}
);
background = {
shapes = (
{
closed = 1;
nodes = (
(637,754,l),
(603,948,l),
(321,171,l),
(353,-34,l)
);
},
{
closed = 1;
nodes = (
(129,914,l),
(11,914,l),
(353,-34,l),
(397,171,l)
);
},
{
closed = 1;
nodes = (
(1188,914,l),
(1077,914,l),
(808,171,l),
(846,-34,l)
);
},
{
closed = 1;
nodes = (
(603,948,l),
(563,754,l),
(846,-34,l),
(884,171,l)
);
}
);
};
guides = (
{
angle = 180;
pos = (374,578);
},
{
angle = 90;
pos = (377,960);
},
{
pos = (380,382);
},
{
pos = (620,996);
},
{
pos = (663,592);
}
);
hints = (
{
horizontal = 1;
origin = (0,26);
target = down;
type = TopGhost;
},
{
horizontal = 1;
origin = (0,27);
target = up;
type = BottomGhost;
}
);
layerId = "3E87E8DA-1F15-4738-9454-A2AB4CEA57DC";
shapes = (
{
closed = 1;
nodes = (
(568,554,ls),
(580,588,o),
(590,616,o),
(601,667,c),
(611,616,o),
(622,588,o),
(634,554,cs),
(842,-30,l),
(1188,900,l),
(1080,900,l),
(876,360,ls),
(863,326,o),
(853,297,o),
(842,246,c),
(832,297,o),
(821,326,o),
(809,360,cs),
(604,930,l),
(398,360,ls),
(384,322,o),
(375,293,o),
(365,246,c),
(354,293,o),
(346,322,o),
(332,360,cs),
(128,900,l),
(12,900,l),
(359,-30,l)
);
}
);
width = 1200;
},
{
anchors = (
{
name = bottom;
pos = (611,0);
},
{
name = top;
pos = (614,900);
}
);
background = {
shapes = (
{
closed = 1;
nodes = (
(578,554,ls),
(590,588,o),
(600,616,o),
(611,667,c),
(621,616,o),
(632,588,o),
(644,554,cs),
(852,-30,l),
(1198,900,l),
(1090,900,l),
(886,360,ls),
(873,326,o),
(863,297,o),
(852,246,c),
(842,297,o),
(831,326,o),
(819,360,cs),
(614,930,l),
(408,360,ls),
(394,322,o),
(385,293,o),
(375,246,c),
(364,293,o),
(356,322,o),
(342,360,cs),
(138,900,l),
(22,900,l),
(369,-30,l)
);
}
);
};
guides = (
{
angle = 180;
pos = (610,413);
},
{
angle = 90;
pos = (387,960);
},
{
pos = (390,382);
},
{
pos = (630,996);
},
{
angle = -68.6665;
pos = (206,900);
},
{
angle = 245.5907;
pos = (380,-32);
},
{
angle = 247.3876;
pos = (380,-32);
}
);
layerId = "5864D40E-51E2-4FDD-96DA-51B6D988DC78";
shapes = (
{
closed = 1;
nodes = (
(562,413,ls),
(577,449,o),
(593,485,o),
(610,541,c),
(627,485,o),
(643,448,o),
(658,412,cs),
(844,-32,l),
(1214,900,l),
(1033,900,l),
(883,516,ls),
(869,480,o),
(855,444,o),
(838,388,c),
(821,444,o),
(803,480,o),
(788,516,cs),
(614,930,l),
(442,516,ls),
(427,480,o),
(410,444,o),
(393,388,c),
(376,444,o),
(362,480,o),
(348,516,cs),
(196,900,l),
(6,900,l),
(376,-32,l)
);
}
);
width = 1220;
}
);
unicode = 87;
},
{
glyphname = X;
kernLeft = X;
kernRight = K;
lastChange = "2023-10-12 14:03:48 +0000";
layers = (
{
background = {
shapes = (
{
closed = 1;
nodes = (
(725,0,l),
(864,0,l),
(247,900,l),
(108,900,l)
);
},
{
closed = 1;
nodes = (
(629,900,l),
(6,0,l),
(139,0,l),
(762,900,l)
);
}
);
};
guides = (
{
pos = (395,626);
}
);
hints = (
{
horizontal = 1;
origin = (0,23);
target = up;
type = BottomGhost;
},
{
horizontal = 1;
origin = (0,21);
target = down;
type = TopGhost;
}
);
layerId = "3E87E8DA-1F15-4738-9454-A2AB4CEA57DC";
shapes = (
{
closed = 1;
nodes = (
(139,0,l),
(343,300,ls),
(371,342,o),
(400,383,o),
(433,446,c),
(466,383,o),
(495,342,o),
(523,300,cs),
(725,0,l),
(864,0,l),
(503,526,l),
(762,900,l),
(633,900,l),
(510,720,ls),
(484,683,o),
(461,645,o),
(437,597,c),
(413,645,o),
(389,683,o),
(364,720,cs),
(243,900,l),
(108,900,l),
(367,522,l),
(6,0,l)
);
}
);
width = 870;
},
{
background = {
shapes = (
{
closed = 1;
nodes = (
(725,0,l),
(864,0,l),
(247,900,l),
(108,900,l)
);
},
{
closed = 1;
nodes = (
(629,900,l),
(6,0,l),
(139,0,l),
(762,900,l)
);
}
);
};
guides = (
{
pos = (435,267);
},
{
pos = (435,778);
}
);
layerId = "5864D40E-51E2-4FDD-96DA-51B6D988DC78";
shapes = (
{
closed = 1;
nodes = (
(209,0,l),
(368,270,ls),
(390,307,o),
(410,346,o),
(435,393,c),
(460,346,o),
(480,307,o),
(502,270,cs),
(661,0,l),
(870,0,l),
(562,522,l),
(792,900,l),
(596,900,l),
(516,774,ls),
(491,735,o),
(468,694,o),
(440,633,c),
(411,693,o),
(387,734,o),
(363,773,cs),
(284,900,l),
(78,900,l),
(311,517,l),
(6,0,l)
);
}
);
width = 870;
}
);
unicode = 88;
},
{
glyphname = Y;
kernLeft = Y;
kernRight = Y;
lastChange = "2023-10-12 14:03:48 +0000";
layers = (
{
anchors = (
{
name = bottom;
pos = (346,0);
},
{
name = top;
pos = (346,900);
},
{
name = topleft;
pos = (23,900);
}
);
background = {
shapes = (
{
closed = 1;
nodes = (
(403,0,l),
(403,396,l),
(649,914,l),
(528,914,l),
(388,611,ls),
(364,560,o),
(353,525,o),
(333,440,c),
(364,440,l),
(344,525,o),
(333,560,o),
(310,611,cs),
(169,914,l),
(43,913,l),
(289,396,l),
(289,0,l)
);
}
);
};
hints = (
{
horizontal = 1;
origin = (0,14);
target = up;
type = BottomGhost;
},
{
horizontal = 1;
origin = (0,12);
target = down;
type = TopGhost;
},
{
origin = (0,14);
target = (0,0);
type = Stem;
}
);
layerId = "3E87E8DA-1F15-4738-9454-A2AB4CEA57DC";
shapes = (
{
closed = 1;
nodes = (
(402,0,l),
(402,435,l),
(672,900,l),
(552,900,l),
(403,638,ls),
(384,604,o),
(367,574,o),
(350,532,c),
(333,574,o),
(316,605,o),
(298,638,cs),
(150,900,l),
(18,900,l),
(288,435,l),
(288,0,l)
);
}
);
width = 690;
},
{
anchors = (
{
name = bottom;
pos = (356,0);
},
{
name = top;
pos = (356,900);
},
{
name = topleft;
pos = (33,900);
}
);
background = {
shapes = (
{
closed = 1;
nodes = (
(412,0,l),
(412,435,l),
(682,900,l),
(562,900,l),
(413,638,ls),
(386,590,o),
(364,550,o),
(338,472,c),
(382,471,l),
(357,549,o),
(334,591,o),
(308,638,cs),
(160,900,l),
(28,900,l),
(298,435,l),
(298,0,l)
);
}
);
};
guides = (
{
angle = -62.3116;
pos = (16,900);
},
{
angle = 240.373;
pos = (448,769);
}
);
layerId = "5864D40E-51E2-4FDD-96DA-51B6D988DC78";
shapes = (
{
closed = 1;
nodes = (
(445,0,l),
(445,426,l),
(704,900,l),
(514,900,l),
(407,698,ls),
(391,668,o),
(376,641,o),
(360,600,c),
(345,641,o),
(329,669,o),
(314,698,cs),
(208,900,l),
(6,900,l),
(265,426,l),
(265,0,l)
);
}
);
width = 710;
}
);
unicode = 89;
},
{
glyphname = Z;
kernLeft = Z;
kernRight = Z;
lastChange = "2023-10-12 14:03:48 +0000";
layers = (
{
anchors = (
{
name = bottom;
pos = (315,0);
},
{
name = center;
pos = (324,450);
},
{
name = top;
pos = (345,900);
}
);
background = {
shapes = (
{
closed = 1;
nodes = (
(170,0,l),
(615,900,l),
(16,900,l),
(16,798,l),
(475,798,l),
(459,825,l),
(48,0,l)
);
}
);
};
guides = (
{
angle = 243.3872;
pos = (470,480);
}
);
hints = (
{
horizontal = 1;
origin = (0,7);
target = (0,2);
type = Stem;
},
{
horizontal = 1;
origin = (0,4);
target = (0,5);
type = Stem;
}
);
layerId = "3E87E8DA-1F15-4738-9454-A2AB4CEA57DC";
shapes = (
{
closed = 1;
nodes = (
(588,0,l),
(588,102,l),
(211,102,l),
(606,900,l),
(84,900,l),
(84,798,l),
(437,798,l),
(42,0,l)
);
}
);
width = 660;
},
{
anchors = (
{
name = bottom;
pos = (324,0);
},
{
name = center;
pos = (333,450);
},
{
name = top;
pos = (354,900);
}
);
background = {
shapes = (
{
closed = 1;
nodes = (
(179,0,l),
(624,900,l),
(25,900,l),
(25,798,l),
(484,798,l),
(468,825,l),
(57,0,l)
);
}
);
};
guides = (
{
angle = 243.3872;
pos = (479,480);
},
{
angle = 243.6526;
pos = (233,422);
},
{
angle = 63.6526;
pos = (452,506);
}
);
layerId = "5864D40E-51E2-4FDD-96DA-51B6D988DC78";
shapes = (
{
closed = 1;
nodes = (
(629,0,l),
(629,162,l),
(283,162,l),
(650,900,l),
(63,900,l),
(63,738,l),
(385,738,l),
(18,0,l)
);
}
);
width = 680;
}
);
unicode = 90;
},
{
export = 0;
glyphname = Aring.ss05;
kernLeft = A;
kernRight = A;
lastChange = "2023-10-12 14:03:48 +0000";
layers = (
{
background = {
shapes = (
{
closed = 1;
nodes = (
(128,516,o),
(165,553,o),
(165,600,cs),
(165,646,o),
(128,684,o),
(81,684,cs),
(35,684,o),
(-3,646,o),
(-3,600,cs),
(-3,553,o),
(35,516,o),
(81,516,cs)
);
},
{
closed = 1;
nodes = (
(226,756,o),
(263,793,o),
(263,840,cs),
(263,886,o),
(226,924,o),
(179,924,cs),
(133,924,o),
(95,886,o),
(95,840,cs),
(95,793,o),
(133,756,o),
(179,756,cs)
);
}
);
};
layerId = "5864D40E-51E2-4FDD-96DA-51B6D988DC78";
shapes = (
{
ref = A;
},
{
pos = (-230,180);
ref = ringcomb.A.vertical;
}
);
width = 820;
},
{
associatedMasterId = "5864D40E-51E2-4FDD-96DA-51B6D988DC78";
background = {
shapes = (
{
closed = 1;
nodes = (
(128,516,o),
(165,553,o),
(165,600,cs),
(165,646,o),
(128,684,o),
(81,684,cs),
(35,684,o),
(-3,646,o),
(-3,600,cs),
(-3,553,o),
(35,516,o),
(81,516,cs)
);
},
{
closed = 1;
nodes = (
(226,756,o),
(263,793,o),
(263,840,cs),
(263,886,o),
(226,924,o),
(179,924,cs),
(133,924,o),
(95,886,o),
(95,840,cs),
(95,793,o),
(133,756,o),
(179,756,cs)
);
}
);
};
layerId = "7968BB95-2FC0-4B1E-9837-F689418B717D";
name = "16 Jun 23, 18:37";
shapes = (
{
closed = 1;
nodes = (
(187,0,l),
(254,160,l),
(560,160,l),
(627,0,l),
(808,0,l),
(411,932,l),
(409,932,l),
(368,835,l),
(337,868,o),
(292,888,o),
(243,888,cs),
(148,888,o),
(72,815,o),
(72,720,cs),
(72,627,o),
(144,555,o),
(240,552,cs),
(247,552,l),
(12,0,l)
);
},
{
closed = 1;
nodes = (
(353,396,ls),
(374,445,o),
(391,488,o),
(406,548,c),
(422,487,o),
(440,445,o),
(461,396,cs),
(500,304,l),
(314,304,l)
);
},
{
closed = 1;
nodes = (
(205,651,o),
(174,682,o),
(174,720,cs),
(174,757,o),
(205,789,o),
(243,789,cs),
(280,789,o),
(312,757,o),
(312,720,cs),
(312,682,o),
(280,651,o),
(243,651,cs)
);
}
);
width = 820;
},
{
background = {
guides = (
{
angle = 255.4655;
pos = (120,720);
}
);
shapes = (
{
closed = 1;
nodes = (
(110,531,o),
(140,561,o),
(140,600,cs),
(140,638,o),
(110,669,o),
(71,669,cs),
(33,669,o),
(2,638,o),
(2,600,cs),
(2,561,o),
(33,531,o),
(71,531,cs)
);
},
{
closed = 1;
nodes = (
(208,771,o),
(238,801,o),
(238,840,cs),
(238,878,o),
(208,909,o),
(169,909,cs),
(131,909,o),
(100,878,o),
(100,840,cs),
(100,801,o),
(131,771,o),
(169,771,cs)
);
}
);
};
layerId = "3E87E8DA-1F15-4738-9454-A2AB4CEA57DC";
name = Regular;
shapes = (
{
ref = A;
},
{
pos = (-240,180);
ref = ringcomb.A.vertical;
}
);
width = 800;
},
{
associatedMasterId = "3E87E8DA-1F15-4738-9454-A2AB4CEA57DC";
background = {
guides = (
{
angle = 255.4655;
pos = (120,720);
}
);
shapes = (
{
closed = 1;
nodes = (
(110,531,o),
(140,561,o),
(140,600,cs),
(140,638,o),
(110,669,o),
(71,669,cs),
(33,669,o),
(2,638,o),
(2,600,cs),
(2,561,o),
(33,531,o),
(71,531,cs)
);
},
{
closed = 1;
nodes = (
(208,771,o),
(238,801,o),
(238,840,cs),
(238,878,o),
(208,909,o),
(169,909,cs),
(131,909,o),
(100,878,o),
(100,840,cs),
(100,801,o),
(131,771,o),
(169,771,cs)
);
}
);
};
layerId = "5EC7D0D9-B2CB-4F9D-ABDB-C156161542FD";
name = "16 Jun 23, 18:38";
shapes = (
{
closed = 1;
nodes = (
(133,0,l),
(240,267,l),
(555,267,l),
(661,0,l),
(782,0,l),
(401,930,l),
(399,930,l),
(352,815,l),
(323,852,o),
(276,876,o),
(225,876,cs),
(137,876,o),
(66,808,o),
(66,720,cs),
(66,632,o),
(137,564,o),
(231,564,cs),
(249,564,l),
(18,0,l)
);
},
{
closed = 1;
nodes = (
(349,540,ls),
(367,586,o),
(381,624,o),
(397,686,c),
(413,624,o),
(428,585,o),
(446,540,cs),
(517,362,l),
(278,362,l)
);
},
{
closed = 1;
nodes = (
(179,636,o),
(141,674,o),
(141,720,cs),
(141,765,o),
(179,804,o),
(225,804,cs),
(270,804,o),
(309,765,o),
(309,720,cs),
(309,674,o),
(270,636,o),
(225,636,cs)
);
}
);
width = 800;
},
{
associatedMasterId = "3E87E8DA-1F15-4738-9454-A2AB4CEA57DC";
background = {
guides = (
{
angle = 255.4655;
pos = (120,720);
}
);
shapes = (
{
closed = 1;
nodes = (
(110,531,o),
(140,561,o),
(140,600,cs),
(140,638,o),
(110,669,o),
(71,669,cs),
(33,669,o),
(2,638,o),
(2,600,cs),
(2,561,o),
(33,531,o),
(71,531,cs)
);
},
{
closed = 1;
nodes = (
(208,771,o),
(238,801,o),
(238,840,cs),
(238,878,o),
(208,909,o),
(169,909,cs),
(131,909,o),
(100,878,o),
(100,840,cs),
(100,801,o),
(131,771,o),
(169,771,cs)
);
}
);
};
layerId = "B6D26B29-613F-4011-931A-1CE3FBBDCC1E";
name = "18 Jun 23, 21:55";
shapes = (
{
closed = 1;
nodes = (
(133,0,l),
(240,267,l),
(555,267,l),
(661,0,l),
(782,0,l),
(426,860,ls),
(383,964,o),
(323,980,o),
(272,980,cs),
(184,980,o),
(113,912,o),
(113,824,cs),
(113,736,o),
(184,668,o),
(278,668,cs),
(296,668,l),
(18,0,l)
);
},
{
closed = 1;
nodes = (
(349,540,ls),
(367,586,o),
(381,624,o),
(397,686,c),
(413,624,o),
(428,585,o),
(446,540,cs),
(517,362,l),
(278,362,l)
);
},
{
closed = 1;
nodes = (
(226,740,o),
(188,778,o),
(188,824,cs),
(188,869,o),
(226,908,o),
(272,908,cs),
(317,908,o),
(356,869,o),
(356,824,cs),
(356,778,o),
(317,740,o),
(272,740,cs)
);
}
);
width = 800;
},
{
associatedMasterId = "5864D40E-51E2-4FDD-96DA-51B6D988DC78";
background = {
shapes = (
{
closed = 1;
nodes = (
(128,516,o),
(165,553,o),
(165,600,cs),
(165,646,o),
(128,684,o),
(81,684,cs),
(35,684,o),
(-3,646,o),
(-3,600,cs),
(-3,553,o),
(35,516,o),
(81,516,cs)
);
},
{
closed = 1;
nodes = (
(226,756,o),
(263,793,o),
(263,840,cs),
(263,886,o),
(226,924,o),
(179,924,cs),
(133,924,o),
(95,886,o),
(95,840,cs),
(95,793,o),
(133,756,o),
(179,756,cs)
);
}
);
};
layerId = "889FF3D2-5D6C-4F64-B330-896CD56783B4";
name = "18 Jun 23, 21:55";
shapes = (
{
closed = 1;
nodes = (
(187,0,l),
(254,160,l),
(560,160,l),
(627,0,l),
(808,0,l),
(436,868,ls),
(392,970,o),
(333,980,o),
(284,980,cs),
(189,980,o),
(113,907,o),
(113,812,cs),
(113,719,o),
(185,647,o),
(281,644,cs),
(288,644,l),
(12,0,l)
);
},
{
closed = 1;
nodes = (
(353,396,ls),
(374,445,o),
(391,488,o),
(406,548,c),
(422,487,o),
(440,445,o),
(461,396,cs),
(500,304,l),
(314,304,l)
);
},
{
closed = 1;
nodes = (
(246,743,o),
(215,774,o),
(215,812,cs),
(215,849,o),
(246,881,o),
(284,881,cs),
(321,881,o),
(353,849,o),
(353,812,cs),
(353,774,o),
(321,743,o),
(284,743,cs)
);
}
);
width = 820;
}
);
sortName = Aring02;
sortNameKeep = Aring.ss05;
},
{
export = 0;
glyphname = H.bar;
kernLeft = B;
kernRight = H;
lastChange = "2023-10-12 14:03:48 +0000";
layers = (
{
associatedMasterId = "3E87E8DA-1F15-4738-9454-A2AB4CEA57DC";
background = {
shapes = (
{
closed = 1;
nodes = (
(470,114,o),
(552,196,o),
(552,298,cs),
(552,400,o),
(470,482,o),
(368,482,cs),
(267,482,o),
(185,400,o),
(185,298,cs),
(185,196,o),
(267,114,o),
(368,114,cs)
);
},
{
closed = 1;
nodes = (
(533,0,o),
(666,133,o),
(666,298,cs),
(666,463,o),
(533,596,o),
(368,596,cs),
(204,596,o),
(70,463,o),
(70,298,cs),
(70,133,o),
(204,0,o),
(368,0,cs)
);
},
{
closed = 1;
nodes = (
(425,596,o),
(470,642,o),
(470,698,cs),
(470,754,o),
(425,800,o),
(368,800,cs),
(312,800,o),
(267,754,o),
(267,698,cs),
(267,642,o),
(312,596,o),
(368,596,cs)
);
},
{
closed = 1;
nodes = (
(487,482,o),
(585,579,o),
(585,698,cs),
(585,817,o),
(487,914,o),
(368,914,cs),
(249,914,o),
(152,817,o),
(152,698,cs),
(152,579,o),
(249,482,o),
(368,482,cs)
);
}
);
};
guides = (
{
angle = 180;
pos = (387,578);
}
);
layerId = "0B083BE2-57EA-414F-9366-627905A9C933";
name = "Mar 20 17, 10:15";
shapes = (
{
closed = 1;
nodes = (
(229,0,l),
(229,914,l),
(114,914,l),
(114,0,l)
);
},
{
closed = 1;
nodes = (
(742,434,l),
(742,537,l),
(167,537,l),
(167,434,l)
);
},
{
closed = 1;
nodes = (
(800,0,l),
(800,914,l),
(686,914,l),
(686,0,l)
);
}
);
width = 914;
},
{
anchors = (
{
name = bottom;
pos = (400,0);
},
{
name = center;
pos = (400,720);
},
{
name = top;
pos = (400,900);
},
{
name = topleft;
pos = (126,900);
}
);
background = {
shapes = (
{
closed = 1;
nodes = (
(499,114,o),
(581,196,o),
(581,298,cs),
(581,400,o),
(499,482,o),
(397,482,cs),
(295,482,o),
(213,400,o),
(213,298,cs),
(213,196,o),
(295,114,o),
(397,114,cs)
);
},
{
closed = 1;
nodes = (
(562,0,o),
(695,133,o),
(695,298,cs),
(695,463,o),
(562,596,o),
(397,596,cs),
(232,596,o),
(99,463,o),
(99,298,cs),
(99,133,o),
(232,0,o),
(397,0,cs)
);
},
{
closed = 1;
nodes = (
(453,596,o),
(499,642,o),
(499,698,cs),
(499,754,o),
(453,800,o),
(397,800,cs),
(341,800,o),
(295,754,o),
(295,698,cs),
(295,642,o),
(341,596,o),
(397,596,cs)
);
},
{
closed = 1;
nodes = (
(516,482,o),
(613,579,o),
(613,698,cs),
(613,817,o),
(516,914,o),
(397,914,cs),
(278,914,o),
(181,817,o),
(181,698,cs),
(181,579,o),
(278,482,o),
(397,482,cs)
);
}
);
};
hints = (
{
horizontal = 1;
origin = (0,11);
target = up;
type = BottomGhost;
},
{
horizontal = 1;
origin = (0,1);
target = (0,8);
type = Stem;
},
{
horizontal = 1;
origin = (0,10);
target = down;
type = TopGhost;
},
{
origin = (0,11);
target = (0,0);
type = Stem;
},
{
origin = (0,3);
target = (0,4);
type = Stem;
}
);
layerId = "3E87E8DA-1F15-4738-9454-A2AB4CEA57DC";
shapes = (
{
closed = 1;
nodes = (
(240,0,l),
(240,444,l),
(560,444,l),
(560,0,l),
(674,0,l),
(674,900,l),
(560,900,l),
(560,546,l),
(240,546,l),
(240,900,l),
(126,900,l),
(126,0,l)
);
}
);
width = 800;
},
{
associatedMasterId = "5864D40E-51E2-4FDD-96DA-51B6D988DC78";
background = {
shapes = (
{
closed = 1;
nodes = (
(470,114,o),
(552,196,o),
(552,298,cs),
(552,400,o),
(470,482,o),
(368,482,cs),
(267,482,o),
(185,400,o),
(185,298,cs),
(185,196,o),
(267,114,o),
(368,114,cs)
);
},
{
closed = 1;
nodes = (
(533,0,o),
(666,133,o),
(666,298,cs),
(666,463,o),
(533,596,o),
(368,596,cs),
(204,596,o),
(70,463,o),
(70,298,cs),
(70,133,o),
(204,0,o),
(368,0,cs)
);
},
{
closed = 1;
nodes = (
(425,596,o),
(470,642,o),
(470,698,cs),
(470,754,o),
(425,800,o),
(368,800,cs),
(312,800,o),
(267,754,o),
(267,698,cs),
(267,642,o),
(312,596,o),
(368,596,cs)
);
},
{
closed = 1;
nodes = (
(487,482,o),
(585,579,o),
(585,698,cs),
(585,817,o),
(487,914,o),
(368,914,cs),
(249,914,o),
(152,817,o),
(152,698,cs),
(152,579,o),
(249,482,o),
(368,482,cs)
);
}
);
};
guides = (
{
angle = 180;
pos = (387,578);
}
);
layerId = "E71C188D-D825-4A1B-9F8E-CC603FF1A7C5";
name = "Mar 20 17, 10:15";
shapes = (
{
closed = 1;
nodes = (
(229,0,l),
(229,914,l),
(114,914,l),
(114,0,l)
);
},
{
closed = 1;
nodes = (
(742,434,l),
(742,537,l),
(167,537,l),
(167,434,l)
);
},
{
closed = 1;
nodes = (
(800,0,l),
(800,914,l),
(686,914,l),
(686,0,l)
);
}
);
width = 914;
},
{
anchors = (
{
name = bottom;
pos = (400,0);
},
{
name = center;
pos = (400,720);
},
{
name = top;
pos = (400,900);
},
{
name = topleft;
pos = (126,900);
}
);
background = {
shapes = (
{
closed = 1;
nodes = (
(499,114,o),
(581,196,o),
(581,298,cs),
(581,400,o),
(499,482,o),
(397,482,cs),
(295,482,o),
(213,400,o),
(213,298,cs),
(213,196,o),
(295,114,o),
(397,114,cs)
);
},
{
closed = 1;
nodes = (
(562,0,o),
(695,133,o),
(695,298,cs),
(695,463,o),
(562,596,o),
(397,596,cs),
(232,596,o),
(99,463,o),
(99,298,cs),
(99,133,o),
(232,0,o),
(397,0,cs)
);
},
{
closed = 1;
nodes = (
(453,596,o),
(499,642,o),
(499,698,cs),
(499,754,o),
(453,800,o),
(397,800,cs),
(341,800,o),
(295,754,o),
(295,698,cs),
(295,642,o),
(341,596,o),
(397,596,cs)
);
},
{
closed = 1;
nodes = (
(516,482,o),
(613,579,o),
(613,698,cs),
(613,817,o),
(516,914,o),
(397,914,cs),
(278,914,o),
(181,817,o),
(181,698,cs),
(181,579,o),
(278,482,o),
(397,482,cs)
);
}
);
};
guides = (
{
angle = 180;
pos = (417,578);
},
{
angle = 180;
pos = (240,750);
},
{
angle = 180;
pos = (240,495);
}
);
layerId = "5864D40E-51E2-4FDD-96DA-51B6D988DC78";
shapes = (
{
closed = 1;
nodes = (
(270,0,l),
(270,414,l),
(530,414,l),
(530,0,l),
(704,0,l),
(704,900,l),
(530,900,l),
(530,576,l),
(270,576,l),
(270,900,l),
(96,900,l),
(96,0,l)
);
}
);
width = 800;
}
);
},
{
export = 0;
glyphname = A.ring;
kernLeft = A;
kernRight = A;
lastChange = "2023-10-12 14:03:48 +0000";
layers = (
{
associatedMasterId = "3E87E8DA-1F15-4738-9454-A2AB4CEA57DC";
background = {
shapes = (
{
closed = 1;
nodes = (
(470,114,o),
(552,196,o),
(552,298,cs),
(552,400,o),
(470,482,o),
(368,482,cs),
(267,482,o),
(185,400,o),
(185,298,cs),
(185,196,o),
(267,114,o),
(368,114,cs)
);
},
{
closed = 1;
nodes = (
(533,0,o),
(666,133,o),
(666,298,cs),
(666,463,o),
(533,596,o),
(368,596,cs),
(204,596,o),
(70,463,o),
(70,298,cs),
(70,133,o),
(204,0,o),
(368,0,cs)
);
},
{
closed = 1;
nodes = (
(425,596,o),
(470,642,o),
(470,698,cs),
(470,754,o),
(425,800,o),
(368,800,cs),
(312,800,o),
(267,754,o),
(267,698,cs),
(267,642,o),
(312,596,o),
(368,596,cs)
);
},
{
closed = 1;
nodes = (
(487,482,o),
(585,579,o),
(585,698,cs),
(585,817,o),
(487,914,o),
(368,914,cs),
(249,914,o),
(152,817,o),
(152,698,cs),
(152,579,o),
(249,482,o),
(368,482,cs)
);
}
);
};
guides = (
{
angle = 180;
pos = (387,578);
},
{
angle = 90;
pos = (390,960);
}
);
layerId = "371D1437-C0E0-41D5-93C1-F65F3387C8DA";
name = "Jan 8 17, 21:42";
shapes = (
{
closed = 1;
nodes = (
(11,0,l),
(123,0,l),
(409,754,l),
(371,948,l)
);
},
{
closed = 1;
nodes = (
(178,329,l),
(559,329,l),
(559,427,l),
(178,427,l)
);
},
{
closed = 1;
nodes = (
(614,0,l),
(731,0,l),
(371,948,l),
(328,754,l)
);
}
);
width = 743;
},
{
anchors = (
{
name = top;
pos = (428,914);
}
);
associatedMasterId = "3E87E8DA-1F15-4738-9454-A2AB4CEA57DC";
background = {
shapes = (
{
closed = 1;
nodes = (
(235,272,l),
(616,272,l),
(616,369,l),
(235,369,l)
);
},
{
closed = 1;
nodes = (
(428,948,l),
(40,0,l),
(151,0,l),
(373,550,ls),
(391,596,o),
(409,636,o),
(426,699,c),
(442,636,o),
(460,596,o),
(478,550,cs),
(700,0,l),
(817,0,l)
);
}
);
};
guides = (
{
angle = 180;
pos = (447,578);
},
{
angle = 90;
pos = (450,960);
},
{
angle = -247.724;
pos = (735,0);
},
{
angle = 247.7241;
pos = (246,498);
},
{
angle = 247.7241;
pos = (159,0);
}
);
layerId = "2A282EA4-3796-486D-8FBA-32CB49DACD9E";
name = "Mar 20 17, 10:17";
shapes = (
{
closed = 1;
nodes = (
(157,0,l),
(267,272,l),
(585,272,l),
(694,0,l),
(817,0,l),
(435,931,l),
(422,931,l),
(40,0,l)
);
},
{
closed = 1;
nodes = (
(376,550,ls),
(394,596,o),
(409,636,o),
(426,699,c),
(442,636,o),
(457,596,o),
(475,550,cs),
(548,369,l),
(303,369,l)
);
}
);
width = 857;
},
{
anchors = (
{
name = top;
pos = (400,900);
}
);
hints = (
{
horizontal = 1;
origin = (0,7);
target = up;
type = BottomGhost;
},
{
horizontal = 1;
origin = (0,1);
target = (1,8);
type = Stem;
},
{
horizontal = 1;
origin = (0,6);
target = down;
type = TopGhost;
}
);
layerId = "3E87E8DA-1F15-4738-9454-A2AB4CEA57DC";
shapes = (
{
closed = 1;
nodes = (
(133,0,l),
(240,267,l),
(555,267,l),
(661,0,l),
(782,0,l),
(412,900,l),
(388,900,l),
(18,0,l)
);
},
{
closed = 1;
nodes = (
(349,540,ls),
(367,586,o),
(381,624,o),
(397,686,c),
(413,624,o),
(428,585,o),
(446,540,cs),
(517,362,l),
(278,362,l)
);
}
);
width = 800;
},
{
associatedMasterId = "5864D40E-51E2-4FDD-96DA-51B6D988DC78";
background = {
shapes = (
{
closed = 1;
nodes = (
(470,114,o),
(552,196,o),
(552,298,cs),
(552,400,o),
(470,482,o),
(368,482,cs),
(267,482,o),
(185,400,o),
(185,298,cs),
(185,196,o),
(267,114,o),
(368,114,cs)
);
},
{
closed = 1;
nodes = (
(533,0,o),
(666,133,o),
(666,298,cs),
(666,463,o),
(533,596,o),
(368,596,cs),
(204,596,o),
(70,463,o),
(70,298,cs),
(70,133,o),
(204,0,o),
(368,0,cs)
);
},
{
closed = 1;
nodes = (
(425,596,o),
(470,642,o),
(470,698,cs),
(470,754,o),
(425,800,o),
(368,800,cs),
(312,800,o),
(267,754,o),
(267,698,cs),
(267,642,o),
(312,596,o),
(368,596,cs)
);
},
{
closed = 1;
nodes = (
(487,482,o),
(585,579,o),
(585,698,cs),
(585,817,o),
(487,914,o),
(368,914,cs),
(249,914,o),
(152,817,o),
(152,698,cs),
(152,579,o),
(249,482,o),
(368,482,cs)
);
}
);
};
guides = (
{
angle = 180;
pos = (387,578);
},
{
angle = 90;
pos = (390,960);
}
);
layerId = "D708639F-325F-40DD-9163-F52355AB4527";
name = "Jan 8 17, 21:42";
shapes = (
{
closed = 1;
nodes = (
(11,0,l),
(123,0,l),
(409,754,l),
(371,948,l)
);
},
{
closed = 1;
nodes = (
(178,329,l),
(559,329,l),
(559,427,l),
(178,427,l)
);
},
{
closed = 1;
nodes = (
(614,0,l),
(731,0,l),
(371,948,l),
(328,754,l)
);
}
);
width = 743;
},
{
anchors = (
{
name = top;
pos = (428,914);
}
);
associatedMasterId = "5864D40E-51E2-4FDD-96DA-51B6D988DC78";
background = {
shapes = (
{
closed = 1;
nodes = (
(235,272,l),
(616,272,l),
(616,369,l),
(235,369,l)
);
},
{
closed = 1;
nodes = (
(428,948,l),
(40,0,l),
(151,0,l),
(373,550,ls),
(391,596,o),
(409,636,o),
(426,699,c),
(442,636,o),
(460,596,o),
(478,550,cs),
(700,0,l),
(817,0,l)
);
}
);
};
guides = (
{
angle = 180;
pos = (447,578);
},
{
angle = 90;
pos = (450,960);
},
{
angle = -247.724;
pos = (735,0);
},
{
angle = 247.7241;
pos = (246,498);
},
{
angle = 247.7241;
pos = (159,0);
}
);
layerId = "21299187-D0C1-4767-9C3B-66C5CB3718BA";
name = "Mar 20 17, 10:17";
shapes = (
{
closed = 1;
nodes = (
(157,0,l),
(267,272,l),
(585,272,l),
(694,0,l),
(817,0,l),
(435,931,l),
(422,931,l),
(40,0,l)
);
},
{
closed = 1;
nodes = (
(376,550,ls),
(394,596,o),
(409,636,o),
(426,699,c),
(442,636,o),
(457,596,o),
(475,550,cs),
(548,369,l),
(303,369,l)
);
}
);
width = 857;
},
{
anchors = (
{
name = top;
pos = (410,900);
}
);
layerId = "5864D40E-51E2-4FDD-96DA-51B6D988DC78";
shapes = (
{
closed = 1;
nodes = (
(187,0,l),
(254,160,l),
(560,160,l),
(627,0,l),
(808,0,l),
(424,900,l),
(396,900,l),
(12,0,l)
);
},
{
closed = 1;
nodes = (
(353,396,ls),
(374,445,o),
(391,488,o),
(406,548,c),
(422,487,o),
(440,445,o),
(461,396,cs),
(500,304,l),
(314,304,l)
);
}
);
width = 820;
}
);
},
{
export = 0;
glyphname = G.stroke;
kernLeft = C;
kernRight = G;
lastChange = "2023-10-12 14:03:48 +0000";
layers = (
{
associatedMasterId = "3E87E8DA-1F15-4738-9454-A2AB4CEA57DC";
background = {
shapes = (
{
closed = 1;
nodes = (
(671,-17,o),
(845,157,o),
(845,371,cs),
(845,586,o),
(671,760,o),
(457,760,cs),
(243,760,o),
(69,586,o),
(69,371,cs),
(69,157,o),
(243,-17,o),
(457,-17,cs)
);
},
{
closed = 1;
nodes = (
(306,97,o),
(183,220,o),
(183,371,cs),
(183,523,o),
(306,646,o),
(457,646,cs),
(608,646,o),
(731,523,o),
(731,371,cs),
(731,220,o),
(608,97,o),
(457,97,cs)
);
}
);
};
guides = (
{
pos = (480,798);
}
);
layerId = "AF62CE23-FD84-4FD5-9DF8-CCC6436AC4C7";
name = "Regular Dec 28 16, 17:07";
shapes = (
{
closed = 1;
nodes = (
(671,-17,o),
(848,157,o),
(848,371,cs),
(848,586,o),
(671,760,o),
(457,760,cs),
(243,760,o),
(66,586,o),
(66,371,cs),
(66,157,o),
(243,-17,o),
(457,-17,cs)
);
},
{
closed = 1;
nodes = (
(306,97,o),
(186,220,o),
(186,371,cs),
(186,523,o),
(306,646,o),
(457,646,cs),
(608,646,o),
(728,523,o),
(728,371,cs),
(728,220,o),
(608,97,o),
(457,97,cs)
);
}
);
width = 914;
},
{
associatedMasterId = "3E87E8DA-1F15-4738-9454-A2AB4CEA57DC";
background = {
shapes = (
{
closed = 1;
nodes = (
(834,0,l),
(834,457,l),
(720,457,l),
(720,0,l)
);
}
);
};
guides = (
{
angle = 90;
pos = (816,960);
},
{
pos = (1005,480);
}
);
hints = (
{
horizontal = 1;
place = (-17,114);
type = Stem;
},
{
horizontal = 1;
origin = (0,4);
target = (0,26);
type = Stem;
},
{
origin = (0,7);
target = (0,23);
type = Stem;
},
{
place = (777,0);
type = Stem;
}
);
layerId = "10B94073-6B7A-4C01-9208-A2E56E122A60";
name = "Mar 20 17, 10:16";
shapes = (
{
closed = 1;
nodes = (
(777,743,l),
(777,864,l),
(707,903,o),
(627,925,o),
(542,925,cs),
(281,925,o),
(69,719,o),
(69,457,cs),
(69,195,o),
(280,-11,o),
(545,-11,cs),
(651,-11,o),
(754,17,o),
(834,74,c),
(834,457,l),
(720,457,l),
(720,97,l),
(776,173,l),
(714,122,o),
(632,97,o),
(546,97,cs),
(343,97,o),
(189,258,o),
(189,457,cs),
(189,656,o),
(344,817,o),
(543,817,cs),
(626,817,o),
(703,789,o),
(764,743,c)
);
}
);
width = 914;
},
{
anchors = (
{
name = bottom;
pos = (529,0);
},
{
name = center;
pos = (783,360);
},
{
name = top;
pos = (530,900);
}
);
background = {
shapes = (
{
closed = 1;
nodes = (
(790,-18,o),
(1000,191,o),
(1000,450,cs),
(1000,709,o),
(790,918,o),
(530,918,cs),
(270,918,o),
(60,709,o),
(60,450,cs),
(60,191,o),
(270,-18,o),
(530,-18,cs)
);
},
{
closed = 1;
nodes = (
(332,90,o),
(178,251,o),
(178,450,cs),
(178,649,o),
(332,810,o),
(530,810,cs),
(728,810,o),
(882,649,o),
(882,450,cs),
(882,251,o),
(728,90,o),
(530,90,cs)
);
}
);
};
guides = (
{
angle = 76.4717;
pos = (841,714);
},
{
angle = 90;
pos = (480,429);
}
);
hints = (
{
horizontal = 1;
options = 4;
origin = (0,27);
target = (0,4);
type = TTStem;
},
{
horizontal = 1;
options = 4;
origin = (0,27);
target = (0,8);
type = TTStem;
},
{
horizontal = 1;
options = 2;
origin = (0,3);
type = TTSnap;
},
{
options = 4;
origin = (0,18);
target = (0,11);
type = TTStem;
},
{
options = 4;
origin = (0,4);
target = (0,3);
type = TTStem;
},
{
horizontal = 1;
origin = (0,27);
target = (0,8);
type = Stem;
},
{
horizontal = 1;
origin = (0,21);
target = (0,14);
type = Stem;
},
{
origin = (0,24);
target = (0,11);
type = Stem;
},
{
origin = (0,5);
target = (0,2);
type = Stem;
},
{
horizontal = 1;
origin = (0,4);
target = down;
type = TopGhost;
}
);
layerId = "3E87E8DA-1F15-4738-9454-A2AB4CEA57DC";
shapes = (
{
closed = 1;
nodes = (
(645,-18,o),
(756,16,o),
(838,84,c),
(838,540,l),
(728,540,l),
(728,142,l),
(672,109,o),
(604,90,o),
(529,90,cs),
(330,90,o),
(178,254,o),
(178,450,cs),
(178,649,o),
(332,810,o),
(530,810,cs),
(655,810,o),
(763,745,o),
(825,647,c),
(858,785,l),
(773,867,o),
(658,918,o),
(530,918,cs),
(269,918,o),
(60,708,o),
(60,450,cs),
(60,192,o),
(268,-18,o),
(529,-18,cs)
);
}
);
width = 940;
},
{
associatedMasterId = "3E87E8DA-1F15-4738-9454-A2AB4CEA57DC";
background = {
shapes = (
{
closed = 1;
nodes = (
(805,-17,o),
(1017,195,o),
(1017,457,cs),
(1017,719,o),
(805,931,o),
(543,931,cs),
(281,931,o),
(69,719,o),
(69,457,cs),
(69,195,o),
(281,-17,o),
(543,-17,cs)
);
},
{
closed = 1;
nodes = (
(344,97,o),
(189,258,o),
(189,457,cs),
(189,656,o),
(344,817,o),
(543,817,cs),
(742,817,o),
(897,656,o),
(897,457,cs),
(897,258,o),
(742,97,o),
(543,97,cs)
);
}
);
};
guides = (
{
angle = 90;
pos = (816,960);
},
{
pos = (1005,480);
},
{
angle = 270;
pos = (876,279);
}
);
hints = (
{
horizontal = 1;
place = (-17,114);
type = Stem;
},
{
horizontal = 1;
origin = (0,16);
target = (0,9);
type = Stem;
},
{
origin = (0,19);
target = (0,6);
type = Stem;
},
{
origin = (0,27);
target = (0,26);
type = Stem;
},
{
horizontal = 1;
origin = (0,12);
target = up;
type = BottomGhost;
},
{
horizontal = 1;
options = 4;
origin = (0,16);
target = (0,9);
type = TTStem;
},
{
horizontal = 1;
options = 4;
origin = (0,22);
target = (0,3);
type = TTStem;
},
{
horizontal = 1;
options = 2;
origin = (0,27);
type = TTSnap;
},
{
options = 4;
origin = (0,19);
target = (0,6);
type = TTStem;
},
{
options = 4;
origin = (0,27);
target = (0,26);
type = TTStem;
}
);
layerId = "B0B13DAF-1722-425B-97FB-2D82B2851662";
name = "Oct 5 19, 11:35";
shapes = (
{
closed = 1;
nodes = (
(776,173,l),
(714,122,o),
(632,97,o),
(546,97,cs),
(343,97,o),
(189,258,o),
(189,457,cs),
(189,656,o),
(344,817,o),
(543,817,cs),
(633,817,o),
(715,784,o),
(777,728,c),
(777,864,l),
(707,903,o),
(627,925,o),
(542,925,cs),
(281,925,o),
(69,719,o),
(69,457,cs),
(69,195,o),
(280,-11,o),
(545,-11,cs),
(651,-11,o),
(754,17,o),
(834,74,c),
(834,457,l),
(720,457,l),
(720,97,l)
);
}
);
width = 914;
},
{
associatedMasterId = "3E87E8DA-1F15-4738-9454-A2AB4CEA57DC";
background = {
shapes = (
{
closed = 1;
nodes = (
(805,-17,o),
(1017,195,o),
(1017,457,cs),
(1017,719,o),
(805,931,o),
(543,931,cs),
(281,931,o),
(69,719,o),
(69,457,cs),
(69,195,o),
(281,-17,o),
(543,-17,cs)
);
},
{
closed = 1;
nodes = (
(344,97,o),
(189,258,o),
(189,457,cs),
(189,656,o),
(344,817,o),
(543,817,cs),
(742,817,o),
(897,656,o),
(897,457,cs),
(897,258,o),
(742,97,o),
(543,97,cs)
);
}
);
};
guides = (
{
angle = 90;
pos = (816,960);
},
{
pos = (1005,480);
},
{
angle = 270;
pos = (876,279);
},
{
pos = (510,493);
}
);
hints = (
{
horizontal = 1;
place = (-17,114);
type = Stem;
},
{
horizontal = 1;
origin = (0,17);
target = (0,16);
type = Stem;
},
{
origin = (0,26);
target = (0,13);
type = Stem;
},
{
origin = (0,6);
target = (0,3);
type = Stem;
},
{
horizontal = 1;
place = (728,21);
target = up;
type = BottomGhost;
},
{
horizontal = 1;
options = 4;
origin = (0,0);
target = (0,16);
type = TTStem;
},
{
horizontal = 1;
options = 4;
origin = (0,29);
target = (0,10);
type = TTStem;
},
{
horizontal = 1;
options = 2;
origin = (0,3);
type = TTSnap;
},
{
options = 4;
origin = (0,26);
target = (0,13);
type = TTStem;
},
{
options = 4;
origin = (0,6);
target = (0,3);
type = TTStem;
}
);
layerId = "2C272EB9-1EBD-4941-BDCC-941F883147A0";
name = "Aug 25 20, 11:54";
shapes = (
{
closed = 1;
nodes = (
(651,-11,o),
(754,17,o),
(834,74,c),
(834,521,l),
(486,521,l),
(486,418,l),
(720,418,l),
(720,136,l),
(668,110,o),
(608,97,o),
(546,97,cs),
(343,97,o),
(189,258,o),
(189,457,cs),
(189,656,o),
(344,817,o),
(543,817,cs),
(665,817,o),
(770,756,o),
(834,664,c),
(834,825,l),
(753,888,o),
(652,925,o),
(543,925,cs),
(281,925,o),
(69,719,o),
(69,457,cs),
(69,195,o),
(280,-11,o),
(545,-11,cs)
);
}
);
width = 943;
},
{
associatedMasterId = "3E87E8DA-1F15-4738-9454-A2AB4CEA57DC";
background = {
shapes = (
{
closed = 1;
nodes = (
(805,-17,o),
(1017,195,o),
(1017,457,cs),
(1017,719,o),
(805,931,o),
(543,931,cs),
(281,931,o),
(69,719,o),
(69,457,cs),
(69,195,o),
(281,-17,o),
(543,-17,cs)
);
},
{
closed = 1;
nodes = (
(344,97,o),
(189,258,o),
(189,457,cs),
(189,656,o),
(344,817,o),
(543,817,cs),
(742,817,o),
(897,656,o),
(897,457,cs),
(897,258,o),
(742,97,o),
(543,97,cs)
);
}
);
};
hints = (
{
horizontal = 1;
place = (-17,114);
type = Stem;
},
{
horizontal = 1;
place = (817,0);
type = Stem;
},
{
origin = (0,21);
target = (0,14);
type = Stem;
},
{
origin = (0,6);
target = (0,3);
type = Stem;
},
{
horizontal = 1;
place = (728,21);
target = up;
type = BottomGhost;
},
{
horizontal = 1;
options = 4;
origin = (0,0);
target = (0,4);
type = TTStem;
},
{
horizontal = 1;
options = 4;
origin = (0,30);
target = (0,11);
type = TTStem;
},
{
horizontal = 1;
options = 2;
origin = (0,3);
type = TTSnap;
},
{
options = 4;
origin = (0,21);
target = (0,14);
type = TTStem;
},
{
options = 4;
origin = (0,6);
target = (0,3);
type = TTStem;
}
);
layerId = "8F7E427F-5FDE-4BE0-A39E-5321D3018BE0";
name = "14 Dec 21, 10:52";
shapes = (
{
closed = 1;
nodes = (
(651,-17,o),
(754,11,o),
(834,69,c),
(834,521,l),
(486,521,l),
(486,418,l),
(724,418,l),
(724,79,l),
(748,147,l),
(691,110,o),
(621,91,o),
(546,91,cs),
(343,91,o),
(189,258,o),
(189,457,cs),
(189,659,o),
(345,823,o),
(546,823,cs),
(673,823,o),
(783,757,o),
(845,657,c),
(878,792,l),
(792,878,o),
(673,931,o),
(543,931,cs),
(281,931,o),
(69,719,o),
(69,457,cs),
(69,195,o),
(280,-17,o),
(545,-17,cs)
);
}
);
width = 943;
},
{
associatedMasterId = "5864D40E-51E2-4FDD-96DA-51B6D988DC78";
background = {
shapes = (
{
closed = 1;
nodes = (
(671,-17,o),
(845,157,o),
(845,371,cs),
(845,586,o),
(671,760,o),
(457,760,cs),
(243,760,o),
(69,586,o),
(69,371,cs),
(69,157,o),
(243,-17,o),
(457,-17,cs)
);
},
{
closed = 1;
nodes = (
(306,97,o),
(183,220,o),
(183,371,cs),
(183,523,o),
(306,646,o),
(457,646,cs),
(608,646,o),
(731,523,o),
(731,371,cs),
(731,220,o),
(608,97,o),
(457,97,cs)
);
}
);
};
guides = (
{
pos = (480,798);
}
);
layerId = "A3AF37AA-A49E-4AB2-A0F5-9B50D9BAF57E";
name = "Regular Dec 28 16, 17:07";
shapes = (
{
closed = 1;
nodes = (
(671,-17,o),
(848,157,o),
(848,371,cs),
(848,586,o),
(671,760,o),
(457,760,cs),
(243,760,o),
(66,586,o),
(66,371,cs),
(66,157,o),
(243,-17,o),
(457,-17,cs)
);
},
{
closed = 1;
nodes = (
(306,97,o),
(186,220,o),
(186,371,cs),
(186,523,o),
(306,646,o),
(457,646,cs),
(608,646,o),
(728,523,o),
(728,371,cs),
(728,220,o),
(608,97,o),
(457,97,cs)
);
}
);
width = 914;
},
{
associatedMasterId = "5864D40E-51E2-4FDD-96DA-51B6D988DC78";
background = {
shapes = (
{
closed = 1;
nodes = (
(834,0,l),
(834,457,l),
(720,457,l),
(720,0,l)
);
}
);
};
guides = (
{
angle = 90;
pos = (816,960);
},
{
pos = (1005,480);
}
);
hints = (
{
horizontal = 1;
place = (-17,114);
type = Stem;
},
{
horizontal = 1;
origin = (0,4);
target = (0,26);
type = Stem;
},
{
origin = (0,7);
target = (0,23);
type = Stem;
},
{
place = (777,0);
type = Stem;
}
);
layerId = "C8DAD4CF-123C-4587-BAB3-FBB9DE7C3C62";
name = "Mar 20 17, 10:16";
shapes = (
{
closed = 1;
nodes = (
(777,743,l),
(777,864,l),
(707,903,o),
(627,925,o),
(542,925,cs),
(281,925,o),
(69,719,o),
(69,457,cs),
(69,195,o),
(280,-11,o),
(545,-11,cs),
(651,-11,o),
(754,17,o),
(834,74,c),
(834,457,l),
(720,457,l),
(720,97,l),
(776,173,l),
(714,122,o),
(632,97,o),
(546,97,cs),
(343,97,o),
(189,258,o),
(189,457,cs),
(189,656,o),
(344,817,o),
(543,817,cs),
(626,817,o),
(703,789,o),
(764,743,c)
);
}
);
width = 914;
},
{
anchors = (
{
name = bottom;
pos = (529,0);
},
{
name = center;
pos = (783,372);
},
{
name = top;
pos = (530,900);
}
);
background = {
shapes = (
{
closed = 1;
nodes = (
(790,-18,o),
(1000,191,o),
(1000,450,cs),
(1000,709,o),
(790,918,o),
(530,918,cs),
(270,918,o),
(60,709,o),
(60,450,cs),
(60,191,o),
(270,-18,o),
(530,-18,cs)
);
},
{
closed = 1;
nodes = (
(332,90,o),
(178,251,o),
(178,450,cs),
(178,649,o),
(332,810,o),
(530,810,cs),
(728,810,o),
(882,649,o),
(882,450,cs),
(882,251,o),
(728,90,o),
(530,90,cs)
);
}
);
};
guides = (
{
angle = 76.4717;
pos = (841,714);
},
{
angle = 90;
pos = (480,429);
}
);
layerId = "5864D40E-51E2-4FDD-96DA-51B6D988DC78";
shapes = (
{
closed = 1;
nodes = (
(653,-18,o),
(757,14,o),
(840,67,c),
(840,540,l),
(676,540,l),
(676,180,l),
(638,159,o),
(592,148,o),
(537,148,cs),
(368,148,o),
(242,272,o),
(242,448,cs),
(242,620,o),
(368,748,o),
(538,748,cs),
(660,748,o),
(750,684,o),
(801,601,c),
(852,807,l),
(769,877,o),
(661,918,o),
(538,918,cs),
(267,918,o),
(54,716,o),
(54,448,cs),
(54,179,o),
(267,-18,o),
(540,-18,cs)
);
}
);
width = 920;
},
{
associatedMasterId = "5864D40E-51E2-4FDD-96DA-51B6D988DC78";
background = {
shapes = (
{
closed = 1;
nodes = (
(805,-17,o),
(1017,195,o),
(1017,457,cs),
(1017,719,o),
(805,931,o),
(543,931,cs),
(281,931,o),
(69,719,o),
(69,457,cs),
(69,195,o),
(281,-17,o),
(543,-17,cs)
);
},
{
closed = 1;
nodes = (
(344,97,o),
(189,258,o),
(189,457,cs),
(189,656,o),
(344,817,o),
(543,817,cs),
(742,817,o),
(897,656,o),
(897,457,cs),
(897,258,o),
(742,97,o),
(543,97,cs)
);
}
);
};
guides = (
{
angle = 90;
pos = (816,960);
},
{
pos = (1005,480);
},
{
angle = 270;
pos = (876,279);
}
);
hints = (
{
horizontal = 1;
place = (-17,114);
type = Stem;
},
{
horizontal = 1;
origin = (0,16);
target = (0,9);
type = Stem;
},
{
origin = (0,19);
target = (0,6);
type = Stem;
},
{
origin = (0,27);
target = (0,26);
type = Stem;
},
{
horizontal = 1;
origin = (0,12);
target = up;
type = BottomGhost;
},
{
horizontal = 1;
options = 4;
origin = (0,16);
target = (0,9);
type = TTStem;
},
{
horizontal = 1;
options = 4;
origin = (0,22);
target = (0,3);
type = TTStem;
},
{
horizontal = 1;
options = 2;
origin = (0,27);
type = TTSnap;
},
{
options = 4;
origin = (0,19);
target = (0,6);
type = TTStem;
},
{
options = 4;
origin = (0,27);
target = (0,26);
type = TTStem;
}
);
layerId = "69D2D6B0-97F4-42B7-9CC2-8135364BF025";
name = "Oct 5 19, 11:35";
shapes = (
{
closed = 1;
nodes = (
(776,173,l),
(714,122,o),
(632,97,o),
(546,97,cs),
(343,97,o),
(189,258,o),
(189,457,cs),
(189,656,o),
(344,817,o),
(543,817,cs),
(633,817,o),
(715,784,o),
(777,728,c),
(777,864,l),
(707,903,o),
(627,925,o),
(542,925,cs),
(281,925,o),
(69,719,o),
(69,457,cs),
(69,195,o),
(280,-11,o),
(545,-11,cs),
(651,-11,o),
(754,17,o),
(834,74,c),
(834,457,l),
(720,457,l),
(720,97,l)
);
}
);
width = 914;
},
{
associatedMasterId = "5864D40E-51E2-4FDD-96DA-51B6D988DC78";
background = {
shapes = (
{
closed = 1;
nodes = (
(805,-17,o),
(1017,195,o),
(1017,457,cs),
(1017,719,o),
(805,931,o),
(543,931,cs),
(281,931,o),
(69,719,o),
(69,457,cs),
(69,195,o),
(281,-17,o),
(543,-17,cs)
);
},
{
closed = 1;
nodes = (
(344,97,o),
(189,258,o),
(189,457,cs),
(189,656,o),
(344,817,o),
(543,817,cs),
(742,817,o),
(897,656,o),
(897,457,cs),
(897,258,o),
(742,97,o),
(543,97,cs)
);
}
);
};
guides = (
{
angle = 90;
pos = (816,960);
},
{
pos = (1005,480);
},
{
angle = 270;
pos = (876,279);
},
{
pos = (510,493);
}
);
hints = (
{
horizontal = 1;
place = (-17,114);
type = Stem;
},
{
horizontal = 1;
origin = (0,17);
target = (0,16);
type = Stem;
},
{
origin = (0,26);
target = (0,13);
type = Stem;
},
{
origin = (0,6);
target = (0,3);
type = Stem;
},
{
horizontal = 1;
place = (728,21);
target = up;
type = BottomGhost;
},
{
horizontal = 1;
options = 4;
origin = (0,0);
target = (0,16);
type = TTStem;
},
{
horizontal = 1;
options = 4;
origin = (0,29);
target = (0,10);
type = TTStem;
},
{
horizontal = 1;
options = 2;
origin = (0,3);
type = TTSnap;
},
{
options = 4;
origin = (0,26);
target = (0,13);
type = TTStem;
},
{
options = 4;
origin = (0,6);
target = (0,3);
type = TTStem;
}
);
layerId = "11C4B790-7E84-4658-90D6-BCC548B525AE";
name = "Aug 25 20, 11:54";
shapes = (
{
closed = 1;
nodes = (
(651,-11,o),
(754,17,o),
(834,74,c),
(834,521,l),
(486,521,l),
(486,418,l),
(720,418,l),
(720,136,l),
(668,110,o),
(608,97,o),
(546,97,cs),
(343,97,o),
(189,258,o),
(189,457,cs),
(189,656,o),
(344,817,o),
(543,817,cs),
(665,817,o),
(770,756,o),
(834,664,c),
(834,825,l),
(753,888,o),
(652,925,o),
(543,925,cs),
(281,925,o),
(69,719,o),
(69,457,cs),
(69,195,o),
(280,-11,o),
(545,-11,cs)
);
}
);
width = 943;
},
{
associatedMasterId = "5864D40E-51E2-4FDD-96DA-51B6D988DC78";
background = {
shapes = (
{
closed = 1;
nodes = (
(805,-17,o),
(1017,195,o),
(1017,457,cs),
(1017,719,o),
(805,931,o),
(543,931,cs),
(281,931,o),
(69,719,o),
(69,457,cs),
(69,195,o),
(281,-17,o),
(543,-17,cs)
);
},
{
closed = 1;
nodes = (
(344,97,o),
(189,258,o),
(189,457,cs),
(189,656,o),
(344,817,o),
(543,817,cs),
(742,817,o),
(897,656,o),
(897,457,cs),
(897,258,o),
(742,97,o),
(543,97,cs)
);
}
);
};
hints = (
{
horizontal = 1;
place = (-17,114);
type = Stem;
},
{
horizontal = 1;
place = (817,0);
type = Stem;
},
{
origin = (0,21);
target = (0,14);
type = Stem;
},
{
origin = (0,6);
target = (0,3);
type = Stem;
},
{
horizontal = 1;
place = (728,21);
target = up;
type = BottomGhost;
},
{
horizontal = 1;
options = 4;
origin = (0,0);
target = (0,4);
type = TTStem;
},
{
horizontal = 1;
options = 4;
origin = (0,30);
target = (0,11);
type = TTStem;
},
{
horizontal = 1;
options = 2;
origin = (0,3);
type = TTSnap;
},
{
options = 4;
origin = (0,21);
target = (0,14);
type = TTStem;
},
{
options = 4;
origin = (0,6);
target = (0,3);
type = TTStem;
}
);
layerId = "B788F165-ABD9-4558-AE11-E339A6747ED3";
name = "14 Dec 21, 10:52";
shapes = (
{
closed = 1;
nodes = (
(651,-17,o),
(754,11,o),
(834,69,c),
(834,521,l),
(486,521,l),
(486,418,l),
(724,418,l),
(724,79,l),
(748,147,l),
(691,110,o),
(621,91,o),
(546,91,cs),
(343,91,o),
(189,258,o),
(189,457,cs),
(189,659,o),
(345,823,o),
(546,823,cs),
(673,823,o),
(783,757,o),
(845,657,c),
(878,792,l),
(792,878,o),
(673,931,o),
(543,931,cs),
(281,931,o),
(69,719,o),
(69,457,cs),
(69,195,o),
(280,-17,o),
(545,-17,cs)
);
}
);
width = 943;
}
);
},
{
glyphname = a;
kernLeft = c;
kernRight = a;
lastChange = "2023-10-12 14:03:48 +0000";
layers = (
{
anchors = (
{
name = bottom;
pos = (371,0);
},
{
name = ogonek;
pos = (614,0);
},
{
name = top;
pos = (371,600);
}
);
background = {
guides = (
{
angle = 135;
pos = (390,313);
},
{
angle = 45;
pos = (390,313);
}
);
shapes = (
{
closed = 1;
nodes = (
(547,-11,o),
(689,128,o),
(689,300,cs),
(689,472,o),
(547,611,o),
(371,611,cs),
(195,611,o),
(53,472,o),
(53,300,cs),
(53,128,o),
(195,-11,o),
(371,-11,cs)
);
},
{
closed = 1;
nodes = (
(256,91,o),
(164,185,o),
(164,300,cs),
(164,415,o),
(256,508,o),
(371,508,cs),
(487,508,o),
(579,415,o),
(579,300,cs),
(579,185,o),
(487,91,o),
(371,91,cs)
);
}
);
};
guides = (
{
angle = 180;
pos = (387,578);
}
);
hints = (
{
horizontal = 1;
origin = (0,16);
target = (1,11);
type = Stem;
},
{
horizontal = 1;
origin = (0,10);
target = (1,5);
type = Stem;
},
{
horizontal = 1;
origin = (0,3);
target = up;
type = BottomGhost;
},
{
horizontal = 1;
origin = (0,6);
target = down;
type = TopGhost;
},
{
origin = (0,13);
target = (1,2);
type = Stem;
},
{
origin = (0,3);
target = (0,4);
type = Stem;
}
);
layerId = "3E87E8DA-1F15-4738-9454-A2AB4CEA57DC";
shapes = (
{
closed = 1;
nodes = (
(436,-8,o),
(510,25,o),
(564,79,c),
(564,0,l),
(664,0,l),
(664,600,l),
(564,600,l),
(564,521,l),
(510,575,o),
(436,608,o),
(353,608,cs),
(188,608,o),
(54,470,o),
(54,300,cs),
(54,130,o),
(188,-8,o),
(353,-8,cs)
);
},
{
closed = 1;
nodes = (
(253,90,o),
(162,184,o),
(162,300,cs),
(162,416,o),
(253,510,o),
(367,510,cs),
(481,510,o),
(572,416,o),
(572,300,cs),
(572,184,o),
(481,90,o),
(367,90,cs)
);
}
);
width = 760;
},
{
anchors = (
{
name = bottom;
pos = (350,0);
},
{
name = ogonek;
pos = (599,0);
},
{
name = top;
pos = (360,600);
}
);
background = {
guides = (
{
angle = 135;
pos = (372,313);
},
{
angle = 45;
pos = (372,313);
}
);
shapes = (
{
closed = 1;
nodes = (
(539,-20,o),
(684,123,o),
(684,300,cs),
(684,477,o),
(539,620,o),
(360,620,cs),
(181,620,o),
(36,477,o),
(36,300,cs),
(36,123,o),
(181,-20,o),
(360,-20,cs)
);
},
{
closed = 1;
nodes = (
(273,142,o),
(204,213,o),
(204,300,cs),
(204,387,o),
(273,458,o),
(360,458,cs),
(446,458,o),
(516,387,o),
(516,300,cs),
(516,213,o),
(446,142,o),
(360,142,cs)
);
}
);
};
guides = (
{
angle = 180;
pos = (369,578);
}
);
layerId = "5864D40E-51E2-4FDD-96DA-51B6D988DC78";
shapes = (
{
closed = 1;
nodes = (
(413,-16,o),
(478,13,o),
(524,61,c),
(524,0,l),
(674,0,l),
(674,600,l),
(524,600,l),
(524,539,l),
(478,587,o),
(413,616,o),
(336,616,cs),
(170,616,o),
(36,474,o),
(36,300,cs),
(36,126,o),
(170,-16,o),
(336,-16,cs)
);
},
{
closed = 1;
nodes = (
(269,137,o),
(198,210,o),
(198,300,cs),
(198,390,o),
(269,463,o),
(357,463,cs),
(445,463,o),
(516,390,o),
(516,300,cs),
(516,210,o),
(445,137,o),
(357,137,cs)
);
}
);
width = 740;
}
);
unicode = 97;
},
{
glyphname = aogonek;
kernLeft = c;
kernRight = a;
lastChange = "2023-10-12 14:03:48 +0000";
layers = (
{
background = {
shapes = (
{
closed = 1;
nodes = (
(691,-219,l),
(640,-219,o),
(604,-195,o),
(604,-122,c),
(664,0,l),
(664,600,l),
(564,600,l),
(564,450,l),
(602,475,l),
(549,555,o),
(458,608,o),
(353,608,cs),
(188,608,o),
(54,470,o),
(54,300,cs),
(54,130,o),
(188,-8,o),
(353,-8,cs),
(458,-8,o),
(549,45,o),
(602,125,c),
(564,150,l),
(564,0,l),
(504,-151,l),
(504,-255,o),
(582,-312,o),
(669,-312,c)
);
},
{
closed = 1;
nodes = (
(253,90,o),
(162,184,o),
(162,300,cs),
(162,416,o),
(253,510,o),
(367,510,cs),
(481,510,o),
(572,416,o),
(572,300,cs),
(572,184,o),
(481,90,o),
(367,90,cs)
);
}
);
};
guides = (
{
angle = 90;
pos = (614,0);
}
);
hints = (
{
horizontal = 1;
origin = (0,18);
target = (1,11);
type = Stem;
},
{
horizontal = 1;
origin = (0,12);
target = (1,5);
type = Stem;
},
{
horizontal = 1;
origin = (0,22);
target = up;
type = BottomGhost;
},
{
horizontal = 1;
origin = (0,8);
target = down;
type = TopGhost;
},
{
origin = (0,15);
target = (1,2);
type = Stem;
},
{
origin = (0,22);
target = (0,6);
type = Stem;
},
{
origin = (0,25);
target = (0,3);
type = Stem;
},
{
horizontal = 1;
origin = (0,28);
target = (0,0);
type = Stem;
}
);
layerId = "3E87E8DA-1F15-4738-9454-A2AB4CEA57DC";
shapes = (
{
closed = 1;
nodes = (
(691,-219,l),
(640,-219,o),
(604,-195,o),
(604,-134,cs),
(604,-83,o),
(627,-45,o),
(664,0,c),
(664,600,l),
(564,600,l),
(564,521,l),
(510,575,o),
(436,608,o),
(353,608,cs),
(188,608,o),
(54,470,o),
(54,300,cs),
(54,130,o),
(188,-8,o),
(353,-8,cs),
(436,-8,o),
(510,25,o),
(564,79,c),
(564,0,l),
(526,-50,o),
(504,-100,o),
(504,-153,cs),
(504,-254,o),
(582,-312,o),
(669,-312,c)
);
},
{
closed = 1;
nodes = (
(253,90,o),
(162,184,o),
(162,300,cs),
(162,416,o),
(253,510,o),
(367,510,cs),
(481,510,o),
(572,416,o),
(572,300,cs),
(572,184,o),
(481,90,o),
(367,90,cs)
);
}
);
width = 760;
},
{
anchors = (
{
name = bottom;
pos = (371,0);
},
{
name = top;
pos = (371,600);
}
);
associatedMasterId = "3E87E8DA-1F15-4738-9454-A2AB4CEA57DC";
background = {
shapes = (
{
closed = 1;
nodes = (
(458,-8,o),
(549,45,o),
(602,125,c),
(564,150,l),
(564,0,l),
(664,0,l),
(664,600,l),
(564,600,l),
(564,450,l),
(602,475,l),
(549,555,o),
(458,608,o),
(353,608,cs),
(188,608,o),
(54,470,o),
(54,300,cs),
(54,130,o),
(188,-8,o),
(353,-8,cs)
);
},
{
closed = 1;
nodes = (
(253,90,o),
(162,184,o),
(162,300,cs),
(162,416,o),
(253,510,o),
(367,510,cs),
(481,510,o),
(572,416,o),
(572,300,cs),
(572,184,o),
(481,90,o),
(367,90,cs)
);
},
{
closed = 1;
nodes = (
(668,-312,o),
(706,-299,o),
(734,-277,c),
(710,-180,l),
(695,-205,o),
(670,-228,o),
(630,-228,cs),
(585,-228,o),
(556,-200,o),
(556,-156,cs),
(556,-105,o),
(594,-59,o),
(664,0,c),
(564,0,l),
(487,-64,o),
(464,-121,o),
(464,-164,cs),
(464,-253,o),
(534,-312,o),
(624,-312,cs)
);
}
);
};
layerId = "EDDCE36C-3306-4C8A-A09B-117E0021F83D";
name = "26 Dec 21, 13:44";
shapes = (
{
closed = 1;
nodes = (
(711,-159,l),
(660,-159,o),
(624,-135,o),
(624,-62,c),
(664,0,l),
(664,600,l),
(564,600,l),
(564,450,l),
(602,475,l),
(549,555,o),
(458,608,o),
(353,608,cs),
(188,608,o),
(54,470,o),
(54,300,cs),
(54,130,o),
(188,-8,o),
(353,-8,cs),
(458,-8,o),
(549,45,o),
(602,125,c),
(564,150,l),
(564,0,l),
(524,-91,l),
(524,-195,o),
(602,-252,o),
(689,-252,c)
);
},
{
closed = 1;
nodes = (
(253,90,o),
(162,184,o),
(162,300,cs),
(162,416,o),
(253,510,o),
(367,510,cs),
(481,510,o),
(572,416,o),
(572,300,cs),
(572,184,o),
(481,90,o),
(367,90,cs)
);
}
);
width = 760;
},
{
background = {
shapes = (
{
closed = 1;
nodes = (
(691,-219,l),
(640,-219,o),
(604,-195,o),
(604,-122,c),
(664,0,l),
(664,600,l),
(564,600,l),
(564,450,l),
(602,475,l),
(549,555,o),
(458,608,o),
(353,608,cs),
(188,608,o),
(54,470,o),
(54,300,cs),
(54,130,o),
(188,-8,o),
(353,-8,cs),
(458,-8,o),
(549,45,o),
(602,125,c),
(564,150,l),
(564,0,l),
(504,-151,l),
(504,-255,o),
(582,-312,o),
(669,-312,c)
);
},
{
closed = 1;
nodes = (
(253,90,o),
(162,184,o),
(162,300,cs),
(162,416,o),
(253,510,o),
(367,510,cs),
(481,510,o),
(572,416,o),
(572,300,cs),
(572,184,o),
(481,90,o),
(367,90,cs)
);
}
);
};
guides = (
{
angle = 90;
pos = (614,0);
}
);
layerId = "5864D40E-51E2-4FDD-96DA-51B6D988DC78";
shapes = (
{
closed = 1;
nodes = (
(695,-190,l),
(649,-189,o),
(614,-166,o),
(614,-116,cs),
(614,-74,o),
(639,-39,o),
(674,0,c),
(674,600,l),
(524,600,l),
(524,539,l),
(478,587,o),
(413,616,o),
(336,616,cs),
(170,616,o),
(36,474,o),
(36,300,cs),
(36,126,o),
(170,-16,o),
(336,-16,cs),
(413,-16,o),
(478,13,o),
(524,61,c),
(524,0,l),
(486,-50,o),
(464,-100,o),
(464,-153,cs),
(464,-266,o),
(549,-318,o),
(665,-318,c)
);
},
{
closed = 1;
nodes = (
(269,137,o),
(198,210,o),
(198,300,cs),
(198,390,o),
(269,463,o),
(357,463,cs),
(445,463,o),
(516,390,o),
(516,300,cs),
(516,210,o),
(445,137,o),
(357,137,cs)
);
}
);
width = 740;
},
{
anchors = (
{
name = bottom;
pos = (371,0);
},
{
name = top;
pos = (371,600);
}
);
associatedMasterId = "5864D40E-51E2-4FDD-96DA-51B6D988DC78";
background = {
shapes = (
{
closed = 1;
nodes = (
(458,-8,o),
(549,45,o),
(602,125,c),
(564,150,l),
(564,0,l),
(664,0,l),
(664,600,l),
(564,600,l),
(564,450,l),
(602,475,l),
(549,555,o),
(458,608,o),
(353,608,cs),
(188,608,o),
(54,470,o),
(54,300,cs),
(54,130,o),
(188,-8,o),
(353,-8,cs)
);
},
{
closed = 1;
nodes = (
(253,90,o),
(162,184,o),
(162,300,cs),
(162,416,o),
(253,510,o),
(367,510,cs),
(481,510,o),
(572,416,o),
(572,300,cs),
(572,184,o),
(481,90,o),
(367,90,cs)
);
},
{
closed = 1;
nodes = (
(668,-312,o),
(706,-299,o),
(734,-277,c),
(710,-180,l),
(695,-205,o),
(670,-228,o),
(630,-228,cs),
(585,-228,o),
(556,-200,o),
(556,-156,cs),
(556,-105,o),
(594,-59,o),
(664,0,c),
(564,0,l),
(487,-64,o),
(464,-121,o),
(464,-164,cs),
(464,-253,o),
(534,-312,o),
(624,-312,cs)
);
}
);
};
layerId = "BB9203FA-EDC2-409A-9D2E-23500CF3BFF6";
name = "26 Dec 21, 13:44";
shapes = (
{
closed = 1;
nodes = (
(711,-159,l),
(660,-159,o),
(624,-135,o),
(624,-62,c),
(664,0,l),
(664,600,l),
(564,600,l),
(564,450,l),
(602,475,l),
(549,555,o),
(458,608,o),
(353,608,cs),
(188,608,o),
(54,470,o),
(54,300,cs),
(54,130,o),
(188,-8,o),
(353,-8,cs),
(458,-8,o),
(549,45,o),
(602,125,c),
(564,150,l),
(564,0,l),
(524,-91,l),
(524,-195,o),
(602,-252,o),
(689,-252,c)
);
},
{
closed = 1;
nodes = (
(253,90,o),
(162,184,o),
(162,300,cs),
(162,416,o),
(253,510,o),
(367,510,cs),
(481,510,o),
(572,416,o),
(572,300,cs),
(572,184,o),
(481,90,o),
(367,90,cs)
);
}
);
width = 760;
}
);
unicode = 261;
},
{
glyphname = aring;
kernLeft = c;
kernRight = a;
lastChange = "2023-10-12 14:03:48 +0000";
layers = (
{
background = {
shapes = (
{
closed = 1;
nodes = (
(460,-11,o),
(552,43,o),
(606,122,c),
(567,147,l),
(567,0,l),
(670,0,l),
(670,600,l),
(567,600,l),
(567,449,l),
(606,474,l),
(552,553,o),
(460,607,o),
(355,607,cs),
(189,607,o),
(53,469,o),
(53,298,cs),
(53,127,o),
(189,-11,o),
(355,-11,cs)
);
},
{
closed = 1;
nodes = (
(256,91,o),
(164,185,o),
(164,300,cs),
(164,415,o),
(256,508,o),
(371,508,cs),
(487,508,o),
(579,415,o),
(579,300,cs),
(579,185,o),
(487,91,o),
(371,91,cs)
);
}
);
};
layerId = "3E87E8DA-1F15-4738-9454-A2AB4CEA57DC";
shapes = (
{
ref = a;
},
{
pos = (11,0);
ref = ringcomb;
}
);
width = 760;
},
{
anchors = (
{
name = bottom;
pos = (371,0);
},
{
name = ogonek;
pos = (668,10);
},
{
name = top;
pos = (371,600);
}
);
associatedMasterId = "3E87E8DA-1F15-4738-9454-A2AB4CEA57DC";
background = {
shapes = (
{
closed = 1;
nodes = (
(460,-11,o),
(552,43,o),
(606,122,c),
(567,147,l),
(567,0,l),
(670,0,l),
(670,600,l),
(567,600,l),
(567,449,l),
(606,474,l),
(552,553,o),
(460,607,o),
(355,607,cs),
(189,607,o),
(53,469,o),
(53,298,cs),
(53,127,o),
(189,-11,o),
(355,-11,cs)
);
},
{
closed = 1;
nodes = (
(256,91,o),
(164,185,o),
(164,300,cs),
(164,415,o),
(256,508,o),
(371,508,cs),
(487,508,o),
(579,415,o),
(579,300,cs),
(579,185,o),
(487,91,o),
(371,91,cs)
);
}
);
};
layerId = "D3600631-8323-4B59-AED0-17CF65AB19BA";
name = "Aug 26 20, 10:56";
shapes = (
{
closed = 1;
nodes = (
(256,91,o),
(164,185,o),
(164,300,cs),
(164,415,o),
(256,508,o),
(371,508,cs),
(487,508,o),
(579,415,o),
(579,300,cs),
(579,185,o),
(487,91,o),
(371,91,cs)
);
},
{
closed = 1;
nodes = (
(546,596,o),
(576,648,o),
(576,715,cs),
(576,834,o),
(479,925,o),
(360,925,cs),
(241,925,o),
(144,834,o),
(144,715,cs),
(144,648,o),
(173,596,o),
(220,558,c),
(229,580,l),
(126,531,o),
(53,424,o),
(53,298,cs),
(53,127,o),
(189,-11,o),
(355,-11,cs),
(460,-11,o),
(552,43,o),
(606,122,c),
(567,147,l),
(567,0,l),
(670,0,l),
(670,600,l),
(567,600,l),
(567,449,l),
(606,474,l),
(577,517,o),
(536,553,o),
(488,576,c),
(500,558,l)
);
},
{
closed = 1;
nodes = (
(297,596,o),
(247,646,o),
(247,709,cs),
(247,772,o),
(297,823,o),
(360,823,cs),
(422,823,o),
(473,772,o),
(473,709,cs),
(473,646,o),
(423,596,o),
(360,596,cs)
);
}
);
width = 762;
},
{
background = {
shapes = (
{
closed = 1;
nodes = (
(460,-11,o),
(552,43,o),
(606,122,c),
(567,147,l),
(567,0,l),
(670,0,l),
(670,600,l),
(567,600,l),
(567,449,l),
(606,474,l),
(552,553,o),
(460,607,o),
(355,607,cs),
(189,607,o),
(53,469,o),
(53,298,cs),
(53,127,o),
(189,-11,o),
(355,-11,cs)
);
},
{
closed = 1;
nodes = (
(256,91,o),
(164,185,o),
(164,300,cs),
(164,415,o),
(256,508,o),
(371,508,cs),
(487,508,o),
(579,415,o),
(579,300,cs),
(579,185,o),
(487,91,o),
(371,91,cs)
);
}
);
};
layerId = "5864D40E-51E2-4FDD-96DA-51B6D988DC78";
shapes = (
{
ref = a;
},
{
ref = ringcomb;
}
);
width = 740;
},
{
anchors = (
{
name = bottom;
pos = (371,0);
},
{
name = ogonek;
pos = (668,10);
},
{
name = top;
pos = (371,600);
}
);
associatedMasterId = "5864D40E-51E2-4FDD-96DA-51B6D988DC78";
background = {
shapes = (
{
closed = 1;
nodes = (
(460,-11,o),
(552,43,o),
(606,122,c),
(567,147,l),
(567,0,l),
(670,0,l),
(670,600,l),
(567,600,l),
(567,449,l),
(606,474,l),
(552,553,o),
(460,607,o),
(355,607,cs),
(189,607,o),
(53,469,o),
(53,298,cs),
(53,127,o),
(189,-11,o),
(355,-11,cs)
);
},
{
closed = 1;
nodes = (
(256,91,o),
(164,185,o),
(164,300,cs),
(164,415,o),
(256,508,o),
(371,508,cs),
(487,508,o),
(579,415,o),
(579,300,cs),
(579,185,o),
(487,91,o),
(371,91,cs)
);
}
);
};
layerId = "FF3937DB-0AD1-4B58-9C3B-7FAE7D2228BA";
name = "Aug 26 20, 10:56";
shapes = (
{
closed = 1;
nodes = (
(256,91,o),
(164,185,o),
(164,300,cs),
(164,415,o),
(256,508,o),
(371,508,cs),
(487,508,o),
(579,415,o),
(579,300,cs),
(579,185,o),
(487,91,o),
(371,91,cs)
);
},
{
closed = 1;
nodes = (
(546,596,o),
(576,648,o),
(576,715,cs),
(576,834,o),
(479,925,o),
(360,925,cs),
(241,925,o),
(144,834,o),
(144,715,cs),
(144,648,o),
(173,596,o),
(220,558,c),
(229,580,l),
(126,531,o),
(53,424,o),
(53,298,cs),
(53,127,o),
(189,-11,o),
(355,-11,cs),
(460,-11,o),
(552,43,o),
(606,122,c),
(567,147,l),
(567,0,l),
(670,0,l),
(670,600,l),
(567,600,l),
(567,449,l),
(606,474,l),
(577,517,o),
(536,553,o),
(488,576,c),
(500,558,l)
);
},
{
closed = 1;
nodes = (
(297,596,o),
(247,646,o),
(247,709,cs),
(247,772,o),
(297,823,o),
(360,823,cs),
(422,823,o),
(473,772,o),
(473,709,cs),
(473,646,o),
(423,596,o),
(360,596,cs)
);
}
);
width = 762;
}
);
unicode = 229;
},
{
glyphname = ae;
kernLeft = a.ss02;
kernRight = e;
lastChange = "2023-10-12 14:03:48 +0000";
layers = (
{
anchors = (
{
name = bottom;
pos = (570,0);
},
{
name = top;
pos = (570,600);
}
);
background = {
shapes = (
{
closed = 1;
nodes = (
(372,-8,o),
(452,27,o),
(506,100,c),
(506,0,l),
(606,0,l),
(606,368,ls),
(606,517,o),
(489,608,o),
(328,608,cs),
(237,608,o),
(159,579,o),
(102,541,c),
(130,429,l),
(175,478,o),
(242,512,o),
(323,512,cs),
(443,512,o),
(506,437,o),
(506,348,cs),
(506,330,l),
(452,361,o),
(387,378,o),
(314,378,cs),
(165,378,o),
(54,306,o),
(54,184,cs),
(54,69,o),
(153,-8,o),
(284,-8,cs)
);
},
{
closed = 1;
nodes = (
(208,82,o),
(162,128,o),
(162,184,cs),
(162,251,o),
(228,288,o),
(321,288,cs),
(384,288,o),
(453,271,o),
(506,246,c),
(494,146,o),
(396,82,o),
(294,82,cs)
);
},
{
closed = 1;
nodes = (
(894,-12,o),
(970,15,o),
(1028,62,c),
(998,185,l),
(958,128,o),
(889,90,o),
(813,90,cs),
(689,90,o),
(592,187,o),
(592,308,c),
(586,308,l),
(586,418,o),
(676,516,o),
(789,516,cs),
(897,516,o),
(990,428,o),
(990,314,c),
(1022,360,l),
(700,360,l),
(643,360,o),
(585,352,o),
(528,340,c),
(528,290,l),
(585,278,o),
(643,270,o),
(700,270,cs),
(1092,270,l),
(1092,314,ls),
(1092,483,o),
(955,612,o),
(789,612,cs),
(620,612,o),
(484,476,o),
(484,306,cs),
(484,127,o),
(623,-12,o),
(812,-12,cs)
);
}
);
};
hints = (
{
horizontal = 1;
origin = (0,43);
target = (1,12);
type = Stem;
},
{
horizontal = 1;
origin = (1,5);
target = (0,37);
type = Stem;
},
{
horizontal = 1;
origin = (0,23);
target = (0,30);
type = Stem;
},
{
origin = (0,34);
target = (0,9);
type = Stem;
},
{
origin = (0,40);
target = (1,2);
type = Stem;
},
{
origin = (2,5);
target = (0,14);
type = Stem;
}
);
layerId = "3E87E8DA-1F15-4738-9454-A2AB4CEA57DC";
shapes = (
{
closed = 1;
nodes = (
(894,-12,o),
(970,15,o),
(1028,62,c),
(998,185,l),
(958,128,o),
(889,90,o),
(813,90,cs),
(699,90,o),
(608,171,o),
(594,278,c),
(629,273,o),
(665,270,o),
(700,270,cs),
(1092,270,l),
(1092,314,ls),
(1092,483,o),
(956,612,o),
(790,612,cs),
(699,612,o),
(618,570,o),
(564,505,c),
(516,570,o),
(431,608,o),
(328,608,cs),
(237,608,o),
(159,579,o),
(102,541,c),
(130,429,l),
(175,478,o),
(242,512,o),
(323,512,cs),
(428,512,o),
(489,455,o),
(503,381,c),
(495,336,l),
(444,363,o),
(382,378,o),
(314,378,cs),
(165,378,o),
(54,306,o),
(54,184,cs),
(54,69,o),
(153,-12,o),
(286,-12,cs),
(393,-12,o),
(492,35,o),
(550,121,c),
(606,40,o),
(700,-12,o),
(812,-12,cs)
);
},
{
closed = 1;
nodes = (
(208,82,o),
(162,128,o),
(162,184,cs),
(162,251,o),
(228,288,o),
(321,288,cs),
(381,288,o),
(447,273,o),
(499,249,c),
(506,214,l),
(479,136,o),
(388,82,o),
(294,82,cs)
);
},
{
closed = 1;
nodes = (
(611,442,o),
(691,516,o),
(789,516,cs),
(884,516,o),
(967,448,o),
(986,355,c),
(957,358,o),
(928,360,o),
(899,360,cs),
(700,360,ls),
(664,360,o),
(627,357,o),
(591,351,c)
);
}
);
width = 1140;
},
{
anchors = (
{
name = bottom;
pos = (570,0);
},
{
name = top;
pos = (570,600);
}
);
associatedMasterId = "3E87E8DA-1F15-4738-9454-A2AB4CEA57DC";
background = {
shapes = (
{
closed = 1;
nodes = (
(372,-8,o),
(452,27,o),
(506,100,c),
(506,0,l),
(606,0,l),
(606,368,ls),
(606,517,o),
(489,608,o),
(328,608,cs),
(237,608,o),
(159,579,o),
(102,541,c),
(130,429,l),
(175,478,o),
(242,512,o),
(323,512,cs),
(443,512,o),
(506,437,o),
(506,348,cs),
(506,330,l),
(452,361,o),
(387,378,o),
(314,378,cs),
(165,378,o),
(54,306,o),
(54,184,cs),
(54,69,o),
(153,-8,o),
(284,-8,cs)
);
},
{
closed = 1;
nodes = (
(208,82,o),
(162,128,o),
(162,184,cs),
(162,251,o),
(228,288,o),
(321,288,cs),
(384,288,o),
(453,271,o),
(506,246,c),
(494,146,o),
(396,82,o),
(294,82,cs)
);
},
{
closed = 1;
nodes = (
(894,-12,o),
(970,15,o),
(1028,62,c),
(998,185,l),
(958,128,o),
(889,90,o),
(813,90,cs),
(689,90,o),
(592,187,o),
(592,308,c),
(586,308,l),
(586,418,o),
(676,516,o),
(789,516,cs),
(897,516,o),
(990,428,o),
(990,314,c),
(1022,360,l),
(700,360,l),
(643,360,o),
(585,352,o),
(528,340,c),
(528,290,l),
(585,278,o),
(643,270,o),
(700,270,cs),
(1092,270,l),
(1092,314,ls),
(1092,483,o),
(955,612,o),
(789,612,cs),
(620,612,o),
(484,476,o),
(484,306,cs),
(484,127,o),
(623,-12,o),
(812,-12,cs)
);
}
);
};
layerId = "5A15C4CA-D795-4552-B1F8-92D657B29C9D";
name = "20 Dec 21, 18:51";
shapes = (
{
closed = 1;
nodes = (
(372,-8,o),
(452,27,o),
(506,100,c),
(506,0,l),
(606,0,l),
(606,368,ls),
(606,517,o),
(489,608,o),
(328,608,cs),
(237,608,o),
(159,579,o),
(102,541,c),
(130,429,l),
(175,478,o),
(242,512,o),
(323,512,cs),
(443,512,o),
(506,437,o),
(506,348,cs),
(506,330,l),
(452,361,o),
(387,378,o),
(314,378,cs),
(165,378,o),
(54,306,o),
(54,184,cs),
(54,69,o),
(153,-8,o),
(284,-8,cs)
);
},
{
closed = 1;
nodes = (
(208,82,o),
(162,128,o),
(162,184,cs),
(162,251,o),
(228,288,o),
(321,288,cs),
(384,288,o),
(453,271,o),
(506,246,c),
(494,146,o),
(396,82,o),
(294,82,cs)
);
},
{
closed = 1;
nodes = (
(894,-12,o),
(970,15,o),
(1028,62,c),
(998,185,l),
(958,128,o),
(889,90,o),
(813,90,cs),
(689,90,o),
(592,187,o),
(592,308,c),
(586,308,l),
(586,418,o),
(676,516,o),
(789,516,cs),
(897,516,o),
(990,428,o),
(990,314,c),
(1022,360,l),
(700,360,l),
(643,360,o),
(585,352,o),
(528,340,c),
(528,290,l),
(585,278,o),
(643,270,o),
(700,270,cs),
(1092,270,l),
(1092,314,ls),
(1092,483,o),
(955,612,o),
(789,612,cs),
(620,612,o),
(484,476,o),
(484,306,cs),
(484,127,o),
(623,-12,o),
(812,-12,cs)
);
}
);
width = 1140;
},
{
anchors = (
{
name = bottom;
pos = (540,0);
},
{
name = top;
pos = (540,600);
}
);
background = {
shapes = (
{
closed = 1;
nodes = (
(372,-8,o),
(452,27,o),
(506,100,c),
(506,0,l),
(606,0,l),
(606,368,ls),
(606,517,o),
(489,608,o),
(328,608,cs),
(237,608,o),
(159,579,o),
(102,541,c),
(130,429,l),
(175,478,o),
(242,512,o),
(323,512,cs),
(443,512,o),
(506,437,o),
(506,348,cs),
(506,330,l),
(452,361,o),
(387,378,o),
(314,378,cs),
(165,378,o),
(54,306,o),
(54,184,cs),
(54,69,o),
(153,-8,o),
(284,-8,cs)
);
},
{
closed = 1;
nodes = (
(208,82,o),
(162,128,o),
(162,184,cs),
(162,251,o),
(228,288,o),
(321,288,cs),
(384,288,o),
(453,271,o),
(506,246,c),
(494,146,o),
(396,82,o),
(294,82,cs)
);
},
{
closed = 1;
nodes = (
(894,-12,o),
(970,15,o),
(1028,62,c),
(998,185,l),
(958,128,o),
(889,90,o),
(813,90,cs),
(689,90,o),
(592,187,o),
(592,308,c),
(586,308,l),
(586,418,o),
(676,516,o),
(789,516,cs),
(897,516,o),
(990,428,o),
(990,314,c),
(1022,360,l),
(700,360,l),
(643,360,o),
(585,352,o),
(528,340,c),
(528,290,l),
(585,278,o),
(643,270,o),
(700,270,cs),
(1092,270,l),
(1092,314,ls),
(1092,483,o),
(955,612,o),
(789,612,cs),
(620,612,o),
(484,476,o),
(484,306,cs),
(484,127,o),
(623,-12,o),
(812,-12,cs)
);
}
);
};
layerId = "5864D40E-51E2-4FDD-96DA-51B6D988DC78";
shapes = (
{
closed = 1;
nodes = (
(858,-20,o),
(936,3,o),
(996,48,c),
(958,204,l),
(919,159,o),
(857,124,o),
(781,124,cs),
(682,124,o),
(616,179,o),
(600,259,c),
(631,253,o),
(661,249,o),
(693,249,cs),
(1060,249,l),
(1060,310,ls),
(1060,487,o),
(927,620,o),
(750,620,cs),
(671,620,o),
(600,593,o),
(545,547,c),
(494,593,o),
(417,620,o),
(324,620,cs),
(238,620,o),
(150,597,o),
(80,555,c),
(115,413,l),
(164,453,o),
(230,482,o),
(304,482,cs),
(404,482,o),
(466,429,o),
(468,364,c),
(466,352,l),
(412,374,o),
(359,384,o),
(301,384,cs),
(142,384,o),
(36,304,o),
(36,184,cs),
(36,63,o),
(129,-14,o),
(282,-14,cs),
(378,-14,o),
(460,24,o),
(518,85,c),
(578,20,o),
(668,-20,o),
(777,-20,cs)
);
},
{
closed = 1;
nodes = (
(236,118,o),
(198,145,o),
(198,187,cs),
(198,232,o),
(243,258,o),
(320,258,cs),
(369,258,o),
(425,248,o),
(466,231,c),
(467,223,l),
(452,166,o),
(377,118,o),
(296,118,cs)
);
},
{
closed = 1;
nodes = (
(617,437,o),
(675,482,o),
(748,482,cs),
(825,482,o),
(880,438,o),
(900,366,c),
(870,372,o),
(837,375,o),
(800,375,cs),
(693,375,ls),
(659,375,o),
(628,371,o),
(596,364,c)
);
}
);
width = 1090;
},
{
anchors = (
{
name = bottom;
pos = (570,0);
},
{
name = top;
pos = (570,600);
}
);
associatedMasterId = "5864D40E-51E2-4FDD-96DA-51B6D988DC78";
background = {
shapes = (
{
closed = 1;
nodes = (
(372,-8,o),
(452,27,o),
(506,100,c),
(506,0,l),
(606,0,l),
(606,368,ls),
(606,517,o),
(489,608,o),
(328,608,cs),
(237,608,o),
(159,579,o),
(102,541,c),
(130,429,l),
(175,478,o),
(242,512,o),
(323,512,cs),
(443,512,o),
(506,437,o),
(506,348,cs),
(506,330,l),
(452,361,o),
(387,378,o),
(314,378,cs),
(165,378,o),
(54,306,o),
(54,184,cs),
(54,69,o),
(153,-8,o),
(284,-8,cs)
);
},
{
closed = 1;
nodes = (
(208,82,o),
(162,128,o),
(162,184,cs),
(162,251,o),
(228,288,o),
(321,288,cs),
(384,288,o),
(453,271,o),
(506,246,c),
(494,146,o),
(396,82,o),
(294,82,cs)
);
},
{
closed = 1;
nodes = (
(894,-12,o),
(970,15,o),
(1028,62,c),
(998,185,l),
(958,128,o),
(889,90,o),
(813,90,cs),
(689,90,o),
(592,187,o),
(592,308,c),
(586,308,l),
(586,418,o),
(676,516,o),
(789,516,cs),
(897,516,o),
(990,428,o),
(990,314,c),
(1022,360,l),
(700,360,l),
(643,360,o),
(585,352,o),
(528,340,c),
(528,290,l),
(585,278,o),
(643,270,o),
(700,270,cs),
(1092,270,l),
(1092,314,ls),
(1092,483,o),
(955,612,o),
(789,612,cs),
(620,612,o),
(484,476,o),
(484,306,cs),
(484,127,o),
(623,-12,o),
(812,-12,cs)
);
}
);
};
layerId = "CA6A5780-CFE5-422F-86D0-1352DAFCFF47";
name = "20 Dec 21, 18:51";
shapes = (
{
closed = 1;
nodes = (
(372,-8,o),
(452,27,o),
(506,100,c),
(506,0,l),
(606,0,l),
(606,368,ls),
(606,517,o),
(489,608,o),
(328,608,cs),
(237,608,o),
(159,579,o),
(102,541,c),
(130,429,l),
(175,478,o),
(242,512,o),
(323,512,cs),
(443,512,o),
(506,437,o),
(506,348,cs),
(506,330,l),
(452,361,o),
(387,378,o),
(314,378,cs),
(165,378,o),
(54,306,o),
(54,184,cs),
(54,69,o),
(153,-8,o),
(284,-8,cs)
);
},
{
closed = 1;
nodes = (
(208,82,o),
(162,128,o),
(162,184,cs),
(162,251,o),
(228,288,o),
(321,288,cs),
(384,288,o),
(453,271,o),
(506,246,c),
(494,146,o),
(396,82,o),
(294,82,cs)
);
},
{
closed = 1;
nodes = (
(894,-12,o),
(970,15,o),
(1028,62,c),
(998,185,l),
(958,128,o),
(889,90,o),
(813,90,cs),
(689,90,o),
(592,187,o),
(592,308,c),
(586,308,l),
(586,418,o),
(676,516,o),
(789,516,cs),
(897,516,o),
(990,428,o),
(990,314,c),
(1022,360,l),
(700,360,l),
(643,360,o),
(585,352,o),
(528,340,c),
(528,290,l),
(585,278,o),
(643,270,o),
(700,270,cs),
(1092,270,l),
(1092,314,ls),
(1092,483,o),
(955,612,o),
(789,612,cs),
(620,612,o),
(484,476,o),
(484,306,cs),
(484,127,o),
(623,-12,o),
(812,-12,cs)
);
}
);
width = 1140;
}
);
unicode = 230;
},
{
glyphname = b;
kernLeft = b;
kernRight = b;
lastChange = "2023-10-12 14:03:48 +0000";
layers = (
{
anchors = (
{
name = bottom;
pos = (390,0);
},
{
name = top;
pos = (390,914);
}
);
background = {
guides = (
{
angle = 135;
pos = (410,313);
},
{
angle = 45;
pos = (410,313);
}
);
shapes = (
{
closed = 1;
nodes = (
(565,-12,o),
(706,127,o),
(706,300,cs),
(706,473,o),
(565,612,o),
(390,612,cs),
(215,612,o),
(74,473,o),
(74,300,cs),
(74,127,o),
(215,-12,o),
(390,-12,cs)
);
},
{
closed = 1;
nodes = (
(274,90,o),
(182,184,o),
(182,300,cs),
(182,416,o),
(274,510,o),
(390,510,cs),
(505,510,o),
(598,416,o),
(598,300,cs),
(598,184,o),
(505,90,o),
(390,90,cs)
);
}
);
};
guides = (
{
angle = 180;
pos = (407,578);
},
{
angle = 135;
pos = (407,313);
},
{
angle = 45;
pos = (407,313);
}
);
hints = (
{
origin = (0,10);
target = (0,9);
type = Stem;
},
{
horizontal = 1;
origin = (0,16);
target = (1,11);
type = Stem;
},
{
horizontal = 1;
origin = (0,5);
target = (1,5);
type = Stem;
},
{
horizontal = 1;
origin = (0,11);
target = up;
type = BottomGhost;
},
{
horizontal = 1;
origin = (0,10);
target = down;
type = TopGhost;
}
);
layerId = "3E87E8DA-1F15-4738-9454-A2AB4CEA57DC";
shapes = (
{
closed = 1;
nodes = (
(572,-8,o),
(706,130,o),
(706,300,cs),
(706,470,o),
(572,608,o),
(407,608,cs),
(328,608,o),
(257,578,o),
(204,529,c),
(204,960,l),
(96,960,l),
(96,0,l),
(196,0,l),
(196,79,l),
(250,25,o),
(324,-8,o),
(407,-8,cs)
);
},
{
closed = 1;
nodes = (
(279,90,o),
(188,184,o),
(188,300,cs),
(188,416,o),
(279,510,o),
(393,510,cs),
(507,510,o),
(598,416,o),
(598,300,cs),
(598,184,o),
(507,90,o),
(393,90,cs)
);
}
);
width = 760;
},
{
anchors = (
{
name = bottom;
pos = (378,0);
},
{
name = top;
pos = (378,914);
}
);
background = {
guides = (
{
angle = 135;
pos = (398,313);
},
{
angle = 45;
pos = (398,313);
}
);
shapes = (
{
closed = 1;
nodes = (
(553,-12,o),
(694,127,o),
(694,300,cs),
(694,473,o),
(553,612,o),
(378,612,cs),
(203,612,o),
(62,473,o),
(62,300,cs),
(62,127,o),
(203,-12,o),
(378,-12,cs)
);
},
{
closed = 1;
nodes = (
(262,90,o),
(170,184,o),
(170,300,cs),
(170,416,o),
(262,510,o),
(378,510,cs),
(493,510,o),
(586,416,o),
(586,300,cs),
(586,184,o),
(493,90,o),
(378,90,cs)
);
}
);
};
guides = (
{
angle = 180;
pos = (395,578);
},
{
angle = 135;
pos = (395,313);
},
{
angle = 45;
pos = (395,313);
}
);
layerId = "5864D40E-51E2-4FDD-96DA-51B6D988DC78";
shapes = (
{
closed = 1;
nodes = (
(570,-16,o),
(704,126,o),
(704,300,cs),
(704,474,o),
(570,616,o),
(403,616,cs),
(339,616,o),
(284,596,o),
(240,562,c),
(240,960,l),
(66,960,l),
(66,0,l),
(216,0,l),
(216,59,l),
(262,12,o),
(327,-16,o),
(403,-16,cs)
);
},
{
closed = 1;
nodes = (
(295,137,o),
(224,210,o),
(224,300,cs),
(224,390,o),
(295,463,o),
(383,463,cs),
(471,463,o),
(542,390,o),
(542,300,cs),
(542,210,o),
(471,137,o),
(383,137,cs)
);
}
);
width = 740;
}
);
unicode = 98;
},
{
glyphname = c;
kernLeft = c;
kernRight = c;
lastChange = "2023-10-12 14:03:48 +0000";
layers = (
{
anchors = (
{
name = bottom;
pos = (371,0);
},
{
name = top;
pos = (371,600);
}
);
background = {
guides = (
{
angle = 135;
pos = (390,313);
},
{
angle = 45;
pos = (390,313);
}
);
shapes = (
{
closed = 1;
nodes = (
(545,-12,o),
(686,127,o),
(686,300,cs),
(686,473,o),
(545,612,o),
(370,612,cs),
(195,612,o),
(54,473,o),
(54,300,cs),
(54,127,o),
(195,-12,o),
(370,-12,cs)
);
},
{
closed = 1;
nodes = (
(254,90,o),
(162,184,o),
(162,300,cs),
(162,416,o),
(254,510,o),
(370,510,cs),
(485,510,o),
(578,416,o),
(578,300,cs),
(578,184,o),
(485,90,o),
(370,90,cs)
);
}
);
};
guides = (
{
angle = 180;
pos = (360,626);
},
{
angle = 103.7363;
pos = (578,144);
},
{
angle = 256.3609;
pos = (578,456);
},
{
pos = (561,208);
}
);
hints = (
{
horizontal = 1;
origin = (0,25);
target = (0,6);
type = Stem;
},
{
horizontal = 1;
origin = (0,19);
target = (0,12);
type = Stem;
},
{
origin = (0,22);
target = (0,9);
type = Stem;
}
);
layerId = "3E87E8DA-1F15-4738-9454-A2AB4CEA57DC";
shapes = (
{
closed = 1;
nodes = (
(459,-12,o),
(537,21,o),
(594,72,c),
(561,208,l),
(527,139,o),
(456,90,o),
(371,90,cs),
(255,90,o),
(162,185,o),
(162,300,cs),
(162,415,o),
(255,510,o),
(371,510,cs),
(456,510,o),
(527,459,o),
(561,392,c),
(594,528,l),
(537,579,o),
(459,612,o),
(372,612,cs),
(196,612,o),
(54,472,o),
(54,300,cs),
(54,128,o),
(196,-12,o),
(372,-12,cs)
);
}
);
width = 630;
},
{
anchors = (
{
name = bottom;
pos = (371,0);
},
{
name = top;
pos = (371,600);
}
);
background = {
guides = (
{
angle = 135;
pos = (390,313);
},
{
angle = 45;
pos = (390,313);
}
);
shapes = (
{
closed = 1;
nodes = (
(539,-20,o),
(684,123,o),
(684,300,cs),
(684,477,o),
(539,620,o),
(360,620,cs),
(181,620,o),
(36,477,o),
(36,300,cs),
(36,123,o),
(181,-20,o),
(360,-20,cs)
);
},
{
closed = 1;
nodes = (
(270,136,o),
(199,209,o),
(199,300,cs),
(199,391,o),
(270,464,o),
(360,464,cs),
(449,464,o),
(521,391,o),
(521,300,cs),
(521,209,o),
(449,136,o),
(360,136,cs)
);
}
);
};
guides = (
{
angle = 180;
pos = (360,626);
},
{
angle = 103.7363;
pos = (554,144);
},
{
angle = 256.3609;
pos = (554,456);
},
{
pos = (561,208);
}
);
layerId = "5864D40E-51E2-4FDD-96DA-51B6D988DC78";
shapes = (
{
closed = 1;
nodes = (
(443,-20,o),
(518,8,o),
(576,61,c),
(531,238,l),
(498,183,o),
(441,136,o),
(367,136,cs),
(273,136,o),
(204,209,o),
(204,300,cs),
(204,391,o),
(273,464,o),
(367,464,cs),
(441,464,o),
(498,416,o),
(531,362,c),
(576,539,l),
(518,592,o),
(443,620,o),
(360,620,cs),
(181,620,o),
(36,477,o),
(36,300,cs),
(36,123,o),
(181,-20,o),
(360,-20,cs)
);
}
);
width = 600;
}
);
unicode = 99;
},
{
glyphname = ccedilla;
kernLeft = c;
kernRight = c;
lastChange = "2023-10-12 14:03:48 +0000";
layers = (
{
hints = (
{
horizontal = 1;
origin = (0,1);
target = (0,8);
type = Stem;
},
{
horizontal = 1;
origin = (0,21);
target = (0,14);
type = Stem;
},
{
origin = (0,24);
target = (0,11);
type = Stem;
},
{
horizontal = 1;
origin = (0,28);
target = up;
type = BottomGhost;
}
);
layerId = "3E87E8DA-1F15-4738-9454-A2AB4CEA57DC";
shapes = (
{
closed = 1;
nodes = (
(282,-180,l),
(418,-9,l),
(486,0,o),
(547,30,o),
(594,72,c),
(561,208,l),
(527,139,o),
(456,90,o),
(371,90,cs),
(255,90,o),
(162,185,o),
(162,300,cs),
(162,415,o),
(255,510,o),
(371,510,cs),
(456,510,o),
(527,459,o),
(561,392,c),
(594,528,l),
(537,579,o),
(459,612,o),
(372,612,cs),
(196,612,o),
(54,472,o),
(54,300,cs),
(54,148,o),
(164,22,o),
(311,-6,c),
(139,-180,l)
);
}
);
width = 630;
},
{
layerId = "5864D40E-51E2-4FDD-96DA-51B6D988DC78";
shapes = (
{
closed = 1;
nodes = (
(312,-192,l),
(438,-11,l),
(490,1,o),
(537,25,o),
(576,61,c),
(531,238,l),
(498,183,o),
(441,136,o),
(367,136,cs),
(273,136,o),
(204,209,o),
(204,300,cs),
(204,391,o),
(273,464,o),
(367,464,cs),
(441,464,o),
(498,416,o),
(531,362,c),
(576,539,l),
(518,592,o),
(443,620,o),
(360,620,cs),
(181,620,o),
(36,477,o),
(36,300,cs),
(36,149,o),
(142,22,o),
(284,-11,c),
(97,-192,l)
);
}
);
width = 600;
}
);
unicode = 231;
},
{
glyphname = d;
kernLeft = c;
kernRight = d;
lastChange = "2023-10-12 14:03:48 +0000";
layers = (
{
anchors = (
{
name = bottom;
pos = (371,0);
},
{
name = center;
pos = (610,780);
},
{
name = top;
pos = (371,600);
},
{
name = topright;
pos = (664,960);
}
);
background = {
guides = (
{
angle = 135;
pos = (390,313);
},
{
angle = 45;
pos = (390,313);
}
);
shapes = (
{
closed = 1;
nodes = (
(460,-11,o),
(552,43,o),
(606,122,c),
(567,147,l),
(567,0,l),
(670,0,l),
(670,914,l),
(560,914,l),
(560,449,l),
(606,477,l),
(552,557,o),
(460,611,o),
(355,611,cs),
(189,611,o),
(53,472,o),
(53,300,cs),
(53,128,o),
(189,-11,o),
(355,-11,cs)
);
},
{
closed = 1;
nodes = (
(256,91,o),
(164,185,o),
(164,300,cs),
(164,415,o),
(256,508,o),
(371,508,cs),
(487,508,o),
(579,415,o),
(579,300,cs),
(579,185,o),
(487,91,o),
(371,91,cs)
);
}
);
};
guides = (
{
angle = 180;
pos = (387,578);
},
{
angle = 135;
pos = (387,313);
},
{
angle = 45;
pos = (387,313);
}
);
hints = (
{
horizontal = 1;
origin = (0,16);
target = (1,11);
type = Stem;
},
{
horizontal = 1;
origin = (0,10);
target = (1,5);
type = Stem;
},
{
horizontal = 1;
origin = (0,6);
target = down;
type = TopGhost;
},
{
horizontal = 1;
origin = (0,3);
target = up;
type = BottomGhost;
},
{
origin = (0,13);
target = (1,2);
type = Stem;
},
{
origin = (0,6);
target = (0,5);
type = Stem;
}
);
layerId = "3E87E8DA-1F15-4738-9454-A2AB4CEA57DC";
shapes = (
{
closed = 1;
nodes = (
(436,-8,o),
(510,25,o),
(564,79,c),
(564,0,l),
(664,0,l),
(664,960,l),
(556,960,l),
(556,529,l),
(503,578,o),
(432,608,o),
(353,608,cs),
(188,608,o),
(54,470,o),
(54,300,cs),
(54,130,o),
(188,-8,o),
(353,-8,cs)
);
},
{
closed = 1;
nodes = (
(253,90,o),
(162,184,o),
(162,300,cs),
(162,416,o),
(253,510,o),
(367,510,cs),
(481,510,o),
(572,416,o),
(572,300,cs),
(572,184,o),
(481,90,o),
(367,90,cs)
);
}
);
width = 760;
},
{
anchors = (
{
name = bottom;
pos = (371,0);
},
{
name = center;
pos = (592,780);
},
{
name = top;
pos = (371,600);
},
{
name = topright;
pos = (674,960);
}
);
background = {
guides = (
{
angle = 135;
pos = (390,313);
},
{
angle = 45;
pos = (390,313);
}
);
shapes = (
{
closed = 1;
nodes = (
(460,-11,o),
(552,43,o),
(606,122,c),
(567,147,l),
(567,0,l),
(670,0,l),
(670,914,l),
(560,914,l),
(560,449,l),
(606,477,l),
(552,557,o),
(460,611,o),
(355,611,cs),
(189,611,o),
(53,472,o),
(53,300,cs),
(53,128,o),
(189,-11,o),
(355,-11,cs)
);
},
{
closed = 1;
nodes = (
(256,91,o),
(164,185,o),
(164,300,cs),
(164,415,o),
(256,508,o),
(371,508,cs),
(487,508,o),
(579,415,o),
(579,300,cs),
(579,185,o),
(487,91,o),
(371,91,cs)
);
}
);
};
guides = (
{
angle = 180;
pos = (387,578);
},
{
angle = 135;
pos = (387,313);
},
{
angle = 45;
pos = (387,313);
}
);
layerId = "5864D40E-51E2-4FDD-96DA-51B6D988DC78";
shapes = (
{
closed = 1;
nodes = (
(413,-16,o),
(478,12,o),
(524,59,c),
(524,0,l),
(674,0,l),
(674,960,l),
(500,960,l),
(500,562,l),
(456,596,o),
(401,616,o),
(337,616,cs),
(170,616,o),
(36,474,o),
(36,300,cs),
(36,126,o),
(170,-16,o),
(337,-16,cs)
);
},
{
closed = 1;
nodes = (
(269,137,o),
(198,210,o),
(198,300,cs),
(198,390,o),
(269,463,o),
(357,463,cs),
(445,463,o),
(516,390,o),
(516,300,cs),
(516,210,o),
(445,137,o),
(357,137,cs)
);
}
);
width = 740;
}
);
unicode = 100;
},
{
glyphname = dcroat;
kernLeft = c;
kernRight = d;
lastChange = "2023-10-12 14:03:48 +0000";
layers = (
{
hints = (
{
horizontal = 1;
origin = (0,24);
target = (1,11);
type = Stem;
},
{
horizontal = 1;
origin = (0,18);
target = (1,5);
type = Stem;
},
{
horizontal = 1;
origin = (0,13);
target = (0,12);
type = Stem;
},
{
horizontal = 1;
origin = (0,3);
target = up;
type = BottomGhost;
},
{
origin = (0,21);
target = (1,2);
type = Stem;
},
{
origin = (0,15);
target = (0,4);
type = Stem;
},
{
horizontal = 1;
origin = (0,10);
target = down;
type = TopGhost;
}
);
layerId = "3E87E8DA-1F15-4738-9454-A2AB4CEA57DC";
shapes = (
{
closed = 1;
nodes = (
(436,-8,o),
(510,25,o),
(564,79,c),
(564,0,l),
(664,0,l),
(664,746,l),
(730,746,l),
(730,814,l),
(664,814,l),
(664,960,l),
(562,960,l),
(562,814,l),
(350,814,l),
(350,746,l),
(562,746,l),
(562,524,l),
(509,575,o),
(435,608,o),
(353,608,cs),
(188,608,o),
(54,470,o),
(54,300,cs),
(54,130,o),
(188,-8,o),
(353,-8,cs)
);
},
{
closed = 1;
nodes = (
(253,90,o),
(162,184,o),
(162,300,cs),
(162,416,o),
(253,510,o),
(367,510,cs),
(481,510,o),
(572,416,o),
(572,300,cs),
(572,184,o),
(481,90,o),
(367,90,cs)
);
}
);
width = 760;
},
{
layerId = "5864D40E-51E2-4FDD-96DA-51B6D988DC78";
shapes = (
{
closed = 1;
nodes = (
(413,-16,o),
(478,12,o),
(524,59,c),
(524,0,l),
(674,0,l),
(674,726,l),
(731,726,l),
(731,834,l),
(674,834,l),
(674,960,l),
(512,960,l),
(512,834,l),
(315,834,l),
(315,726,l),
(512,726,l),
(512,552,l),
(467,592,o),
(407,616,o),
(337,616,cs),
(170,616,o),
(36,474,o),
(36,300,cs),
(36,126,o),
(170,-16,o),
(337,-16,cs)
);
},
{
closed = 1;
nodes = (
(269,137,o),
(198,210,o),
(198,300,cs),
(198,390,o),
(269,463,o),
(357,463,cs),
(445,463,o),
(516,390,o),
(516,300,cs),
(516,210,o),
(445,137,o),
(357,137,cs)
);
}
);
width = 740;
}
);
unicode = 273;
},
